<svg width="701" height="537" viewBox="0 0 701 537" fill="none" xmlns="http://www.w3.org/2000/svg">
<ellipse cx="7.16515" cy="6.9525" rx="6.88097" ry="6.9525" fill="#000033" fill-opacity="0.15"/>
<ellipse cx="7.16515" cy="45.4586" rx="6.88097" ry="6.9525" fill="#000033" fill-opacity="0.15"/>
<ellipse cx="7.16515" cy="83.965" rx="6.88097" ry="6.9525" fill="#000033" fill-opacity="0.15"/>
<ellipse cx="7.16515" cy="122.471" rx="6.88097" ry="6.9525" fill="#000033" fill-opacity="0.15"/>
<ellipse cx="7.16515" cy="160.977" rx="6.88097" ry="6.9525" fill="#000033" fill-opacity="0.15"/>
<ellipse cx="7.16515" cy="199.484" rx="6.88097" ry="6.9525" fill="#000033" fill-opacity="0.15"/>
<ellipse cx="7.16515" cy="237.99" rx="6.88097" ry="6.9525" fill="#000033" fill-opacity="0.15"/>
<ellipse cx="7.16515" cy="276.496" rx="6.88097" ry="6.9525" fill="#000033" fill-opacity="0.15"/>
<ellipse cx="7.16515" cy="315.002" rx="6.88097" ry="6.9525" fill="#000033" fill-opacity="0.15"/>
<ellipse cx="7.16515" cy="353.508" rx="6.88097" ry="6.9525" fill="#000033" fill-opacity="0.15"/>
<ellipse cx="30.4547" cy="6.9525" rx="6.88097" ry="6.9525" fill="#000033" fill-opacity="0.15"/>
<ellipse cx="30.4547" cy="45.4586" rx="6.88097" ry="6.9525" fill="#000033" fill-opacity="0.15"/>
<ellipse cx="30.4547" cy="83.965" rx="6.88097" ry="6.9525" fill="#000033" fill-opacity="0.15"/>
<ellipse cx="30.4547" cy="122.471" rx="6.88097" ry="6.9525" fill="#000033" fill-opacity="0.15"/>
<ellipse cx="30.4547" cy="160.977" rx="6.88097" ry="6.9525" fill="#000033" fill-opacity="0.15"/>
<ellipse cx="30.4547" cy="199.484" rx="6.88097" ry="6.9525" fill="#000033" fill-opacity="0.15"/>
<ellipse cx="30.4547" cy="237.99" rx="6.88097" ry="6.9525" fill="#000033" fill-opacity="0.15"/>
<ellipse cx="30.4547" cy="276.496" rx="6.88097" ry="6.9525" fill="#000033" fill-opacity="0.15"/>
<ellipse cx="30.4547" cy="315.002" rx="6.88097" ry="6.9525" fill="#000033" fill-opacity="0.15"/>
<ellipse cx="30.4547" cy="353.508" rx="6.88097" ry="6.9525" fill="#000033" fill-opacity="0.15"/>
<ellipse cx="53.7438" cy="6.9525" rx="6.88097" ry="6.9525" fill="#000033" fill-opacity="0.15"/>
<ellipse cx="53.7438" cy="45.4586" rx="6.88097" ry="6.9525" fill="#000033" fill-opacity="0.15"/>
<ellipse cx="53.7438" cy="83.965" rx="6.88097" ry="6.9525" fill="#000033" fill-opacity="0.15"/>
<ellipse cx="53.7438" cy="122.471" rx="6.88097" ry="6.9525" fill="#000033" fill-opacity="0.15"/>
<ellipse cx="53.7438" cy="160.977" rx="6.88097" ry="6.9525" fill="#000033" fill-opacity="0.15"/>
<ellipse cx="53.7438" cy="199.484" rx="6.88097" ry="6.9525" fill="#000033" fill-opacity="0.15"/>
<ellipse cx="53.7438" cy="237.99" rx="6.88097" ry="6.9525" fill="#000033" fill-opacity="0.15"/>
<ellipse cx="53.7438" cy="276.496" rx="6.88097" ry="6.9525" fill="#000033" fill-opacity="0.15"/>
<ellipse cx="53.7438" cy="315.002" rx="6.88097" ry="6.9525" fill="#000033" fill-opacity="0.15"/>
<ellipse cx="53.7438" cy="353.508" rx="6.88097" ry="6.9525" fill="#000033" fill-opacity="0.15"/>
<ellipse cx="77.0333" cy="6.9525" rx="6.88097" ry="6.9525" fill="#000033" fill-opacity="0.15"/>
<ellipse cx="77.0333" cy="45.4586" rx="6.88097" ry="6.9525" fill="#000033" fill-opacity="0.15"/>
<ellipse cx="77.0333" cy="83.965" rx="6.88097" ry="6.9525" fill="#000033" fill-opacity="0.15"/>
<ellipse cx="77.0333" cy="122.471" rx="6.88097" ry="6.9525" fill="#000033" fill-opacity="0.15"/>
<ellipse cx="77.0333" cy="160.977" rx="6.88097" ry="6.9525" fill="#000033" fill-opacity="0.15"/>
<ellipse cx="77.0333" cy="199.484" rx="6.88097" ry="6.9525" fill="#000033" fill-opacity="0.15"/>
<ellipse cx="77.0333" cy="237.99" rx="6.88097" ry="6.9525" fill="#000033" fill-opacity="0.15"/>
<ellipse cx="77.0333" cy="276.496" rx="6.88097" ry="6.9525" fill="#000033" fill-opacity="0.15"/>
<ellipse cx="77.0333" cy="315.002" rx="6.88097" ry="6.9525" fill="#000033" fill-opacity="0.15"/>
<ellipse cx="77.0333" cy="353.508" rx="6.88097" ry="6.9525" fill="#000033" fill-opacity="0.15"/>
<ellipse cx="100.322" cy="6.9525" rx="6.88097" ry="6.9525" fill="#000033" fill-opacity="0.15"/>
<ellipse cx="100.322" cy="45.4586" rx="6.88097" ry="6.9525" fill="#000033" fill-opacity="0.15"/>
<ellipse cx="100.322" cy="83.965" rx="6.88097" ry="6.9525" fill="#000033" fill-opacity="0.15"/>
<ellipse cx="100.322" cy="122.471" rx="6.88097" ry="6.9525" fill="#000033" fill-opacity="0.15"/>
<ellipse cx="100.322" cy="160.977" rx="6.88097" ry="6.9525" fill="#000033" fill-opacity="0.15"/>
<ellipse cx="100.322" cy="199.484" rx="6.88097" ry="6.9525" fill="#000033" fill-opacity="0.15"/>
<ellipse cx="100.322" cy="237.99" rx="6.88097" ry="6.9525" fill="#000033" fill-opacity="0.15"/>
<ellipse cx="100.322" cy="276.496" rx="6.88097" ry="6.9525" fill="#000033" fill-opacity="0.15"/>
<ellipse cx="100.322" cy="315.002" rx="6.88097" ry="6.9525" fill="#000033" fill-opacity="0.15"/>
<ellipse cx="100.322" cy="353.508" rx="6.88097" ry="6.9525" fill="#000033" fill-opacity="0.15"/>
<ellipse cx="123.612" cy="6.9525" rx="6.88097" ry="6.9525" fill="#000033" fill-opacity="0.15"/>
<ellipse cx="123.612" cy="45.4586" rx="6.88097" ry="6.9525" fill="#000033" fill-opacity="0.15"/>
<ellipse cx="123.612" cy="83.965" rx="6.88097" ry="6.9525" fill="#000033" fill-opacity="0.15"/>
<ellipse cx="123.612" cy="122.471" rx="6.88097" ry="6.9525" fill="#000033" fill-opacity="0.15"/>
<ellipse cx="123.612" cy="160.977" rx="6.88097" ry="6.9525" fill="#000033" fill-opacity="0.15"/>
<ellipse cx="123.612" cy="199.484" rx="6.88097" ry="6.9525" fill="#000033" fill-opacity="0.15"/>
<ellipse cx="123.612" cy="237.99" rx="6.88097" ry="6.9525" fill="#000033" fill-opacity="0.15"/>
<ellipse cx="123.612" cy="276.496" rx="6.88097" ry="6.9525" fill="#000033" fill-opacity="0.15"/>
<ellipse cx="123.612" cy="315.002" rx="6.88097" ry="6.9525" fill="#000033" fill-opacity="0.15"/>
<ellipse cx="123.612" cy="353.508" rx="6.88097" ry="6.9525" fill="#000033" fill-opacity="0.15"/>
<ellipse cx="146.902" cy="6.9525" rx="6.88097" ry="6.9525" fill="#000033" fill-opacity="0.15"/>
<ellipse cx="146.902" cy="45.4586" rx="6.88097" ry="6.9525" fill="#000033" fill-opacity="0.15"/>
<ellipse cx="146.902" cy="83.965" rx="6.88097" ry="6.9525" fill="#000033" fill-opacity="0.15"/>
<ellipse cx="146.902" cy="122.471" rx="6.88097" ry="6.9525" fill="#000033" fill-opacity="0.15"/>
<ellipse cx="146.902" cy="160.977" rx="6.88097" ry="6.9525" fill="#000033" fill-opacity="0.15"/>
<ellipse cx="146.902" cy="199.484" rx="6.88097" ry="6.9525" fill="#000033" fill-opacity="0.15"/>
<ellipse cx="146.902" cy="237.99" rx="6.88097" ry="6.9525" fill="#000033" fill-opacity="0.15"/>
<ellipse cx="146.902" cy="276.496" rx="6.88097" ry="6.9525" fill="#000033" fill-opacity="0.15"/>
<ellipse cx="146.902" cy="315.002" rx="6.88097" ry="6.9525" fill="#000033" fill-opacity="0.15"/>
<ellipse cx="146.902" cy="353.508" rx="6.88097" ry="6.9525" fill="#000033" fill-opacity="0.15"/>
<path d="M0.28418 191C0.28418 88.8273 83.1115 6 185.284 6H701V343C701 448.486 615.487 534 510 534H183.284C82.2159 534 0.28418 452.068 0.28418 351V191Z" fill="#E5ECFD"/>
<mask id="mask0_97_54" style="mask-type:alpha" maskUnits="userSpaceOnUse" x="0" y="9" width="701" height="528">
<path d="M0.28418 194C0.28418 91.8273 83.1115 9 185.284 9H701V346C701 451.486 615.487 537 510 537H183.284C82.2159 537 0.28418 455.068 0.28418 354V194Z" fill="#060606"/>
</mask>
<g mask="url(#mask0_97_54)">
<path d="M530.28 453.104C519.933 464.083 510.145 471.162 502.409 476.755C411.492 542.503 303.913 523.338 281.049 518.664C247.286 511.749 182.023 498.386 134.84 442.463C63.4557 357.855 74.5707 224.559 129.941 136.574C140.065 120.48 193.579 31.1483 302.308 16.8228C368.115 8.15315 444.826 25.6382 500.377 72.5469C616.984 171.002 608.684 369.914 530.28 453.104Z" fill="url(#paint0_linear_97_54)"/>
<path d="M565.307 70.2498C564.315 67.5166 560.345 67.9484 559.959 70.8292C556.228 98.6621 544.178 171.341 515.876 213.004C469.793 280.838 447.143 383.62 489.054 429.275C489.054 429.281 673.459 367.438 565.307 70.2498Z" fill="#BDD0FB"/>
<path opacity="0.43" d="M565.378 109.209C565.432 110.094 565.407 110.828 565.414 111.619L565.387 113.953L565.28 118.613C565.188 121.71 565.049 124.821 564.918 127.924C564.616 134.127 564.245 140.327 563.805 146.524C562.912 158.914 561.688 171.279 560.279 183.622C558.871 195.965 557.153 208.277 555.163 220.542C553.173 232.807 550.974 245.044 548.396 257.2C543.296 281.527 536.878 305.597 528.8 329.115C524.642 340.828 520.171 352.438 515.046 363.761C509.841 375.043 504.157 386.107 497.69 396.705C497.621 396.808 497.515 396.881 497.394 396.909C497.274 396.937 497.147 396.917 497.04 396.854C496.934 396.79 496.855 396.689 496.82 396.569C496.785 396.449 496.797 396.32 496.853 396.209C502.862 385.41 508.317 374.306 513.196 362.943C518.112 351.6 522.37 339.984 526.322 328.264C530.274 316.544 533.743 304.666 536.952 292.718C540.161 280.77 542.868 268.683 545.512 256.591C550.699 232.375 554.601 207.889 557.831 183.322C559.42 171.033 560.773 158.714 561.892 146.365C562.466 140.193 562.976 134.016 563.422 127.834L564.011 118.558L564.259 113.917L564.356 111.599C564.376 110.839 564.41 110.023 564.401 109.356V109.243C564.396 109.115 564.442 108.989 564.529 108.895C564.615 108.8 564.736 108.744 564.863 108.739C564.991 108.734 565.115 108.781 565.209 108.868C565.303 108.955 565.358 109.076 565.363 109.205L565.378 109.209Z" fill="white"/>
<path d="M444.932 18.5143C443.283 16.2859 439.758 17.7691 440.185 20.5187C444.298 47.0706 452.919 117.033 438.241 163.021C414.343 237.9 421.39 338.384 472.183 368.739C472.183 368.726 624.552 261.31 444.932 18.5143Z" fill="#91B3FA"/>
<path opacity="0.43" d="M455.548 54.215C455.839 55.0131 456.015 55.6928 456.237 56.4161L456.843 58.5626L458.007 62.8646C458.764 65.7381 459.477 68.6225 460.189 71.5051C461.592 77.2776 462.931 83.0653 464.206 88.8681C466.737 100.477 468.97 112.153 471.02 123.853C473.07 135.553 474.829 147.32 476.323 159.116C477.816 170.913 479.125 182.737 480.056 194.597C481.965 218.308 482.587 242.154 481.549 265.936C480.9 277.822 479.946 289.697 478.308 301.492C476.585 313.27 474.365 324.979 471.308 336.476C471.278 336.599 471.2 336.705 471.093 336.771C470.985 336.836 470.857 336.856 470.735 336.826C470.612 336.796 470.507 336.718 470.442 336.61C470.377 336.501 470.357 336.371 470.387 336.249C472.973 324.692 474.967 313.009 476.363 301.246C477.798 289.493 478.555 277.665 479.007 265.838C479.459 254.011 479.425 242.15 479.132 230.318C478.839 218.485 478.047 206.652 477.203 194.835C475.406 171.203 472.356 147.677 468.672 124.259C466.806 112.551 464.715 100.882 462.398 89.2508C461.255 83.4346 460.049 77.6299 458.783 71.8368L456.814 63.1671L455.785 58.8432L455.243 56.6895C455.062 55.9879 454.867 55.2318 454.677 54.6232L454.646 54.5211C454.626 54.4624 454.618 54.4003 454.622 54.3384C454.626 54.2764 454.642 54.2159 454.669 54.1603C454.697 54.1046 454.734 54.0549 454.781 54.0139C454.827 53.973 454.881 53.9416 454.939 53.9217C454.997 53.9017 455.059 53.8935 455.12 53.8975C455.182 53.9015 455.242 53.9177 455.297 53.9451C455.352 53.9725 455.402 54.0106 455.442 54.0572C455.483 54.1039 455.514 54.1581 455.534 54.2168L455.548 54.215Z" fill="white"/>
<path d="M434.79 409.943C513.505 330.608 513.505 201.982 434.79 122.648C356.075 43.3132 228.453 43.3132 149.738 122.648C71.023 201.982 71.023 330.608 149.738 409.943C228.453 489.277 356.075 489.277 434.79 409.943Z" fill="url(#paint1_linear_97_54)"/>
<path d="M448.293 409.943C527.008 330.609 527.008 201.982 448.293 122.648C369.578 43.3135 241.956 43.3135 163.241 122.648C84.5259 201.982 84.5259 330.609 163.241 409.943C241.956 489.277 369.578 489.277 448.293 409.943Z" fill="white"/>
<path d="M305.766 439.674C400.772 439.674 477.79 362.05 477.79 266.296C477.79 170.541 400.772 92.917 305.766 92.917C210.759 92.917 133.741 170.541 133.741 266.296C133.741 362.05 210.759 439.674 305.766 439.674Z" fill="url(#paint2_linear_97_54)"/>
<path d="M305.766 448.358C206.16 448.358 125.125 366.685 125.125 266.296C125.125 165.906 206.162 84.231 305.766 84.231C405.37 84.231 486.408 165.904 486.408 266.296C486.408 366.687 405.372 448.358 305.766 448.358ZM305.766 92.9152C210.911 92.9152 133.741 170.692 133.741 266.296C133.741 361.899 210.911 439.674 305.766 439.674C400.621 439.674 477.791 361.897 477.791 266.296C477.791 170.694 400.621 92.9152 305.766 92.9152Z" fill="white"/>
<path d="M379.924 341.036C420.88 299.758 420.88 232.833 379.924 191.555C338.968 150.276 272.566 150.276 231.61 191.555C190.654 232.833 190.654 299.758 231.61 341.036C272.566 382.314 338.968 382.314 379.924 341.036Z" fill="url(#paint3_linear_97_54)"/>
<path d="M305.766 380.679C243.187 380.679 192.275 329.367 192.275 266.296C192.275 203.225 243.187 151.912 305.766 151.912C368.344 151.912 419.257 203.223 419.257 266.296C419.257 329.369 368.344 380.679 305.766 380.679ZM305.766 169.279C252.688 169.279 209.506 212.8 209.506 266.296C209.506 319.791 252.688 363.313 305.766 363.313C358.844 363.313 402.025 319.79 402.025 266.296C402.025 212.802 358.844 169.279 305.766 169.279Z" fill="white"/>
<path d="M334.498 295.253C350.366 279.26 350.366 253.331 334.498 237.338C318.63 221.345 292.903 221.345 277.035 237.338C261.167 253.331 261.167 279.26 277.035 295.253C292.903 311.246 318.63 311.246 334.498 295.253Z" fill="url(#paint4_linear_97_54)"/>
<path d="M305.766 315.93C278.612 315.93 256.519 293.664 256.519 266.296C256.519 238.927 278.612 216.659 305.766 216.659C332.921 216.659 355.013 238.926 355.013 266.296C355.013 293.666 332.921 315.93 305.766 315.93ZM305.766 234.028C288.112 234.028 273.75 248.503 273.75 266.296C273.75 284.089 288.112 298.562 305.766 298.562C323.42 298.562 337.777 284.089 337.777 266.296C337.777 248.503 323.42 234.028 305.766 234.028Z" fill="white"/>
<path d="M586.48 327.351L595.087 344.858L558.589 336.389C552.684 335.019 547.153 332.344 542.398 328.559C537.642 324.773 533.78 319.971 531.089 314.498L586.48 327.351Z" fill="url(#paint5_linear_97_54)"/>
<path d="M587.682 322.096L603.019 310.145L566.521 301.676C560.615 300.305 554.482 300.273 548.562 301.581C542.643 302.89 537.086 305.507 532.292 309.243L587.682 322.096Z" fill="url(#paint6_linear_97_54)"/>
<path d="M351.581 266.376L350.141 272.682L587.038 327.629L588.478 321.323L351.581 266.376Z" fill="url(#paint7_linear_97_54)"/>
<path d="M362.605 263.293C366.193 264.125 362.297 281.179 358.709 280.346L304.21 260.578C302.196 259.849 302.888 256.82 305.016 257.05L362.605 263.293Z" fill="url(#paint8_linear_97_54)"/>
<path d="M420.428 509.292C420.428 509.292 423.337 513.517 423.484 519.454C423.492 520.128 423.238 520.779 422.775 521.266C422.312 521.753 421.677 522.036 421.009 522.056L398.614 522.843C398.386 522.852 398.161 522.787 397.972 522.657C397.783 522.528 397.64 522.341 397.563 522.124C397.487 521.907 397.482 521.671 397.548 521.451C397.614 521.23 397.748 521.037 397.931 520.899C402.064 517.75 410.199 511.856 416.147 509.441L420.428 509.292Z" fill="url(#paint9_linear_97_54)"/>
<path d="M420.985 502.093L420.412 510.77C420.399 511.001 420.34 511.228 420.24 511.437C420.139 511.645 419.999 511.832 419.826 511.985C419.654 512.139 419.453 512.256 419.235 512.331C419.017 512.406 418.787 512.436 418.557 512.421C417.843 512.358 417.145 512.173 416.492 511.874C416.132 511.707 415.829 511.436 415.622 511.095C415.415 510.754 415.313 510.358 415.33 509.959L415.719 499.489L420.985 502.093Z" fill="url(#paint10_linear_97_54)"/>
<path d="M545.184 471.437C545.184 471.437 549.854 469.36 555.67 470.344C556.328 470.464 556.913 470.839 557.3 471.389C557.686 471.94 557.842 472.621 557.734 473.287L554.252 495.597C554.217 495.824 554.111 496.035 553.949 496.197C553.788 496.359 553.579 496.465 553.353 496.5C553.127 496.534 552.896 496.495 552.694 496.388C552.492 496.281 552.329 496.112 552.229 495.905C549.946 491.217 545.746 482.048 544.524 475.705L545.184 471.437Z" fill="url(#paint11_linear_97_54)"/>
<path d="M538.272 469.519L546.615 471.732C546.839 471.789 547.05 471.889 547.235 472.028C547.42 472.167 547.576 472.341 547.693 472.541C547.811 472.741 547.888 472.963 547.92 473.193C547.953 473.423 547.939 473.658 547.881 473.883C547.682 474.576 547.368 475.231 546.952 475.819C546.72 476.144 546.398 476.393 546.026 476.533C545.654 476.673 545.25 476.699 544.863 476.607L534.739 474.238L538.272 469.519Z" fill="url(#paint12_linear_97_54)"/>
<path d="M424.013 293.984C424.013 293.984 423.263 292.237 423.384 291.204C423.505 290.171 423.534 286.942 421.612 285.579C421.612 285.579 420.571 285.63 420.551 286.807C419.327 285.482 419.266 284.34 418 285.151C416.735 285.962 411.978 288.871 414.355 290.79C416.733 292.709 420.466 296.36 420.466 296.36L424.013 293.984Z" fill="url(#paint13_linear_97_54)"/>
<path d="M465.233 433.566C465.233 433.566 469.472 467.656 481.607 468.957C493.742 470.258 540.219 477.024 540.219 477.024L541.51 469.998C541.51 469.998 514.657 453.599 498.648 453.865C490.645 441.893 492.597 408.816 492.597 408.816L465.233 433.566Z" fill="url(#paint14_linear_97_54)"/>
<path d="M515.162 314.547C513.733 352.553 493.951 355.909 493.951 355.909V404.522H466.059C466.059 404.522 452.534 371.326 452.885 360.23C432.769 351.666 422.587 302.636 420.46 296.359C421.451 295.599 421.983 295.63 424.008 293.99C451.426 337.972 458.117 344.732 458.117 344.732H473.609C503.378 342.038 510.7 313.518 510.7 313.518L515.162 314.547Z" fill="url(#paint15_linear_97_54)"/>
<path d="M493.075 404.427C493.075 404.427 495.291 428.246 448.74 446.81C437.391 468.141 422.485 507.923 422.485 507.923H412.674C412.674 507.923 419.387 447.846 431.263 435.875C443.139 423.904 456.098 410.434 466.057 404.534C489.097 402.104 493.075 404.427 493.075 404.427Z" fill="url(#paint16_linear_97_54)"/>
<path d="M473.233 327.009L478.367 345.23C478.367 345.23 469.594 349.984 463.107 348.692L461.324 332.626L473.233 327.009Z" fill="url(#paint17_linear_97_54)"/>
<path d="M462.598 313.775C462.417 313.988 455.426 331.489 455.426 331.489L465.427 335.296L474.49 319.699C474.49 319.699 465.747 310.205 462.598 313.775Z" fill="url(#paint18_linear_97_54)"/>
<path d="M470.333 321.752L466.2 330.34C466.148 330.449 466.081 330.551 466.001 330.642C465.508 331.202 463.671 333.011 461.955 331.007C460.399 329.185 458.951 327.545 457.494 327.115C457.178 327.02 456.839 327.048 456.543 327.192C456.247 327.337 456.015 327.587 455.892 327.895C455.257 329.485 453.903 333.095 453.18 336.415C453.112 336.74 453.167 337.078 453.334 337.364C453.501 337.65 453.769 337.863 454.084 337.96C456.053 338.574 460.231 339.751 463.827 339.902C464.064 339.913 464.301 339.859 464.511 339.746C464.721 339.633 464.897 339.465 465.02 339.259C466.242 337.209 469.981 330.998 471.288 329.42C472.515 327.947 475.084 328.283 476.151 328.509C476.324 328.544 476.502 328.544 476.674 328.508C476.847 328.472 477.01 328.401 477.154 328.299C478.192 327.57 480.228 325.648 477.984 322.813C477.873 322.673 477.791 322.511 477.743 322.339C477.695 322.166 477.682 321.985 477.705 321.808C477.728 321.63 477.786 321.458 477.876 321.303C477.966 321.149 478.085 321.014 478.228 320.907C479.429 319.996 480.792 318.31 479.237 315.843C477.657 313.336 475.191 313.427 473.645 313.804C473.343 313.876 473.026 313.838 472.748 313.697C472.471 313.557 472.252 313.322 472.128 313.035C471.977 312.698 471.68 312.423 471.112 312.408C470.931 312.4 470.753 312.354 470.59 312.273C470.428 312.191 470.284 312.076 470.167 311.935C470.051 311.795 469.966 311.631 469.916 311.455C469.867 311.278 469.854 311.094 469.879 310.912C470.071 309.442 469.756 307.523 467.31 306.439C462.971 304.519 459.676 308.578 459.034 311.814C458.392 315.05 463.212 316.865 466.155 316.976C468.392 317.06 469.791 319.464 470.333 320.612C470.418 320.79 470.462 320.984 470.462 321.182C470.462 321.379 470.418 321.574 470.333 321.752Z" fill="url(#paint19_linear_97_54)"/>
<path d="M469.753 332.53C469.753 332.53 471.115 326.939 473.487 326.929C475.859 326.918 477.922 329.115 475.237 332.03C471.907 335.666 469.753 332.53 469.753 332.53Z" fill="url(#paint20_linear_97_54)"/>
<path d="M516.097 304.52C516.097 304.52 510.072 301.83 510.854 306.342C511.637 310.854 510.01 314.148 513.445 314.496C516.88 314.844 517.263 307.637 516.097 304.52Z" fill="url(#paint21_linear_97_54)"/>
<g opacity="0.3">
<path d="M159.408 105.55C158.934 105.572 158.469 105.417 158.102 105.114C157.735 104.812 157.491 104.383 157.419 103.91C157.083 101.751 156.837 99.5371 156.683 97.3505C156.666 97.0967 156.698 96.842 156.778 96.6007C156.858 96.3594 156.984 96.1364 157.15 95.9443C157.315 95.7523 157.517 95.595 157.743 95.4814C157.968 95.3678 158.214 95.3002 158.466 95.2824H158.502C159.005 95.2568 159.497 95.4309 159.874 95.7671C160.25 96.1034 160.481 96.575 160.516 97.0808C160.661 99.1635 160.896 101.261 161.214 103.313C161.253 103.564 161.243 103.82 161.184 104.067C161.125 104.315 161.018 104.548 160.869 104.753C160.721 104.959 160.533 105.132 160.318 105.265C160.103 105.397 159.863 105.485 159.614 105.525C159.546 105.537 159.477 105.545 159.408 105.55ZM158.685 88.7009C158.414 88.7149 158.143 88.6708 157.89 88.5717C157.637 88.4726 157.407 88.3206 157.217 88.1258C157.026 87.931 156.879 87.6977 156.784 87.4413C156.689 87.185 156.649 86.9113 156.667 86.6383C156.814 84.4517 157.054 82.2397 157.381 80.0786C157.475 79.587 157.755 79.1513 158.161 78.8627C158.567 78.5741 159.068 78.4552 159.559 78.5309C160.05 78.6065 160.493 78.8709 160.795 79.2685C161.096 79.6661 161.234 80.1661 161.178 80.6635C160.865 82.7171 160.636 84.8143 160.5 86.897C160.468 87.3702 160.265 87.8152 159.93 88.1477C159.594 88.4801 159.149 88.677 158.679 88.7009H158.685ZM161.655 72.1087C161.348 72.1236 161.042 72.0642 160.762 71.9353C160.483 71.8064 160.238 71.6118 160.048 71.3679C159.858 71.1239 159.729 70.8377 159.672 70.5332C159.615 70.2287 159.631 69.9148 159.719 69.6178C160.343 67.5187 161.066 65.4269 161.867 63.3825C162.062 62.9161 162.431 62.5453 162.894 62.3495C163.357 62.1537 163.878 62.1485 164.345 62.335C164.812 62.5215 165.188 62.8849 165.393 63.3474C165.597 63.8098 165.614 64.3346 165.439 64.8093C164.678 66.7443 163.993 68.7359 163.398 70.7311C163.284 71.1148 163.054 71.4532 162.741 71.6999C162.428 71.9466 162.047 72.0894 161.65 72.1087H161.655ZM168.236 56.5988C167.871 56.6186 167.508 56.5319 167.191 56.3491C166.971 56.2238 166.778 56.056 166.623 55.8554C166.468 55.6549 166.353 55.4254 166.286 55.1801C166.219 54.9349 166.2 54.6787 166.232 54.4263C166.263 54.1738 166.343 53.93 166.468 53.7089C167.553 51.8029 168.713 49.9207 169.944 48.1131C170.24 47.7094 170.679 47.437 171.17 47.3535C171.661 47.2699 172.165 47.3817 172.575 47.6653C172.986 47.9489 173.271 48.3821 173.371 48.8736C173.47 49.365 173.377 49.8764 173.11 50.2997C171.94 52.0161 170.828 53.8036 169.807 55.6148C169.649 55.9001 169.421 56.1401 169.145 56.3122C168.869 56.4843 168.554 56.5829 168.23 56.5988H168.236ZM178.08 42.9584C177.699 42.9782 177.322 42.8835 176.995 42.6863C176.668 42.4891 176.406 42.1983 176.244 41.8509C176.081 41.5035 176.025 41.1152 176.082 40.7355C176.139 40.3558 176.307 40.0018 176.565 39.7186C178.029 38.1042 179.584 36.5299 181.184 35.0413C181.369 34.8688 181.587 34.7349 181.823 34.6471C182.06 34.5593 182.311 34.5193 182.563 34.5295C182.815 34.5396 183.063 34.5997 183.292 34.7063C183.521 34.8128 183.727 34.9638 183.898 35.1506C184.069 35.3373 184.202 35.5562 184.289 35.7947C184.376 36.0333 184.416 36.2868 184.405 36.5407C184.395 36.7947 184.336 37.0442 184.23 37.2749C184.124 37.5057 183.975 37.7132 183.789 37.8856C182.269 39.3014 180.792 40.801 179.4 42.3316C179.231 42.519 179.027 42.6709 178.799 42.7785C178.572 42.8861 178.325 42.9472 178.074 42.9584H178.08ZM190.674 31.8544C190.257 31.876 189.844 31.7601 189.498 31.5243C189.152 31.2885 188.892 30.9455 188.757 30.5473C188.621 30.1491 188.619 29.7173 188.749 29.3173C188.878 28.9173 189.134 28.5709 189.477 28.3304C191.263 27.0804 193.123 25.8924 195.009 24.7991C195.228 24.6723 195.469 24.5901 195.719 24.5572C195.969 24.5243 196.223 24.5414 196.466 24.6075C196.71 24.6736 196.938 24.7873 197.138 24.9423C197.338 25.0973 197.506 25.2904 197.631 25.5106C197.757 25.7309 197.839 25.974 197.871 26.226C197.904 26.478 197.887 26.7341 197.821 26.9795C197.756 27.2249 197.643 27.4549 197.489 27.6564C197.336 27.8578 197.144 28.0268 196.925 28.1536C195.134 29.1941 193.366 30.322 191.67 31.51C191.375 31.7177 191.028 31.8371 190.668 31.8544H190.674ZM260.735 23.6402C260.462 23.6553 260.188 23.6099 259.934 23.5072C258.014 22.7437 256.035 22.0495 254.053 21.461C253.811 21.3885 253.586 21.2687 253.39 21.1085C253.195 20.9483 253.032 20.7508 252.912 20.5273C252.792 20.3038 252.717 20.0586 252.691 19.8058C252.665 19.553 252.688 19.2975 252.76 19.054C252.832 18.8104 252.951 18.5834 253.11 18.3861C253.269 18.1888 253.465 18.025 253.687 17.904C253.909 17.7831 254.152 17.7073 254.403 17.681C254.653 17.6548 254.907 17.6786 255.149 17.7511C257.237 18.3761 259.321 19.1013 261.342 19.9049C261.75 20.0676 262.091 20.366 262.307 20.7506C262.524 21.1352 262.603 21.5829 262.532 22.0192C262.461 22.4555 262.244 22.8542 261.917 23.1491C261.59 23.444 261.173 23.6173 260.735 23.6402ZM205.386 23.8425C204.933 23.8654 204.486 23.7256 204.125 23.4479C203.763 23.1702 203.512 22.7726 203.414 22.3256C203.316 21.8786 203.378 21.4111 203.59 21.006C203.801 20.6009 204.148 20.2844 204.569 20.1126C206.587 19.2945 208.664 18.5529 210.743 17.9115C210.987 17.8283 211.244 17.7953 211.501 17.8143C211.757 17.8333 212.007 17.904 212.236 18.0222C212.465 18.1404 212.668 18.3037 212.833 18.5024C212.998 18.7011 213.122 18.9312 213.197 19.179C213.273 19.4269 213.298 19.6874 213.271 19.9452C213.245 20.203 213.167 20.4529 213.043 20.6799C212.919 20.907 212.751 21.1067 212.549 21.2671C212.348 21.4276 212.116 21.5455 211.868 21.614C209.892 22.2226 207.921 22.926 206.005 23.704C205.806 23.7847 205.595 23.8315 205.381 23.8425H205.386ZM244.576 19.2617C244.447 19.2692 244.317 19.2631 244.189 19.2435C242.148 18.9337 240.065 18.7077 238.001 18.5711C237.749 18.5546 237.503 18.4883 237.277 18.376C237.051 18.2636 236.849 18.1075 236.682 17.9165C236.516 17.7254 236.388 17.5033 236.307 17.2626C236.226 17.022 236.193 16.7676 236.209 16.5139C236.226 16.2603 236.291 16.0124 236.403 15.7844C236.514 15.5563 236.669 15.3527 236.859 15.185C237.048 15.0173 237.269 14.8889 237.507 14.8071C237.746 14.7253 237.999 14.6917 238.25 14.7082C240.42 14.8503 242.615 15.089 244.759 15.4152C245.229 15.4856 245.658 15.7299 245.96 16.1005C246.262 16.4711 246.417 16.9416 246.394 17.4208C246.372 17.9 246.174 18.3537 245.838 18.6939C245.502 19.034 245.053 19.2364 244.578 19.2617H244.576ZM221.504 19.3455C221.014 19.3675 220.535 19.2001 220.163 18.8776C219.792 18.5551 219.557 18.1017 219.506 17.6104C219.456 17.119 219.594 16.6267 219.891 16.2342C220.189 15.8418 220.624 15.5787 221.108 15.499C223.254 15.1564 225.447 14.9032 227.616 14.7446H227.656C228.155 14.7294 228.641 14.9106 229.009 15.2499C229.378 15.5891 229.602 16.0598 229.632 16.5622C229.663 17.0645 229.498 17.5592 229.173 17.9413C228.848 18.3234 228.388 18.563 227.891 18.6094C225.828 18.7588 223.749 18.9993 221.712 19.3254C221.641 19.336 221.57 19.3427 221.498 19.3455H221.504Z" fill="#91B3FA"/>
<path d="M272.777 29.7514C272.387 29.7713 271.999 29.6702 271.667 29.4617C270.827 28.9333 269.961 28.4158 269.095 27.9184C268.87 27.7957 268.672 27.6293 268.513 27.4287C268.353 27.228 268.234 26.9973 268.164 26.75C268.094 26.5027 268.073 26.2438 268.103 25.9883C268.134 25.7329 268.214 25.4861 268.34 25.2623C268.466 25.0386 268.635 24.8424 268.837 24.6853C269.039 24.5281 269.27 24.4132 269.517 24.3471C269.763 24.2811 270.021 24.2652 270.274 24.3006C270.526 24.3359 270.77 24.4217 270.989 24.5529C271.893 25.0722 272.812 25.6189 273.701 26.1728C274.048 26.3908 274.318 26.7149 274.47 27.0979C274.622 27.4809 274.648 27.9027 274.546 28.302C274.443 28.7014 274.217 29.0573 273.9 29.318C273.583 29.5787 273.191 29.7305 272.783 29.7514H272.777Z" fill="#91B3FA"/>
</g>
<g opacity="0.3">
<path d="M306.464 78.0303C306.008 78.0534 305.559 77.912 305.197 77.6315C304.835 77.351 304.585 76.9497 304.49 76.4997C304.284 75.5231 304.054 74.5355 303.806 73.5625C303.68 73.0652 303.754 72.5376 304.014 72.0958C304.273 71.654 304.696 71.3341 305.189 71.2065C305.683 71.0789 306.206 71.1541 306.645 71.4155C307.083 71.6769 307.4 72.1031 307.527 72.6004C307.787 73.6244 308.03 74.6649 308.25 75.698C308.356 76.2004 308.26 76.7246 307.983 77.1555C307.705 77.5864 307.27 77.8886 306.771 77.9957C306.67 78.0155 306.567 78.027 306.464 78.0303Z" fill="#91B3FA"/>
<path d="M237.188 169.085C236.305 169.132 235.419 169.162 234.528 169.177C234.027 169.173 233.547 168.971 233.191 168.616C232.835 168.26 232.63 167.779 232.622 167.273C232.613 166.768 232.8 166.28 233.144 165.912C233.488 165.544 233.96 165.326 234.461 165.305C236.517 165.268 238.567 165.15 240.576 164.94C240.827 164.915 241.08 164.939 241.321 165.013C241.563 165.086 241.788 165.207 241.983 165.368C242.178 165.529 242.34 165.727 242.459 165.951C242.579 166.175 242.653 166.42 242.678 166.673C242.703 166.926 242.679 167.181 242.606 167.425C242.533 167.668 242.414 167.895 242.254 168.091C242.094 168.288 241.898 168.451 241.676 168.572C241.453 168.692 241.21 168.767 240.959 168.792C239.717 168.923 238.448 169.02 237.188 169.085ZM224.4 168.654C224.291 168.659 224.182 168.655 224.073 168.643C221.945 168.388 219.805 168.04 217.709 167.606C217.21 167.503 216.773 167.204 216.492 166.776C216.212 166.347 216.112 165.824 216.214 165.321C216.317 164.818 216.613 164.377 217.038 164.094C217.463 163.812 217.982 163.711 218.481 163.814C220.47 164.224 222.506 164.556 224.527 164.798C225.006 164.853 225.448 165.088 225.763 165.456C226.078 165.824 226.245 166.299 226.229 166.785C226.213 167.271 226.016 167.733 225.677 168.079C225.338 168.426 224.882 168.631 224.4 168.654ZM250.924 167.081C250.448 167.101 249.981 166.943 249.615 166.636C249.248 166.329 249.008 165.896 248.94 165.421C248.873 164.945 248.983 164.462 249.249 164.063C249.515 163.665 249.919 163.381 250.382 163.266C252.354 162.786 254.334 162.214 256.264 161.566C256.506 161.476 256.763 161.437 257.02 161.449C257.277 161.462 257.528 161.526 257.76 161.639C257.992 161.751 258.199 161.909 258.369 162.104C258.539 162.299 258.668 162.526 258.75 162.771C258.831 163.017 258.862 163.277 258.842 163.536C258.822 163.794 258.751 164.046 258.632 164.276C258.514 164.506 258.351 164.71 258.153 164.875C257.955 165.041 257.726 165.164 257.479 165.239C255.446 165.922 253.361 166.514 251.284 167.03C251.166 167.059 251.045 167.076 250.924 167.081ZM208.359 164.895C208.108 164.907 207.858 164.871 207.621 164.787C205.604 164.058 203.59 163.251 201.641 162.364C201.411 162.259 201.204 162.11 201.031 161.924C200.859 161.739 200.724 161.521 200.635 161.283C200.546 161.046 200.504 160.792 200.512 160.538C200.52 160.284 200.578 160.034 200.682 159.803C200.786 159.571 200.934 159.362 201.118 159.188C201.301 159.014 201.518 158.879 201.754 158.789C201.989 158.699 202.241 158.657 202.493 158.665C202.745 158.673 202.993 158.731 203.223 158.836C205.074 159.68 206.985 160.452 208.901 161.136C209.322 161.284 209.678 161.575 209.908 161.959C210.139 162.343 210.23 162.796 210.166 163.24C210.102 163.684 209.887 164.092 209.557 164.394C209.227 164.696 208.804 164.873 208.359 164.895ZM266.392 161.433C265.951 161.455 265.516 161.323 265.16 161.06C264.804 160.796 264.549 160.417 264.437 159.987C264.326 159.556 264.365 159.1 264.548 158.695C264.732 158.29 265.048 157.961 265.443 157.763C267.262 156.852 269.059 155.861 270.811 154.8C271.247 154.534 271.77 154.454 272.265 154.577C272.76 154.7 273.186 155.016 273.449 155.455C273.713 155.895 273.793 156.422 273.671 156.92C273.549 157.419 273.236 157.849 272.799 158.114C270.964 159.231 269.064 160.281 267.15 161.234C266.914 161.349 266.656 161.414 266.394 161.425L266.392 161.433ZM280.257 152.491C279.852 152.513 279.451 152.404 279.111 152.181C278.771 151.958 278.509 151.632 278.364 151.25C278.219 150.869 278.198 150.45 278.304 150.056C278.409 149.661 278.636 149.31 278.952 149.053C280.534 147.765 282.081 146.395 283.551 144.981C283.919 144.626 284.412 144.433 284.922 144.445C285.431 144.456 285.915 144.671 286.267 145.043C286.618 145.414 286.81 145.911 286.798 146.424C286.787 146.937 286.573 147.425 286.205 147.779C284.657 149.268 283.03 150.709 281.363 152.065C281.048 152.319 280.662 152.465 280.259 152.484L280.257 152.491ZM291.857 140.711C291.487 140.73 291.121 140.641 290.801 140.455C290.481 140.268 290.221 139.993 290.052 139.662C289.883 139.33 289.812 138.957 289.849 138.586C289.885 138.216 290.027 137.864 290.257 137.572C291.522 135.967 292.739 134.292 293.872 132.587C294.012 132.375 294.192 132.194 294.402 132.052C294.612 131.911 294.847 131.813 295.094 131.763C295.342 131.713 295.596 131.713 295.844 131.763C296.091 131.812 296.326 131.911 296.536 132.052C296.746 132.193 296.926 132.374 297.066 132.586C297.206 132.797 297.304 133.034 297.353 133.283C297.403 133.533 297.403 133.789 297.353 134.039C297.304 134.288 297.207 134.525 297.067 134.737C295.881 136.528 294.603 138.293 293.27 139.983C293.1 140.199 292.885 140.375 292.642 140.501C292.398 140.627 292.13 140.698 291.857 140.711ZM300.634 126.668C300.301 126.685 299.969 126.614 299.671 126.462C299.374 126.31 299.121 126.083 298.937 125.803C298.753 125.522 298.644 125.198 298.622 124.863C298.6 124.528 298.664 124.192 298.81 123.89C299.697 122.044 300.518 120.14 301.247 118.228C301.337 117.991 301.473 117.774 301.647 117.59C301.821 117.406 302.029 117.258 302.259 117.154C302.49 117.051 302.738 116.995 302.991 116.988C303.243 116.982 303.494 117.025 303.729 117.117C303.964 117.208 304.18 117.345 304.362 117.52C304.545 117.695 304.692 117.905 304.794 118.137C304.897 118.37 304.953 118.62 304.959 118.874C304.966 119.128 304.922 119.381 304.832 119.619C304.065 121.623 303.205 123.627 302.266 125.579C302.116 125.891 301.886 126.156 301.6 126.348C301.313 126.54 300.981 126.65 300.637 126.668H300.634ZM306.139 111.02C305.842 111.034 305.546 110.98 305.274 110.86C305.002 110.74 304.761 110.558 304.571 110.328C304.38 110.099 304.245 109.828 304.175 109.537C304.106 109.246 304.104 108.943 304.17 108.651C304.631 106.658 305.016 104.621 305.309 102.591C305.332 102.328 305.407 102.072 305.531 101.84C305.656 101.607 305.825 101.403 306.031 101.239C306.236 101.075 306.473 100.956 306.725 100.887C306.978 100.819 307.243 100.803 307.502 100.841C307.761 100.879 308.009 100.971 308.232 101.109C308.455 101.248 308.648 101.431 308.798 101.647C308.948 101.863 309.053 102.108 309.106 102.367C309.159 102.625 309.159 102.892 309.106 103.15C308.795 105.288 308.382 107.434 307.905 109.528C307.81 109.935 307.586 110.301 307.268 110.57C306.95 110.839 306.554 110.996 306.139 111.02ZM308.099 94.5443C308.059 94.5443 308.019 94.5443 307.979 94.5443C307.47 94.539 306.983 94.3301 306.627 93.9635C306.27 93.5969 306.073 93.1025 306.077 92.5892C306.094 91.0786 306.063 89.5517 305.987 88.0484C305.958 87.5018 305.926 86.9552 305.886 86.4194C305.867 86.1658 305.899 85.9109 305.978 85.6694C306.057 85.428 306.183 85.2046 306.348 85.0122C306.513 84.8198 306.714 84.6621 306.94 84.548C307.166 84.434 307.411 84.3659 307.663 84.3477C307.915 84.3261 308.169 84.3555 308.409 84.4343C308.65 84.513 308.873 84.6395 309.064 84.8062C309.255 84.9729 309.412 85.1766 309.524 85.4051C309.636 85.6337 309.701 85.8825 309.717 86.137C309.758 86.7073 309.794 87.2777 309.823 87.8516C309.903 89.4332 309.935 91.0404 309.919 92.6274C309.916 93.1201 309.726 93.5929 309.388 93.9492C309.05 94.3054 308.59 94.5183 308.102 94.5443H308.099Z" fill="#91B3FA"/>
<path d="M193.494 157.632C193.1 157.652 192.709 157.55 192.375 157.338C191.494 156.779 190.61 156.192 189.744 155.591C189.524 155.453 189.334 155.271 189.185 155.057C189.037 154.843 188.933 154.601 188.88 154.345C188.826 154.089 188.825 153.825 188.876 153.569C188.927 153.312 189.029 153.069 189.175 152.854C189.322 152.638 189.51 152.455 189.729 152.315C189.948 152.175 190.193 152.081 190.449 152.038C190.705 151.996 190.967 152.007 191.218 152.069C191.47 152.132 191.707 152.245 191.914 152.402C192.736 152.973 193.577 153.53 194.412 154.06C194.758 154.279 195.026 154.604 195.176 154.987C195.327 155.369 195.352 155.791 195.248 156.189C195.145 156.587 194.918 156.942 194.601 157.201C194.284 157.461 193.893 157.612 193.485 157.632H193.494Z" fill="#91B3FA"/>
</g>
<path d="M194.953 135.074C195.079 135.213 195.245 135.309 195.427 135.35C195.609 135.39 195.799 135.373 195.971 135.3L206.021 130.978C210.275 133.947 214.981 136.198 219.953 137.641L222.992 148.209C223.045 148.39 223.152 148.55 223.298 148.666C223.444 148.783 223.623 148.851 223.809 148.862L236.898 149.521C237.085 149.53 237.269 149.481 237.427 149.379C237.584 149.278 237.706 149.131 237.777 148.957L241.848 138.753C246.939 137.818 251.843 136.053 256.369 133.527L265.94 138.838C266.105 138.928 266.292 138.965 266.478 138.943C266.663 138.921 266.837 138.842 266.976 138.716L276.696 129.855C276.834 129.728 276.929 129.562 276.969 129.378C277.009 129.194 276.992 129.003 276.92 128.829L272.632 118.7C275.578 114.413 277.811 109.67 279.243 104.659L289.729 101.596C289.908 101.543 290.066 101.435 290.182 101.288C290.298 101.14 290.366 100.96 290.376 100.772L291.03 87.5802C291.039 87.3921 290.99 87.206 290.889 87.0474C290.788 86.8889 290.641 86.7656 290.468 86.6946L280.344 82.5912C279.417 77.4606 277.665 72.5167 275.159 67.9541L280.429 58.3078C280.518 58.1427 280.554 57.9539 280.532 57.7673C280.511 57.5808 280.432 57.4055 280.308 57.2656L271.516 47.4698C271.39 47.3309 271.225 47.2346 271.043 47.1941C270.86 47.1537 270.67 47.1711 270.498 47.2439L260.448 51.566C256.195 48.5962 251.489 46.3455 246.516 44.9025L243.477 34.3342C243.425 34.1537 243.318 33.9941 243.172 33.8773C243.025 33.7605 242.847 33.6922 242.66 33.6818L229.571 33.0222C229.385 33.0135 229.2 33.0631 229.043 33.1642C228.886 33.2653 228.763 33.413 228.692 33.5871L224.621 43.791C219.531 44.7261 214.625 46.4911 210.098 49.0168L200.527 43.7053C200.363 43.6157 200.176 43.5794 199.991 43.6012C199.806 43.6231 199.632 43.7021 199.493 43.8274L189.774 52.6884C189.636 52.8151 189.54 52.9818 189.5 53.1655C189.46 53.3491 189.477 53.5408 189.55 53.7142L193.838 63.8434C190.891 68.1305 188.658 72.8731 187.227 77.8847L176.741 80.9477C176.562 81.0008 176.403 81.1085 176.287 81.256C176.172 81.4034 176.104 81.5834 176.094 81.7713L175.428 94.9634C175.42 95.1513 175.469 95.3373 175.569 95.4958C175.669 95.6544 175.816 95.7777 175.989 95.849L186.113 99.9524C187.04 105.082 188.792 110.026 191.298 114.588L186.028 124.234C185.939 124.399 185.902 124.588 185.924 124.775C185.946 124.962 186.024 125.138 186.149 125.278L194.953 135.074Z" fill="#91B3FA"/>
<path d="M233.889 104.529C230.484 104.702 227.144 103.536 224.573 101.278C222.002 99.0196 220.4 95.8447 220.104 92.4206C219.808 88.9966 220.841 85.5902 222.986 82.9179C225.131 80.2456 228.22 78.5156 231.604 78.0917C234.988 77.6677 238.403 78.5829 241.132 80.6448C243.86 82.7066 245.689 85.7544 246.234 89.1473C246.779 92.5403 245.997 96.0138 244.052 98.8376C242.108 101.661 239.154 103.615 235.809 104.289C235.176 104.415 234.534 104.495 233.889 104.529ZM232.738 81.0985C230.678 81.1998 228.699 81.9339 227.065 83.2022C225.432 84.4705 224.222 86.2122 223.599 88.1934C222.977 90.1746 222.97 92.3004 223.581 94.2854C224.192 96.2703 225.391 98.0193 227.017 99.2974C228.643 100.575 230.618 101.321 232.677 101.435C234.736 101.549 236.781 101.025 238.535 99.9336C240.29 98.8422 241.672 97.2358 242.494 95.33C243.317 93.4243 243.541 91.3105 243.137 89.2726C242.662 86.8807 241.351 84.7401 239.443 83.24C237.534 81.7399 235.155 80.98 232.738 81.0985Z" fill="#BDD0FB"/>
<path d="M235.126 123.669C234.024 123.725 232.915 123.725 231.798 123.669C231.447 123.651 231.094 123.627 230.744 123.598C229.018 123.454 227.306 123.173 225.624 122.756L225.557 122.74L225.362 122.689L224.986 122.59C224.829 122.548 224.689 122.457 224.587 122.33C224.485 122.203 224.425 122.046 224.416 121.883C224.413 121.802 224.421 121.72 224.441 121.641C224.495 121.443 224.624 121.274 224.8 121.171C224.977 121.069 225.186 121.041 225.383 121.094C231.479 122.742 237.929 122.468 243.866 120.31C249.803 118.152 254.941 114.214 258.591 109.024C261.987 104.214 263.944 98.5225 264.229 92.6254C264.284 91.5589 264.284 90.4903 264.229 89.4239C263.825 81.7401 260.609 74.48 255.204 69.0461C249.798 63.6123 242.586 60.3901 234.962 60.0021C217.967 59.1457 203.452 72.3816 202.6 89.5077C202.548 90.5602 202.548 91.6148 202.6 92.6673C202.829 97.2156 204.049 101.657 206.173 105.677C206.227 105.777 206.258 105.888 206.263 106.002C206.272 106.178 206.221 106.352 206.119 106.495C206.017 106.638 205.869 106.741 205.7 106.788C205.532 106.835 205.352 106.823 205.191 106.753C205.031 106.683 204.899 106.56 204.817 106.404C202.586 102.182 201.305 97.516 201.065 92.7383C201.01 91.6336 201.01 90.5268 201.065 89.4221C201.958 71.4414 217.204 57.5477 235.039 58.446C243.045 58.8498 250.618 62.2303 256.294 67.9341C261.971 73.6378 265.348 81.26 265.773 89.3273C265.829 90.4388 265.829 91.5582 265.773 92.6855C265.372 100.755 262.017 108.388 256.357 114.109C250.696 119.83 243.133 123.234 235.128 123.662L235.126 123.669Z" fill="#BDD0FB"/>
<g opacity="0.3">
<path d="M96.52 159.862C96.2641 159.875 96.0107 159.804 95.7981 159.66C95.5855 159.516 95.4252 159.306 95.3413 159.062C95.0086 158.105 94.6995 157.123 94.4247 156.146C94.382 155.995 94.3693 155.837 94.3873 155.681C94.4053 155.525 94.4535 155.375 94.5293 155.237C94.6051 155.1 94.707 154.98 94.8291 154.882C94.9512 154.785 95.0911 154.712 95.2409 154.669C95.3907 154.626 95.5475 154.614 95.7022 154.632C95.8569 154.65 96.0066 154.698 96.1426 154.775C96.2787 154.851 96.3985 154.954 96.4952 155.077C96.5919 155.2 96.6636 155.341 96.7062 155.492C96.9684 156.425 97.263 157.36 97.5794 158.274C97.6836 158.573 97.666 158.901 97.5304 159.187C97.3948 159.472 97.1524 159.692 96.8563 159.798C96.7478 159.835 96.6345 159.857 96.52 159.862Z" fill="#91B3FA"/>
<path d="M94.3115 150.939C94.0182 150.953 93.73 150.858 93.5026 150.671C93.2751 150.484 93.1247 150.218 93.0803 149.925C92.8152 148.191 92.6384 146.445 92.5506 144.692C92.5307 144.328 92.5162 143.964 92.5054 143.586C92.5066 143.272 92.6259 142.971 92.8394 142.742C93.0528 142.513 93.3444 142.375 93.6552 142.355C93.811 142.35 93.9661 142.376 94.1119 142.431C94.2576 142.487 94.3911 142.571 94.5046 142.679C94.6181 142.786 94.7094 142.915 94.7734 143.059C94.8373 143.202 94.8727 143.356 94.8773 143.513C94.8882 143.867 94.9008 144.22 94.9189 144.57C95.0044 146.242 95.1734 147.908 95.4251 149.563C95.4488 149.718 95.4418 149.876 95.4048 150.029C95.3677 150.181 95.3012 150.325 95.209 150.452C95.1168 150.578 95.0008 150.685 94.8676 150.767C94.7344 150.848 94.5866 150.902 94.4326 150.926C94.391 150.931 94.3512 150.937 94.3115 150.939ZM93.9499 138.528C93.8933 138.532 93.8365 138.532 93.7799 138.528C93.6248 138.514 93.4739 138.469 93.336 138.395C93.1982 138.322 93.076 138.222 92.9764 138.102C92.8768 137.981 92.8019 137.841 92.7558 137.691C92.7097 137.541 92.6934 137.384 92.7079 137.227C92.9007 135.113 93.2225 133.012 93.6715 130.937C93.7047 130.784 93.7676 130.639 93.8565 130.51C93.9455 130.381 94.0587 130.271 94.1899 130.186C94.321 130.101 94.4674 130.043 94.6207 130.016C94.774 129.988 94.9312 129.991 95.0834 130.024C95.2356 130.058 95.3798 130.121 95.5076 130.211C95.6355 130.3 95.7446 130.415 95.8287 130.547C95.9128 130.679 95.9703 130.826 95.9978 130.981C96.0254 131.136 96.0224 131.294 95.9892 131.447C95.5611 133.426 95.2538 135.429 95.069 137.446C95.0427 137.733 94.9143 138 94.7077 138.199C94.501 138.398 94.2299 138.515 93.9445 138.528H93.9499ZM96.5804 126.4C96.4256 126.407 96.271 126.384 96.1248 126.333C95.8285 126.227 95.5861 126.007 95.4505 125.721C95.315 125.435 95.2974 125.106 95.4016 124.808C96.1037 122.804 96.9279 120.847 97.8694 118.946C98.0101 118.662 98.2569 118.446 98.5554 118.346C98.854 118.246 99.1798 118.269 99.4612 118.411C99.7427 118.553 99.9567 118.802 100.056 119.102C100.156 119.403 100.133 119.732 99.9919 120.015C99.0947 121.828 98.3098 123.694 97.6416 125.604C97.5627 125.828 97.419 126.024 97.2289 126.166C97.0389 126.308 96.8112 126.389 96.5749 126.4H96.5804ZM102.089 115.285C101.87 115.297 101.652 115.247 101.459 115.141C101.267 115.035 101.107 114.877 100.998 114.686C100.889 114.494 100.835 114.275 100.842 114.054C100.849 113.833 100.916 113.618 101.037 113.434C102.205 111.666 103.48 109.972 104.853 108.361C105.059 108.119 105.351 107.97 105.666 107.946C105.981 107.921 106.292 108.024 106.532 108.231C106.772 108.438 106.92 108.732 106.944 109.05C106.968 109.367 106.867 109.681 106.661 109.923C105.35 111.458 104.135 113.073 103.022 114.759C102.919 114.916 102.78 115.047 102.617 115.14C102.454 115.233 102.271 115.286 102.084 115.294L102.089 115.285ZM110.122 105.872C109.879 105.884 109.638 105.819 109.433 105.689C109.227 105.558 109.067 105.367 108.973 105.141C108.879 104.915 108.856 104.665 108.907 104.426C108.958 104.187 109.081 103.969 109.259 103.802C110.818 102.375 112.462 101.045 114.182 99.819C114.439 99.6361 114.758 99.5635 115.068 99.6174C115.378 99.6712 115.654 99.8469 115.835 100.106C116.017 100.365 116.089 100.686 116.035 100.999C115.982 101.311 115.808 101.589 115.551 101.772C113.909 102.942 112.339 104.211 110.85 105.573C110.648 105.758 110.389 105.867 110.116 105.881L110.122 105.872ZM120.177 98.7093C119.908 98.7232 119.642 98.6443 119.424 98.4857C119.205 98.3271 119.047 98.0983 118.974 97.8368C118.902 97.5753 118.92 97.2967 119.025 97.047C119.131 96.7972 119.318 96.5911 119.555 96.4626C121.411 95.4594 123.327 94.5734 125.292 93.8096C125.437 93.7504 125.593 93.721 125.751 93.7231C125.908 93.7253 126.063 93.7589 126.207 93.822C126.352 93.8852 126.482 93.9766 126.591 94.091C126.7 94.2054 126.785 94.3404 126.841 94.4883C126.898 94.6361 126.925 94.7939 126.92 94.9523C126.916 95.1107 126.88 95.2666 126.815 95.411C126.75 95.5554 126.658 95.6853 126.543 95.7933C126.428 95.9013 126.292 95.9851 126.145 96.0399C124.272 96.7691 122.446 97.6137 120.676 98.569C120.522 98.6575 120.349 98.7087 120.172 98.7184L120.177 98.7093ZM131.661 94.2451C131.373 94.2487 131.094 94.1472 130.876 93.9594C130.657 93.7716 130.513 93.5102 130.471 93.2237C130.429 92.9372 130.491 92.645 130.646 92.4013C130.802 92.1575 131.039 91.9788 131.315 91.8982C133.361 91.3871 135.435 91.002 137.527 90.7448C137.825 90.7332 138.117 90.8349 138.344 91.0297C138.571 91.2246 138.717 91.4983 138.753 91.7966C138.788 92.0949 138.712 92.3959 138.538 92.6399C138.364 92.8839 138.105 93.053 137.813 93.1136C135.818 93.3546 133.839 93.7197 131.889 94.2068C131.812 94.2301 131.734 94.246 131.655 94.2542L131.661 94.2451ZM150.047 93.1518C149.978 93.1581 149.908 93.1581 149.839 93.1518C148.105 92.9322 146.36 92.8069 144.613 92.7765C144.347 92.7765 144.086 92.7765 143.826 92.7765C143.519 92.7644 143.229 92.6331 143.016 92.4101C142.803 92.1871 142.685 91.8897 142.685 91.5803C142.685 91.2708 142.803 90.9734 143.016 90.7504C143.229 90.5274 143.519 90.3961 143.826 90.384C144.103 90.384 144.379 90.384 144.658 90.395C146.488 90.428 148.314 90.5593 150.13 90.7885C150.424 90.8258 150.694 90.9727 150.886 91.2004C151.078 91.428 151.178 91.7199 151.167 92.0184C151.157 92.317 151.035 92.6006 150.827 92.8134C150.619 93.0262 150.339 93.1528 150.043 93.1682L150.047 93.1518Z" fill="#91B3FA"/>
</g>
<g opacity="0.3">
<path d="M147.024 193.553C146.716 193.559 146.418 193.445 146.192 193.235C145.967 193.024 145.831 192.734 145.813 192.424C145.795 192.115 145.898 191.81 146.098 191.575C146.299 191.34 146.582 191.193 146.888 191.164C148.86 191.037 150.823 190.79 152.766 190.424C153.075 190.366 153.395 190.433 153.654 190.612C153.914 190.792 154.093 191.067 154.151 191.379C154.209 191.691 154.141 192.013 153.964 192.275C153.786 192.536 153.512 192.716 153.203 192.775C151.166 193.158 149.108 193.417 147.04 193.551L147.024 193.553ZM140.955 193.575H140.826C138.757 193.456 136.697 193.212 134.656 192.846C134.503 192.818 134.356 192.761 134.225 192.676C134.094 192.591 133.98 192.482 133.891 192.353C133.802 192.224 133.739 192.079 133.705 191.925C133.672 191.772 133.669 191.614 133.696 191.459C133.723 191.305 133.781 191.157 133.864 191.025C133.948 190.892 134.057 190.778 134.185 190.688C134.313 190.598 134.457 190.535 134.609 190.501C134.761 190.467 134.918 190.464 135.072 190.492C137.019 190.84 138.986 191.071 140.96 191.184C141.263 191.201 141.548 191.334 141.756 191.556C141.965 191.778 142.081 192.072 142.081 192.377C142.081 192.683 141.965 192.977 141.756 193.199C141.548 193.421 141.263 193.554 140.96 193.571L140.955 193.575ZM158.931 191.304C158.642 191.32 158.358 191.229 158.131 191.049C157.904 190.868 157.75 190.61 157.699 190.324C157.647 190.037 157.701 189.741 157.851 189.492C158.001 189.243 158.235 189.057 158.511 188.97C160.395 188.366 162.24 187.647 164.038 186.818C164.324 186.686 164.651 186.674 164.946 186.785C165.241 186.896 165.48 187.12 165.611 187.409C165.742 187.697 165.754 188.026 165.644 188.323C165.534 188.621 165.311 188.862 165.025 188.994C163.14 189.862 161.204 190.614 159.229 191.248C159.132 191.28 159.032 191.299 158.931 191.304ZM129.024 191.426C128.886 191.434 128.747 191.416 128.614 191.375C126.632 190.759 124.689 190.022 122.796 189.167C122.509 189.037 122.284 188.797 122.171 188.501C122.059 188.204 122.068 187.874 122.197 187.584C122.326 187.294 122.563 187.068 122.858 186.955C123.152 186.841 123.479 186.851 123.767 186.98C125.572 187.794 127.424 188.496 129.314 189.083C129.581 189.165 129.812 189.339 129.964 189.576C130.116 189.812 130.181 190.095 130.146 190.375C130.111 190.654 129.98 190.913 129.775 191.104C129.569 191.296 129.304 191.408 129.024 191.421V191.426ZM169.944 186.22C169.681 186.234 169.421 186.16 169.204 186.008C168.988 185.856 168.828 185.636 168.749 185.382C168.671 185.129 168.679 184.856 168.771 184.607C168.864 184.358 169.036 184.148 169.261 184.008C170.945 182.966 172.565 181.822 174.112 180.581C174.358 180.383 174.672 180.292 174.985 180.328C175.297 180.364 175.583 180.523 175.779 180.771C175.975 181.02 176.066 181.336 176.03 181.651C175.995 181.967 175.837 182.255 175.59 182.452C173.968 183.752 172.269 184.952 170.503 186.046C170.335 186.151 170.142 186.211 169.944 186.22ZM179.427 178.624C179.188 178.636 178.951 178.575 178.747 178.45C178.544 178.324 178.382 178.139 178.285 177.919C178.187 177.699 178.157 177.455 178.2 177.218C178.242 176.981 178.355 176.762 178.523 176.591C179.911 175.172 181.213 173.67 182.422 172.094C182.618 171.854 182.898 171.701 183.204 171.666C183.51 171.631 183.818 171.717 184.062 171.906C184.306 172.095 184.467 172.373 184.512 172.68C184.556 172.987 184.481 173.299 184.301 173.551C183.033 175.205 181.668 176.78 180.213 178.269C180.005 178.483 179.724 178.61 179.427 178.624ZM186.839 168.956C186.606 168.969 186.374 168.911 186.174 168.79C185.903 168.628 185.708 168.364 185.63 168.056C185.552 167.749 185.599 167.423 185.76 167.15C186.77 165.437 187.676 163.664 188.472 161.841C188.611 161.57 188.847 161.363 189.132 161.262C189.416 161.161 189.729 161.173 190.006 161.296C190.282 161.418 190.502 161.643 190.62 161.923C190.738 162.203 190.745 162.519 190.641 162.804C189.805 164.718 188.854 166.578 187.794 168.375C187.693 168.544 187.553 168.686 187.384 168.788C187.216 168.889 187.026 168.947 186.83 168.956H186.839Z" fill="#91B3FA"/>
<path d="M117.916 186.406C117.679 186.42 117.444 186.36 117.241 186.235C116.373 185.707 115.516 185.142 114.694 184.577C114.566 184.488 114.456 184.374 114.371 184.243C114.286 184.111 114.228 183.964 114.2 183.809C114.172 183.655 114.174 183.496 114.206 183.343C114.239 183.189 114.301 183.044 114.389 182.914C114.478 182.785 114.59 182.674 114.721 182.589C114.852 182.504 114.998 182.445 115.151 182.416C115.304 182.388 115.461 182.39 115.614 182.423C115.766 182.456 115.911 182.518 116.039 182.607C116.824 183.154 117.641 183.684 118.471 184.189C118.687 184.322 118.856 184.521 118.952 184.758C119.048 184.995 119.066 185.256 119.004 185.504C118.942 185.752 118.803 185.973 118.607 186.135C118.411 186.298 118.169 186.393 117.916 186.406Z" fill="#91B3FA"/>
</g>
<path d="M118.117 170.929C118.201 171.023 118.312 171.088 118.434 171.115C118.556 171.142 118.684 171.13 118.799 171.081L125.53 168.189C128.375 170.177 131.522 171.684 134.848 172.653L136.882 179.727C136.916 179.847 136.987 179.954 137.084 180.032C137.181 180.11 137.3 180.155 137.424 180.162L146.183 180.605C146.308 180.611 146.432 180.578 146.537 180.51C146.642 180.442 146.724 180.343 146.771 180.226L149.495 173.393C152.901 172.766 156.183 171.584 159.213 169.894L165.618 173.449C165.728 173.51 165.853 173.534 165.977 173.52C166.101 173.505 166.218 173.452 166.31 173.367L172.819 167.438C172.912 167.354 172.977 167.242 173.004 167.119C173.03 166.996 173.018 166.867 172.969 166.751L170.1 159.973C172.072 157.103 173.567 153.928 174.524 150.573L181.542 148.523C181.661 148.488 181.767 148.417 181.845 148.319C181.922 148.221 181.967 148.101 181.974 147.976L182.413 139.148C182.42 139.022 182.387 138.897 182.319 138.791C182.252 138.685 182.153 138.603 182.037 138.556L175.258 135.81C174.637 132.377 173.465 129.068 171.787 126.016L175.314 119.56C175.375 119.45 175.399 119.323 175.385 119.198C175.371 119.073 175.318 118.956 175.234 118.862L169.35 112.303C169.266 112.208 169.155 112.143 169.033 112.116C168.911 112.089 168.783 112.101 168.668 112.151L161.944 115.043C159.098 113.055 155.949 111.549 152.621 110.584L150.587 103.513C150.552 103.393 150.482 103.286 150.384 103.208C150.287 103.13 150.169 103.085 150.045 103.077L141.286 102.634C141.161 102.629 141.037 102.662 140.932 102.73C140.827 102.798 140.745 102.897 140.698 103.013L137.974 109.846C134.567 110.472 131.285 111.654 128.256 113.345L121.847 109.79C121.737 109.729 121.611 109.703 121.487 109.718C121.362 109.733 121.245 109.787 121.153 109.872L114.644 115.801C114.552 115.886 114.488 115.997 114.461 116.121C114.434 116.244 114.446 116.372 114.494 116.488L117.369 123.274C115.398 126.143 113.904 129.317 112.945 132.67L105.927 134.72C105.807 134.755 105.701 134.826 105.624 134.924C105.546 135.022 105.501 135.142 105.495 135.267L105.055 144.095C105.049 144.221 105.082 144.345 105.15 144.452C105.217 144.558 105.316 144.64 105.431 144.687L112.213 147.433C112.834 150.866 114.005 154.174 115.682 157.227L112.151 163.677C112.091 163.788 112.067 163.914 112.082 164.039C112.096 164.164 112.149 164.282 112.233 164.375L118.117 170.929Z" fill="#91B3FA"/>
<path d="M144.17 150.651C141.846 150.768 139.567 149.971 137.813 148.43C136.059 146.888 134.967 144.721 134.765 142.385C134.563 140.048 135.268 137.723 136.732 135.899C138.195 134.076 140.303 132.895 142.613 132.605C144.922 132.315 147.253 132.939 149.115 134.346C150.978 135.752 152.227 137.832 152.6 140.147C152.973 142.462 152.44 144.833 151.115 146.761C149.789 148.689 147.774 150.024 145.492 150.485C145.056 150.574 144.614 150.629 144.17 150.651ZM143.4 134.981C143.077 134.998 142.756 135.038 142.439 135.101C140.722 135.447 139.212 136.466 138.24 137.934C137.269 139.403 136.916 141.199 137.26 142.93C137.603 144.66 138.614 146.182 140.071 147.161C141.528 148.14 143.311 148.495 145.027 148.149C146.663 147.821 148.115 146.881 149.091 145.518C150.068 144.155 150.496 142.47 150.29 140.802C150.083 139.134 149.258 137.607 147.98 136.527C146.702 135.447 145.066 134.894 143.4 134.981Z" fill="#BDD0FB"/>
<path d="M145.016 163.974C144.267 164.013 143.51 164.013 142.743 163.974C141.223 163.897 139.715 163.665 138.241 163.282L138.044 163.229C137.802 163.164 137.586 163.023 137.429 162.827C137.271 162.63 137.18 162.388 137.167 162.136C137.161 162.013 137.174 161.89 137.207 161.771C137.289 161.467 137.487 161.207 137.758 161.049C138.029 160.891 138.351 160.847 138.654 160.928C140.027 161.299 141.435 161.521 142.855 161.593H143.088C146.401 161.734 149.696 161.034 152.67 159.557C154.285 158.753 155.785 157.734 157.13 156.527L157.163 156.498L157.264 156.407C159.215 154.637 160.798 152.496 161.922 150.106C163.046 147.715 163.689 145.124 163.814 142.482C163.848 141.792 163.848 141.101 163.814 140.411C163.54 135.26 161.315 130.411 157.598 126.865C153.88 123.319 148.955 121.346 143.836 121.354C138.718 121.361 133.798 123.348 130.091 126.905C126.384 130.462 124.173 135.317 123.914 140.469C123.879 141.15 123.879 141.832 123.914 142.513C124.062 145.458 124.852 148.333 126.226 150.935C126.299 151.074 126.345 151.225 126.36 151.382C126.375 151.538 126.36 151.696 126.314 151.846C126.269 151.996 126.195 152.136 126.096 152.257C125.997 152.379 125.875 152.479 125.738 152.553C125.6 152.627 125.45 152.673 125.295 152.688C125.14 152.704 124.983 152.688 124.834 152.642C124.685 152.597 124.546 152.522 124.426 152.422C124.306 152.322 124.206 152.2 124.133 152.061C122.594 149.149 121.71 145.932 121.544 142.637C121.506 141.875 121.506 141.112 121.544 140.35C121.831 134.585 124.304 129.151 128.451 125.17C132.599 121.188 138.104 118.964 143.832 118.956C149.56 118.947 155.072 121.155 159.231 125.124C163.39 129.093 165.878 134.52 166.182 140.285C166.221 141.057 166.221 141.831 166.182 142.603C165.604 154.239 156.318 163.393 145.016 163.974Z" fill="#BDD0FB"/>
</g>
<defs>
<linearGradient id="paint0_linear_97_54" x1="654.196" y1="675.451" x2="199.474" y2="115.123" gradientUnits="userSpaceOnUse">
<stop stop-color="#DAE3FE"/>
<stop offset="1" stop-color="#E9EFFD"/>
</linearGradient>
<linearGradient id="paint1_linear_97_54" x1="731.183" y1="301.684" x2="-234.448" y2="225.037" gradientUnits="userSpaceOnUse">
<stop stop-color="#4F52FF"/>
<stop offset="1" stop-color="#4042E2"/>
</linearGradient>
<linearGradient id="paint2_linear_97_54" x1="708.781" y1="63.7904" x2="-853.13" y2="836.403" gradientUnits="userSpaceOnUse">
<stop stop-color="#4F52FF"/>
<stop offset="1" stop-color="#4042E2"/>
</linearGradient>
<linearGradient id="paint3_linear_97_54" x1="869.281" y1="-126.384" x2="-475.667" y2="796.252" gradientUnits="userSpaceOnUse">
<stop stop-color="#4F52FF"/>
<stop offset="1" stop-color="#4042E2"/>
</linearGradient>
<linearGradient id="paint4_linear_97_54" x1="584.47" y1="-333.208" x2="214.189" y2="450.893" gradientUnits="userSpaceOnUse">
<stop stop-color="#FF928E"/>
<stop offset="1" stop-color="#FE7062"/>
</linearGradient>
<linearGradient id="paint5_linear_97_54" x1="554.229" y1="325.945" x2="737.089" y2="385.933" gradientUnits="userSpaceOnUse">
<stop stop-color="#4F52FF"/>
<stop offset="1" stop-color="#4042E2"/>
</linearGradient>
<linearGradient id="paint6_linear_97_54" x1="550.725" y1="301.724" x2="740.426" y2="326.348" gradientUnits="userSpaceOnUse">
<stop stop-color="#4F52FF"/>
<stop offset="1" stop-color="#4042E2"/>
</linearGradient>
<linearGradient id="paint7_linear_97_54" x1="293.146" y1="207.274" x2="485.553" y2="303.659" gradientUnits="userSpaceOnUse">
<stop stop-color="#09005D"/>
<stop offset="1" stop-color="#1A0F91"/>
</linearGradient>
<linearGradient id="paint8_linear_97_54" x1="326.071" y1="260.357" x2="486.843" y2="313.099" gradientUnits="userSpaceOnUse">
<stop stop-color="#09005D"/>
<stop offset="1" stop-color="#1A0F91"/>
</linearGradient>
<linearGradient id="paint9_linear_97_54" x1="420.994" y1="513.932" x2="394.948" y2="514.707" gradientUnits="userSpaceOnUse">
<stop stop-color="#09005D"/>
<stop offset="1" stop-color="#1A0F91"/>
</linearGradient>
<linearGradient id="paint10_linear_97_54" x1="422.924" y1="506.617" x2="416.294" y2="507.548" gradientUnits="userSpaceOnUse">
<stop stop-color="#FEBBBA"/>
<stop offset="1" stop-color="#FF928E"/>
</linearGradient>
<linearGradient id="paint11_linear_97_54" x1="551.555" y1="467.663" x2="547.324" y2="493.642" gradientUnits="userSpaceOnUse">
<stop stop-color="#09005D"/>
<stop offset="1" stop-color="#1A0F91"/>
</linearGradient>
<linearGradient id="paint12_linear_97_54" x1="540.079" y1="471.303" x2="539.738" y2="478.051" gradientUnits="userSpaceOnUse">
<stop stop-color="#FEBBBA"/>
<stop offset="1" stop-color="#FF928E"/>
</linearGradient>
<linearGradient id="paint13_linear_97_54" x1="413.925" y1="288.608" x2="424.62" y2="292.099" gradientUnits="userSpaceOnUse">
<stop stop-color="#FEBBBA"/>
<stop offset="1" stop-color="#FF928E"/>
</linearGradient>
<linearGradient id="paint14_linear_97_54" x1="492.268" y1="436.473" x2="542.458" y2="532.611" gradientUnits="userSpaceOnUse">
<stop stop-color="#09005D"/>
<stop offset="1" stop-color="#1A0F91"/>
</linearGradient>
<linearGradient id="paint15_linear_97_54" x1="358.607" y1="473.332" x2="440.985" y2="372.257" gradientUnits="userSpaceOnUse">
<stop stop-color="#FF928E"/>
<stop offset="1" stop-color="#FE7062"/>
</linearGradient>
<linearGradient id="paint16_linear_97_54" x1="422.849" y1="449.931" x2="481.882" y2="461.879" gradientUnits="userSpaceOnUse">
<stop stop-color="#09005D"/>
<stop offset="1" stop-color="#1A0F91"/>
</linearGradient>
<linearGradient id="paint17_linear_97_54" x1="454.425" y1="297.717" x2="493.222" y2="391.963" gradientUnits="userSpaceOnUse">
<stop stop-color="#FEBBBA"/>
<stop offset="1" stop-color="#FF928E"/>
</linearGradient>
<linearGradient id="paint18_linear_97_54" x1="469.562" y1="320.286" x2="466.876" y2="356.04" gradientUnits="userSpaceOnUse">
<stop stop-color="#FEBBBA"/>
<stop offset="1" stop-color="#FF928E"/>
</linearGradient>
<linearGradient id="paint19_linear_97_54" x1="477.336" y1="336.375" x2="457.969" y2="319.464" gradientUnits="userSpaceOnUse">
<stop stop-color="#09005D"/>
<stop offset="1" stop-color="#1A0F91"/>
</linearGradient>
<linearGradient id="paint20_linear_97_54" x1="478.301" y1="358.21" x2="477.028" y2="333.398" gradientUnits="userSpaceOnUse">
<stop stop-color="#FEBBBA"/>
<stop offset="1" stop-color="#FF928E"/>
</linearGradient>
<linearGradient id="paint21_linear_97_54" x1="510.142" y1="308.454" x2="516.703" y2="309.78" gradientUnits="userSpaceOnUse">
<stop stop-color="#FEBBBA"/>
<stop offset="1" stop-color="#FF928E"/>
</linearGradient>
</defs>
</svg>
