<svg width="133" height="65" viewBox="0 0 133 65" fill="none" xmlns="http://www.w3.org/2000/svg">
<g clip-path="url(#clip0_279_171)">
<path d="M63.9954 8.90969L68.3237 16.3605C68.8125 16.3514 69.3036 16.3469 69.7969 16.3469C71.0654 16.3469 72.3147 16.3749 73.5451 16.4309L63.9954 0L53.5024 18.0531C55.3297 17.6401 57.2574 17.2953 59.2788 17.0253L63.9954 8.90969ZM56.2296 16.111L63.9954 2.74075L71.1103 14.9924C70.674 14.9924 70.2355 14.9924 69.7969 14.9924H69.1117L65.1877 8.23812L63.9931 6.18256L62.7963 8.23812L58.42 15.7593C57.68 15.8614 56.9468 15.9839 56.225 16.111H56.2296Z" fill="white"/>
<path d="M57.5589 41C52.1479 38.6381 48.8406 35.4754 48.8406 32.0018C48.8581 30.8086 49.2239 29.646 49.8936 28.6553H80.6439L75.0479 19.015C77.179 18.8381 79.3877 18.7473 81.6466 18.7473C84.5838 18.7447 87.5188 18.9052 90.438 19.2283L90.9998 19.2941C90.5065 19.1701 90.0047 19.0513 89.4946 18.9379C84.4274 17.8581 79.2574 17.3256 74.0749 17.3497H73.9767C72.7022 17.3497 71.446 17.3815 70.2126 17.4382C69.8014 17.4586 69.3926 17.479 68.986 17.5063C65.3306 17.72 61.6985 18.2268 58.1253 19.0218L57.2802 19.2215C55.4423 19.6608 53.6336 20.2132 51.8647 20.8755C45.7891 23.192 42.0044 26.4568 42.0044 30.071C41.9998 34.7131 48.2376 38.7765 57.5589 41ZM70.1943 19.5777L72.8781 24.1993H55.1241C58.8836 22.1165 64.1118 20.4921 70.1943 19.5777Z" fill="white"/>
</g>
<path d="M4.71591 60H0.454545L5.25568 45.4545H10.6534L15.4545 60H11.1932L8.01136 49.4602H7.89773L4.71591 60ZM3.92045 54.2614H11.9318V57.2159H3.92045V54.2614ZM21.3086 60.1989C20.1249 60.1989 19.1116 59.9645 18.2688 59.4957C17.426 59.0223 16.7797 58.3641 16.3299 57.5213C15.8801 56.6738 15.6552 55.6913 15.6552 54.5739C15.6552 53.4564 15.8801 52.4763 16.3299 51.6335C16.7797 50.786 17.426 50.1278 18.2688 49.6591C19.1116 49.1856 20.1249 48.9489 21.3086 48.9489C22.3787 48.9489 23.3043 49.143 24.0856 49.5312C24.8716 49.9148 25.48 50.4593 25.9109 51.1648C26.3417 51.8655 26.5595 52.6894 26.5643 53.6364H22.9279C22.8758 53.0634 22.7101 52.6278 22.4308 52.3295C22.1561 52.0265 21.801 51.875 21.3654 51.875C21.0245 51.875 20.7262 51.9744 20.4705 52.1733C20.2148 52.3674 20.016 52.6634 19.8739 53.0611C19.7319 53.4541 19.6609 53.9489 19.6609 54.5455C19.6609 55.142 19.7319 55.6392 19.8739 56.0369C20.016 56.4299 20.2148 56.7259 20.4705 56.9247C20.7262 57.1188 21.0245 57.2159 21.3654 57.2159C21.6542 57.2159 21.9099 57.1496 22.1325 57.017C22.355 56.8797 22.5349 56.6809 22.6722 56.4205C22.8143 56.1553 22.8995 55.8333 22.9279 55.4545H26.5643C26.5501 56.4157 26.3299 57.2538 25.9038 57.9688C25.4776 58.679 24.8739 59.2282 24.0927 59.6165C23.3162 60.0047 22.3881 60.1989 21.3086 60.1989ZM32.1023 53.8636V60H28.1818V45.4545H31.9602V51.1648H32.0739C32.3201 50.4687 32.7296 49.9266 33.3026 49.5384C33.8755 49.1454 34.5644 48.9489 35.3693 48.9489C36.1411 48.9489 36.8111 49.1241 37.3793 49.4744C37.9522 49.8248 38.3949 50.3078 38.7074 50.9233C39.0246 51.5388 39.1809 52.2443 39.1761 53.0398V60H35.2557V53.8636C35.2604 53.3239 35.1255 52.9001 34.8509 52.5923C34.581 52.2846 34.1951 52.1307 33.6932 52.1307C33.3759 52.1307 33.0966 52.2017 32.8551 52.3438C32.6184 52.4811 32.4337 52.6799 32.3011 52.9403C32.1733 53.196 32.107 53.5038 32.1023 53.8636ZM41.1115 60V49.0909H45.032V60H41.1115ZM43.0717 47.9545C42.5414 47.9545 42.0869 47.7794 41.7081 47.429C41.3293 47.0786 41.1399 46.6572 41.1399 46.1648C41.1399 45.6723 41.3293 45.2509 41.7081 44.9006C42.0869 44.5502 42.5414 44.375 43.0717 44.375C43.6068 44.375 44.0613 44.5502 44.4354 44.9006C44.8142 45.2509 45.0036 45.6723 45.0036 46.1648C45.0036 46.6572 44.8142 47.0786 44.4354 47.429C44.0613 47.7794 43.6068 47.9545 43.0717 47.9545ZM52.2567 60.1989C51.092 60.1989 50.0882 59.9763 49.2454 59.5312C48.4073 59.0814 47.761 58.4375 47.3065 57.5994C46.8567 56.7566 46.6317 55.7481 46.6317 54.5739C46.6317 53.447 46.859 52.4621 47.3136 51.6193C47.7681 50.7765 48.4097 50.1207 49.2383 49.652C50.0669 49.1832 51.0446 48.9489 52.1715 48.9489C52.9954 48.9489 53.7411 49.0767 54.4087 49.3324C55.0763 49.5881 55.6469 49.9598 56.1204 50.4474C56.5939 50.9304 56.9585 51.5175 57.2141 52.2088C57.4698 52.9001 57.5977 53.679 57.5977 54.5455V55.4545H47.8533V53.2955H53.9897C53.985 52.983 53.9045 52.7083 53.7482 52.4716C53.5967 52.2301 53.3907 52.0431 53.1303 51.9105C52.8746 51.7732 52.5835 51.7045 52.2567 51.7045C51.9395 51.7045 51.6483 51.7732 51.3832 51.9105C51.118 52.0431 50.9049 52.2277 50.744 52.4645C50.5877 52.7012 50.5049 52.9782 50.4954 53.2955V55.625C50.4954 55.9754 50.5688 56.2879 50.7156 56.5625C50.8623 56.8371 51.073 57.0526 51.3477 57.2088C51.6223 57.3651 51.9537 57.4432 52.342 57.4432C52.6119 57.4432 52.8581 57.4053 53.0806 57.3295C53.3079 57.2538 53.502 57.1449 53.663 57.0028C53.824 56.8561 53.9424 56.6809 54.0181 56.4773H57.5977C57.4746 57.2348 57.1834 57.893 56.7241 58.4517C56.2648 59.0057 55.6564 59.4366 54.8988 59.7443C54.146 60.0473 53.2653 60.1989 52.2567 60.1989ZM69.9183 49.0909L66.2536 60H61.7081L58.0433 49.0909H62.1626L63.924 56.3068H64.0376L65.799 49.0909H69.9183ZM75.9286 60.1989C74.7638 60.1989 73.7601 59.9763 72.9173 59.5312C72.0792 59.0814 71.4329 58.4375 70.9783 57.5994C70.5285 56.7566 70.3036 55.7481 70.3036 54.5739C70.3036 53.447 70.5309 52.4621 70.9854 51.6193C71.44 50.7765 72.0816 50.1207 72.9102 49.652C73.7388 49.1832 74.7165 48.9489 75.8434 48.9489C76.6673 48.9489 77.413 49.0767 78.0806 49.3324C78.7482 49.5881 79.3188 49.9598 79.7923 50.4474C80.2657 50.9304 80.6303 51.5175 80.886 52.2088C81.1417 52.9001 81.2695 53.679 81.2695 54.5455V55.4545H71.5252V53.2955H77.6616C77.6568 52.983 77.5763 52.7083 77.4201 52.4716C77.2686 52.2301 77.0626 52.0431 76.8022 51.9105C76.5465 51.7732 76.2553 51.7045 75.9286 51.7045C75.6114 51.7045 75.3202 51.7732 75.055 51.9105C74.7899 52.0431 74.5768 52.2277 74.4158 52.4645C74.2596 52.7012 74.1767 52.9782 74.1673 53.2955V55.625C74.1673 55.9754 74.2406 56.2879 74.3874 56.5625C74.5342 56.8371 74.7449 57.0526 75.0195 57.2088C75.2942 57.3651 75.6256 57.4432 76.0138 57.4432C76.2837 57.4432 76.5299 57.4053 76.7525 57.3295C76.9798 57.2538 77.1739 57.1449 77.3349 57.0028C77.4959 56.8561 77.6142 56.6809 77.69 56.4773H81.2695C81.1464 57.2348 80.8552 57.893 80.396 58.4517C79.9367 59.0057 79.3282 59.4366 78.5707 59.7443C77.8178 60.0473 76.9371 60.1989 75.9286 60.1989ZM82.8125 45.4545H87.7273L91.108 53.6932H91.2784L94.6591 45.4545H99.5739V60H95.7102V51.5909H95.5966L92.358 59.8864H90.0284L86.7898 51.5341H86.6761V60H82.8125V45.4545ZM104.542 60.1705C103.846 60.1705 103.23 60.0568 102.695 59.8295C102.165 59.5975 101.748 59.2472 101.445 58.7784C101.142 58.3097 100.991 57.7131 100.991 56.9886C100.991 56.392 101.093 55.883 101.296 55.4616C101.5 55.0355 101.784 54.6875 102.148 54.4176C102.513 54.1477 102.937 53.9418 103.42 53.7997C103.907 53.6577 104.433 53.5653 104.996 53.5227C105.607 53.4754 106.097 53.4186 106.467 53.3523C106.841 53.2812 107.111 53.1842 107.276 53.0611C107.442 52.9332 107.525 52.7652 107.525 52.5568V52.5284C107.525 52.2443 107.416 52.0265 107.198 51.875C106.98 51.7235 106.701 51.6477 106.36 51.6477C105.986 51.6477 105.681 51.7306 105.444 51.8963C105.212 52.0573 105.072 52.3059 105.025 52.642H101.417C101.464 51.9792 101.675 51.3684 102.049 50.8097C102.428 50.2462 102.979 49.7964 103.704 49.4602C104.428 49.1193 105.333 48.9489 106.417 48.9489C107.198 48.9489 107.899 49.0412 108.519 49.2259C109.139 49.4058 109.667 49.6591 110.103 49.9858C110.539 50.3078 110.87 50.6866 111.097 51.1222C111.329 51.553 111.445 52.0218 111.445 52.5284V60H107.781V58.4659H107.695C107.478 58.8731 107.212 59.2022 106.9 59.4531C106.592 59.7041 106.239 59.8864 105.842 60C105.449 60.1136 105.015 60.1705 104.542 60.1705ZM105.82 57.6989C106.119 57.6989 106.398 57.6373 106.658 57.5142C106.924 57.3911 107.139 57.2135 107.305 56.9815C107.47 56.7495 107.553 56.4678 107.553 56.1364V55.2273C107.449 55.2699 107.338 55.3101 107.219 55.348C107.106 55.3859 106.983 55.4214 106.85 55.4545C106.722 55.4877 106.585 55.5185 106.438 55.5469C106.296 55.5753 106.147 55.6013 105.991 55.625C105.688 55.6723 105.439 55.7505 105.245 55.8594C105.056 55.9635 104.914 56.0938 104.819 56.25C104.729 56.4015 104.684 56.572 104.684 56.7614C104.684 57.0644 104.79 57.2964 105.004 57.4574C105.217 57.6184 105.489 57.6989 105.82 57.6989ZM119.824 49.0909V51.9318H112.637V49.0909H119.824ZM114.029 46.4773H117.949V56.4915C117.949 56.643 117.975 56.7708 118.027 56.875C118.079 56.9744 118.16 57.0502 118.269 57.1023C118.378 57.1496 118.517 57.1733 118.688 57.1733C118.806 57.1733 118.944 57.1591 119.1 57.1307C119.261 57.1023 119.379 57.0786 119.455 57.0597L120.023 59.8153C119.848 59.8674 119.597 59.9313 119.27 60.0071C118.948 60.0829 118.565 60.1326 118.12 60.1562C117.22 60.2036 116.465 60.1113 115.854 59.8793C115.243 59.6425 114.784 59.2708 114.476 58.7642C114.168 58.2576 114.019 57.6231 114.029 56.8608V46.4773ZM126.534 60.1989C125.369 60.1989 124.366 59.9763 123.523 59.5312C122.685 59.0814 122.038 58.4375 121.584 57.5994C121.134 56.7566 120.909 55.7481 120.909 54.5739C120.909 53.447 121.136 52.4621 121.591 51.6193C122.045 50.7765 122.687 50.1207 123.516 49.652C124.344 49.1832 125.322 48.9489 126.449 48.9489C127.273 48.9489 128.018 49.0767 128.686 49.3324C129.354 49.5881 129.924 49.9598 130.398 50.4474C130.871 50.9304 131.236 51.5175 131.491 52.2088C131.747 52.9001 131.875 53.679 131.875 54.5455V55.4545H122.131V53.2955H128.267C128.262 52.983 128.182 52.7083 128.026 52.4716C127.874 52.2301 127.668 52.0431 127.408 51.9105C127.152 51.7732 126.861 51.7045 126.534 51.7045C126.217 51.7045 125.926 51.7732 125.661 51.9105C125.395 52.0431 125.182 52.2277 125.021 52.4645C124.865 52.7012 124.782 52.9782 124.773 53.2955V55.625C124.773 55.9754 124.846 56.2879 124.993 56.5625C125.14 56.8371 125.35 57.0526 125.625 57.2088C125.9 57.3651 126.231 57.4432 126.619 57.4432C126.889 57.4432 127.135 57.4053 127.358 57.3295C127.585 57.2538 127.779 57.1449 127.94 57.0028C128.101 56.8561 128.22 56.6809 128.295 56.4773H131.875C131.752 57.2348 131.461 57.893 131.001 58.4517C130.542 59.0057 129.934 59.4366 129.176 59.7443C128.423 60.0473 127.543 60.1989 126.534 60.1989Z" fill="white"/>
<defs>
<clipPath id="clip0_279_171">
<rect width="49" height="41" fill="white" transform="translate(42)"/>
</clipPath>
</defs>
</svg>
