<svg width="50" height="41" viewBox="0 0 50 41" fill="none" xmlns="http://www.w3.org/2000/svg">
<g clip-path="url(#clip0_414_581)">
<path d="M22.4949 8.90969L26.8232 16.3605C27.312 16.3514 27.8031 16.3469 28.2965 16.3469C29.5649 16.3469 30.8143 16.3749 32.0446 16.4309L22.4949 0L12.002 18.0531C13.8292 17.6401 15.757 17.2953 17.7783 17.0253L22.4949 8.90969ZM14.7291 16.111L22.4949 2.74075L29.6098 14.9924C29.1735 14.9924 28.735 14.9924 28.2965 14.9924H27.6112L23.6872 8.23812L22.4927 6.18256L21.2958 8.23812L16.9195 15.7593C16.1795 15.8614 15.4463 15.9839 14.7246 16.111H14.7291Z" fill="white"/>
<path d="M16.0584 41.0002C10.6474 38.6383 7.34011 35.4756 7.34011 32.002C7.35759 30.8088 7.72338 29.6462 8.39306 28.6555H39.1434L33.5474 19.0152C35.6785 18.8383 37.8872 18.7475 40.1461 18.7475C43.0833 18.7448 46.0183 18.9054 48.9375 19.2285L49.4993 19.2943C49.006 19.1703 48.5042 19.0515 47.9941 18.9381C42.9269 17.8583 37.7569 17.3258 32.5744 17.3499H32.4762C31.2017 17.3499 29.9455 17.3817 28.7121 17.4384C28.301 17.4588 27.8921 17.4792 27.4855 17.5065C23.8301 17.7202 20.198 18.227 16.6248 19.022L15.7797 19.2217C13.9418 19.6609 12.1331 20.2133 10.3642 20.8757C4.2886 23.1921 0.503909 26.457 0.503909 30.0712C0.499341 34.7133 6.73711 38.7767 16.0584 41.0002ZM28.6938 19.5779L31.3776 24.1995H13.6236C17.3831 22.1167 22.6114 20.4922 28.6938 19.5779Z" fill="white"/>
</g>
<defs>
<clipPath id="clip0_414_581">
<rect width="49" height="41" fill="white" transform="translate(0.5)"/>
</clipPath>
</defs>
</svg>
