<svg width="140" height="252" viewBox="0 0 140 252" fill="none" xmlns="http://www.w3.org/2000/svg">
<circle cx="1.5" cy="6.5" r="6.5" fill="#000033" fill-opacity="0.15"/>
<circle cx="1.5" cy="42.5" r="6.5" fill="#000033" fill-opacity="0.15"/>
<circle cx="1.5" cy="78.5" r="6.5" fill="#000033" fill-opacity="0.15"/>
<circle cx="1.5" cy="114.5" r="6.5" fill="#000033" fill-opacity="0.15"/>
<circle cx="1.5" cy="150.5" r="6.5" fill="#000033" fill-opacity="0.15"/>
<circle cx="1.5" cy="186.5" r="6.5" fill="#000033" fill-opacity="0.15"/>
<circle cx="1.5" cy="222.5" r="6.5" fill="#000033" fill-opacity="0.15"/>
<circle cx="23.5" cy="6.5" r="6.5" fill="#000033" fill-opacity="0.15"/>
<circle cx="23.5" cy="42.5" r="6.5" fill="#000033" fill-opacity="0.15"/>
<circle cx="23.5" cy="78.5" r="6.5" fill="#000033" fill-opacity="0.15"/>
<circle cx="23.5" cy="114.5" r="6.5" fill="#000033" fill-opacity="0.15"/>
<circle cx="23.5" cy="150.5" r="6.5" fill="#000033" fill-opacity="0.15"/>
<circle cx="23.5" cy="186.5" r="6.5" fill="#000033" fill-opacity="0.15"/>
<circle cx="23.5" cy="222.5" r="6.5" fill="#000033" fill-opacity="0.15"/>
<circle cx="45.5" cy="6.5" r="6.5" fill="#000033" fill-opacity="0.15"/>
<circle cx="45.5" cy="42.5" r="6.5" fill="#000033" fill-opacity="0.15"/>
<circle cx="45.5" cy="78.5" r="6.5" fill="#000033" fill-opacity="0.15"/>
<circle cx="45.5" cy="114.5" r="6.5" fill="#000033" fill-opacity="0.15"/>
<circle cx="45.5" cy="150.5" r="6.5" fill="#000033" fill-opacity="0.15"/>
<circle cx="45.5" cy="186.5" r="6.5" fill="#000033" fill-opacity="0.15"/>
<circle cx="45.5" cy="222.5" r="6.5" fill="#000033" fill-opacity="0.15"/>
<circle cx="67.5" cy="6.5" r="6.5" fill="#000033" fill-opacity="0.15"/>
<circle cx="67.5" cy="42.5" r="6.5" fill="#000033" fill-opacity="0.15"/>
<circle cx="67.5" cy="78.5" r="6.5" fill="#000033" fill-opacity="0.15"/>
<circle cx="67.5" cy="114.5" r="6.5" fill="#000033" fill-opacity="0.15"/>
<circle cx="67.5" cy="150.5" r="6.5" fill="#000033" fill-opacity="0.15"/>
<circle cx="67.5" cy="186.5" r="6.5" fill="#000033" fill-opacity="0.15"/>
<circle cx="67.5" cy="222.5" r="6.5" fill="#000033" fill-opacity="0.15"/>
<circle cx="89.5" cy="6.5" r="6.5" fill="#000033" fill-opacity="0.15"/>
<circle cx="89.5" cy="42.5" r="6.5" fill="#000033" fill-opacity="0.15"/>
<circle cx="89.5" cy="78.5" r="6.5" fill="#000033" fill-opacity="0.15"/>
<circle cx="89.5" cy="114.5" r="6.5" fill="#000033" fill-opacity="0.15"/>
<circle cx="89.5" cy="150.5" r="6.5" fill="#000033" fill-opacity="0.15"/>
<circle cx="89.5" cy="186.5" r="6.5" fill="#000033" fill-opacity="0.15"/>
<circle cx="89.5" cy="222.5" r="6.5" fill="#000033" fill-opacity="0.15"/>
<circle cx="111.5" cy="6.5" r="6.5" fill="#000033" fill-opacity="0.15"/>
<circle cx="111.5" cy="42.5" r="6.5" fill="#000033" fill-opacity="0.15"/>
<circle cx="111.5" cy="78.5" r="6.5" fill="#000033" fill-opacity="0.15"/>
<circle cx="111.5" cy="114.5" r="6.5" fill="#000033" fill-opacity="0.15"/>
<circle cx="111.5" cy="150.5" r="6.5" fill="#000033" fill-opacity="0.15"/>
<circle cx="111.5" cy="186.5" r="6.5" fill="#000033" fill-opacity="0.15"/>
<circle cx="111.5" cy="222.5" r="6.5" fill="#000033" fill-opacity="0.15"/>
<circle cx="133.5" cy="6.5" r="6.5" fill="#000033" fill-opacity="0.15"/>
<circle cx="133.5" cy="42.5" r="6.5" fill="#000033" fill-opacity="0.15"/>
<circle cx="133.5" cy="78.5" r="6.5" fill="#000033" fill-opacity="0.15"/>
<circle cx="133.5" cy="114.5" r="6.5" fill="#000033" fill-opacity="0.15"/>
<circle cx="133.5" cy="150.5" r="6.5" fill="#000033" fill-opacity="0.15"/>
<circle cx="133.5" cy="186.5" r="6.5" fill="#000033" fill-opacity="0.15"/>
<circle cx="133.5" cy="222.5" r="6.5" fill="#000033" fill-opacity="0.15"/>
</svg>
