<svg width="145" height="247" viewBox="0 0 145 247" fill="none" xmlns="http://www.w3.org/2000/svg">
<circle cx="6.5" cy="24.5" r="6.5" fill="#000033" fill-opacity="0.15"/>
<circle cx="6.5" cy="60.5" r="6.5" fill="#000033" fill-opacity="0.15"/>
<circle cx="6.5" cy="96.5" r="6.5" fill="#000033" fill-opacity="0.15"/>
<circle cx="6.5" cy="132.5" r="6.5" fill="#000033" fill-opacity="0.15"/>
<circle cx="6.5" cy="168.5" r="6.5" fill="#000033" fill-opacity="0.15"/>
<circle cx="6.5" cy="204.5" r="6.5" fill="#000033" fill-opacity="0.15"/>
<circle cx="6.5" cy="240.5" r="6.5" fill="#000033" fill-opacity="0.15"/>
<circle cx="28.5" cy="24.5" r="6.5" fill="#000033" fill-opacity="0.15"/>
<circle cx="28.5" cy="60.5" r="6.5" fill="#000033" fill-opacity="0.15"/>
<circle cx="28.5" cy="96.5" r="6.5" fill="#000033" fill-opacity="0.15"/>
<circle cx="28.5" cy="132.5" r="6.5" fill="#000033" fill-opacity="0.15"/>
<circle cx="28.5" cy="168.5" r="6.5" fill="#000033" fill-opacity="0.15"/>
<circle cx="28.5" cy="204.5" r="6.5" fill="#000033" fill-opacity="0.15"/>
<circle cx="28.5" cy="240.5" r="6.5" fill="#000033" fill-opacity="0.15"/>
<circle cx="50.5" cy="24.5" r="6.5" fill="#000033" fill-opacity="0.15"/>
<circle cx="50.5" cy="60.5" r="6.5" fill="#000033" fill-opacity="0.15"/>
<circle cx="50.5" cy="96.5" r="6.5" fill="#000033" fill-opacity="0.15"/>
<circle cx="50.5" cy="132.5" r="6.5" fill="#000033" fill-opacity="0.15"/>
<circle cx="50.5" cy="168.5" r="6.5" fill="#000033" fill-opacity="0.15"/>
<circle cx="50.5" cy="204.5" r="6.5" fill="#000033" fill-opacity="0.15"/>
<circle cx="50.5" cy="240.5" r="6.5" fill="#000033" fill-opacity="0.15"/>
<circle cx="72.5" cy="24.5" r="6.5" fill="#000033" fill-opacity="0.15"/>
<circle cx="72.5" cy="60.5" r="6.5" fill="#000033" fill-opacity="0.15"/>
<circle cx="72.5" cy="96.5" r="6.5" fill="#000033" fill-opacity="0.15"/>
<circle cx="72.5" cy="132.5" r="6.5" fill="#000033" fill-opacity="0.15"/>
<circle cx="72.5" cy="168.5" r="6.5" fill="#000033" fill-opacity="0.15"/>
<circle cx="72.5" cy="204.5" r="6.5" fill="#000033" fill-opacity="0.15"/>
<circle cx="72.5" cy="240.5" r="6.5" fill="#000033" fill-opacity="0.15"/>
<circle cx="94.5" cy="24.5" r="6.5" fill="#000033" fill-opacity="0.15"/>
<circle cx="94.5" cy="60.5" r="6.5" fill="#000033" fill-opacity="0.15"/>
<circle cx="94.5" cy="96.5" r="6.5" fill="#000033" fill-opacity="0.15"/>
<circle cx="94.5" cy="132.5" r="6.5" fill="#000033" fill-opacity="0.15"/>
<circle cx="94.5" cy="168.5" r="6.5" fill="#000033" fill-opacity="0.15"/>
<circle cx="94.5" cy="204.5" r="6.5" fill="#000033" fill-opacity="0.15"/>
<circle cx="94.5" cy="240.5" r="6.5" fill="#000033" fill-opacity="0.15"/>
<circle cx="116.5" cy="24.5" r="6.5" fill="#000033" fill-opacity="0.15"/>
<circle cx="116.5" cy="60.5" r="6.5" fill="#000033" fill-opacity="0.15"/>
<circle cx="116.5" cy="96.5" r="6.5" fill="#000033" fill-opacity="0.15"/>
<circle cx="116.5" cy="132.5" r="6.5" fill="#000033" fill-opacity="0.15"/>
<circle cx="116.5" cy="168.5" r="6.5" fill="#000033" fill-opacity="0.15"/>
<circle cx="116.5" cy="204.5" r="6.5" fill="#000033" fill-opacity="0.15"/>
<circle cx="116.5" cy="240.5" r="6.5" fill="#000033" fill-opacity="0.15"/>
<circle cx="138.5" cy="24.5" r="6.5" fill="#000033" fill-opacity="0.15"/>
<circle cx="138.5" cy="60.5" r="6.5" fill="#000033" fill-opacity="0.15"/>
<circle cx="138.5" cy="96.5" r="6.5" fill="#000033" fill-opacity="0.15"/>
<circle cx="138.5" cy="132.5" r="6.5" fill="#000033" fill-opacity="0.15"/>
<circle cx="138.5" cy="168.5" r="6.5" fill="#000033" fill-opacity="0.15"/>
<circle cx="138.5" cy="204.5" r="6.5" fill="#000033" fill-opacity="0.15"/>
<circle cx="138.5" cy="240.5" r="6.5" fill="#000033" fill-opacity="0.15"/>
</svg>
