<svg width="198" height="111" viewBox="0 0 198 111" fill="none" xmlns="http://www.w3.org/2000/svg">
<g clip-path="url(#clip0_47_765)">
<path d="M97.4508 19.876L98.5862 20.1535L98.0613 22.301L96.9472 22.0286C95.6832 21.7196 94.3978 21.4054 93.1338 21.0964L93.6588 18.9489C94.8533 19.2637 96.1654 19.5617 97.4508 19.876ZM103.574 21.5776C105.245 21.9861 106.858 22.6308 108.482 23.2326L107.721 25.3224C106.113 24.7474 104.522 24.199 102.92 23.6936L103.574 21.5776ZM88.5298 18.1047L88.1976 20.2992C86.5112 20.0463 84.8411 19.82 83.1604 19.6367L83.4068 17.4212C84.9375 17.5679 86.7415 17.804 88.4441 18.0837L88.5298 18.1047ZM113.375 25.1343C114.978 25.822 116.554 26.5259 118.093 27.289L117.118 29.3265C115.595 28.5901 114.062 27.8967 112.497 27.2409L113.375 25.1343ZM78.2476 16.9792L78.1082 19.2209C76.4332 19.1073 74.721 19.0528 73.0464 19.0303L73.0787 16.7624C74.7266 16.8012 76.4387 16.8556 78.1619 16.9583L78.2476 16.9792ZM122.694 29.6428C124.217 30.4703 125.703 31.357 127.189 32.2437L126 34.2288C124.562 33.3311 123.087 32.4926 121.607 31.6755L122.694 29.6428ZM67.9058 16.8405L67.9592 19.1294C66.2689 19.1713 64.568 19.2561 62.8996 19.3944L62.739 17.0794C64.3808 16.9574 66.0869 16.851 67.8201 16.8196L67.9058 16.8405ZM131.562 35.0652C133.001 36.054 134.391 37.0539 135.771 38.0967L134.431 39.8628C133.089 38.852 131.714 37.8788 130.314 36.9219L131.562 35.0652ZM57.6324 17.6289L57.9102 19.836C56.2207 20.0602 54.5527 20.2896 52.8741 20.562L52.5001 18.3769C54.0768 18.0568 55.793 17.8164 57.5039 17.5975L57.6324 17.6289ZM139.846 41.3005C141.167 42.3972 142.478 43.5369 143.735 44.7091L142.245 46.3474C140.999 45.2234 139.709 44.089 138.511 43.0451L139.846 41.3005ZM47.4277 19.3443L47.8926 21.5289C46.2411 21.8762 44.5953 22.2931 42.9495 22.71L42.3884 20.5474C43.9324 20.0828 45.621 19.6764 47.2991 19.3129L47.4277 19.3443ZM147.476 48.3544C148.674 49.5805 149.868 50.8281 151.099 52.1076L149.458 53.6182C148.308 52.3811 147.157 51.144 145.948 49.9608L147.476 48.3544ZM37.4042 22.0826L38.0668 24.2018C36.4428 24.7151 34.8565 25.2603 33.2596 25.8485L32.5009 23.7514C34.0599 23.0705 35.6585 22.4751 37.2967 21.9653L37.4042 22.0826ZM154.321 55.9222C155.415 57.2668 156.492 58.6223 157.55 59.9886L155.769 61.3284C154.757 59.9886 153.697 58.6599 152.605 57.3688L154.321 55.9222ZM27.5608 25.5704L28.421 27.6241C26.8512 28.2872 25.3191 28.9822 23.8031 29.704L22.8415 27.6938C24.3946 26.9129 26.0605 26.2278 27.5713 25.5275L27.5608 25.5704ZM160.587 64.1902C161.556 65.6106 162.499 67.0473 163.437 68.5054L161.533 69.7012C160.638 68.2535 159.711 66.8436 158.758 65.4499L160.587 64.1902ZM18.2034 30.0419L19.2665 32.0086C17.7776 32.8052 16.3421 33.5694 14.8593 34.5269L13.7162 32.6089C15.2152 31.6781 16.6984 30.8118 18.2139 29.9989L18.2034 30.0419ZM166.058 73.015C166.894 74.5166 167.725 76.0397 168.481 77.59L166.512 78.5878C165.745 77.0804 164.973 75.5945 164.11 74.1091L166.058 73.015ZM9.34261 35.454L10.5924 37.307C9.83505 37.8046 9.12054 38.3127 8.37938 38.837L7.09765 37.0216L9.34261 35.454ZM170.702 82.252C171.426 83.84 172.188 85.46 172.709 87.0438L170.626 87.8546C170.014 86.2713 169.371 84.7257 168.684 83.1696L170.702 82.252ZM174.47 91.9122C175.024 93.5494 175.55 95.2029 176.013 96.8407L173.886 97.4588C173.419 95.8425 172.908 94.2157 172.387 92.5407L174.47 91.9122ZM177.299 101.889C177.702 103.58 178.037 105.278 178.328 106.965L176.12 107.358C175.824 105.693 175.5 104.044 175.065 102.389L177.299 101.889Z" fill="#03298D"/>
<path d="M184.68 98.072L182.786 96.9035L177.02 106.281L168.125 99.8509L166.817 101.67L177.666 109.488L184.68 98.072Z" fill="#03298D"/>
</g>
<defs>
<clipPath id="clip0_47_765">
<rect width="187" height="68" fill="white" transform="translate(181.651 110.463) rotate(-166.262)"/>
</clipPath>
</defs>
</svg>
