<svg width="198" height="108" viewBox="0 0 198 108" fill="none" xmlns="http://www.w3.org/2000/svg">
<g clip-path="url(#clip0_47_762)">
<path d="M115.773 84.8091L114.633 85.0673L114.144 82.9113L115.263 82.6579C116.532 82.3705 117.822 82.0782 119.092 81.7907L119.58 83.9468C118.37 84.198 117.063 84.5168 115.773 84.8091ZM109.534 86.0182C107.856 86.3982 106.125 86.5411 104.403 86.727L104.151 84.5174C105.847 84.3147 107.515 84.0954 109.175 83.8329L109.534 86.0182ZM124.547 82.4138L123.865 80.3016C125.487 79.7755 127.082 79.2328 128.668 78.6469L129.436 80.7396C128.001 81.2914 126.281 81.8849 124.633 82.3943L124.547 82.4138ZM99.1753 87.2084C97.4341 87.3082 95.7095 87.3815 93.9917 87.3852L93.9551 85.1268C95.6464 85.1064 97.328 85.0429 99.0214 84.9313L99.1753 87.2084ZM134.251 78.8332L133.375 76.7648C134.925 76.1191 136.482 75.4039 137.99 74.6768L138.973 76.7208C137.481 77.4214 135.925 78.1367 134.337 78.8137L134.251 78.8332ZM88.8238 87.3317C87.0914 87.2708 85.3659 87.1403 83.6403 87.0098L83.8188 84.7027C85.5062 84.8645 87.2005 84.9568 88.8898 85.0274L88.8238 87.3317ZM143.568 74.3428L142.499 72.3183C143.993 71.5266 145.477 70.6917 146.909 69.8235L148.085 71.8236C146.67 72.6654 145.191 73.5218 143.654 74.3233L143.568 74.3428ZM78.4677 86.4361C76.7392 86.1929 75.0489 85.9184 73.3488 85.6008L73.7599 83.4224C75.4121 83.7282 77.076 83.986 78.7566 84.2173L78.4677 86.4361ZM152.41 69.0534L151.177 67.2021C152.589 66.2476 153.979 65.298 155.36 64.3053L156.669 66.094C155.401 67.0839 153.973 68.0648 152.539 69.0242L152.41 69.0534ZM68.2721 84.5521C66.6003 84.16 64.9189 83.7249 63.2706 83.2369L63.8734 81.1057C65.4903 81.5555 67.1503 81.9955 68.6881 82.3952L68.2721 84.5521ZM160.777 62.9649L159.387 61.2172C160.71 60.1696 161.996 59.0621 163.283 57.9547L164.75 59.6397C163.576 60.7444 162.246 61.8616 160.906 62.9356L160.777 62.9649ZM58.2966 81.6435C56.6768 81.0811 55.052 80.4971 53.3794 79.9013L54.1737 77.8174C55.7555 78.4111 57.3372 79.0049 58.9473 79.5242L58.2966 81.6435ZM168.526 56.0418L166.987 54.441C168.212 53.257 169.388 52.0613 170.555 50.8224L172.169 52.3606C171.078 53.6656 169.913 54.9117 168.674 56.0989L168.526 56.0418ZM48.7936 77.9253C47.2145 77.2101 45.6465 76.4773 44.0896 75.7268L45.0853 73.7333C46.5888 74.4807 48.1304 75.1969 49.6838 75.865L48.7936 77.9253ZM175.779 48.5284L174.093 47.0743C175.202 45.7805 176.263 44.4748 177.297 43.1525L179.055 44.5224C178.013 45.9143 176.828 47.2707 175.789 48.5715L175.779 48.5284ZM39.4971 73.3217C37.9956 72.4831 36.5107 71.6181 35.021 70.7315L36.1917 68.8117C37.6384 69.708 39.0969 70.5563 40.572 71.3782L39.4971 73.3217ZM182.158 40.3515L180.329 39.0658C181.306 37.6885 182.25 36.3641 183.15 34.8456L185.028 36.0521C184.102 37.5538 183.161 38.9909 182.168 40.3947L182.158 40.3515ZM30.6632 67.8652C29.2449 66.8945 27.8216 65.9022 26.4531 64.8522L27.7704 63.0805C29.1291 64.0874 30.483 65.0727 31.918 66.017L30.6632 67.8652ZM187.673 31.5544L185.728 30.4537C186.183 29.6705 186.596 28.897 187.026 28.0971L188.983 29.1498L187.673 31.5544ZM22.3858 61.6708C21.029 60.5728 19.6244 59.4629 18.4514 58.2779L19.9535 56.623C21.2076 57.767 22.4734 58.863 23.7823 59.9492L22.3858 61.6708ZM14.7029 54.707C13.4772 53.4886 12.2681 52.2438 11.1236 50.9844L12.7507 49.4825C13.8904 50.7204 15.0731 51.9485 16.2871 53.2149L14.7029 54.707ZM7.72022 47.0406C6.60403 45.7068 5.54748 44.3367 4.53396 42.957L6.33414 41.6199C7.34278 42.9781 8.36804 44.3099 9.49598 45.5957L7.72022 47.0406Z" fill="#03298D"/>
<path d="M2.81776 53.7497L5.03408 53.9504L6.01029 42.9853L16.8394 44.7712L17.1978 42.5593L4.00079 40.4031L2.81776 53.7497Z" fill="#03298D"/>
</g>
<defs>
<clipPath id="clip0_47_762">
<rect width="187" height="68" fill="white" transform="translate(0 41.3093) rotate(-12.7622)"/>
</clipPath>
</defs>
</svg>
