<svg width="31" height="31" viewBox="0 0 31 31" fill="none" xmlns="http://www.w3.org/2000/svg">
<path d="M30.0277 2.75344C29.8647 3.05412 29.6955 3.34666 29.3445 3.45422C29.303 3.46726 29.2716 3.56179 29.2599 3.6229C29.2528 3.70422 29.2528 3.78604 29.2599 3.86736V17.8994C29.2599 18.7517 28.9888 19.0361 28.1748 19.0361H21.8711C21.7735 19.0434 21.6754 19.0387 21.5788 19.0223C21.3438 18.9636 21.2051 18.8039 21.2247 18.5399C21.2427 18.2954 21.3814 18.1552 21.6164 18.1284C21.7137 18.1205 21.8112 18.1183 21.9087 18.1218H28.3526V3.51534H12.8989V4.30657C12.8989 5.04892 12.891 5.79126 12.9059 6.53279C12.9088 6.59761 12.9249 6.66106 12.9531 6.71893C12.9814 6.7768 13.0211 6.82778 13.0697 6.86852C14.4015 7.70946 14.9108 8.97414 14.7933 10.5354C14.7376 11.2941 14.6092 12.0462 14.5144 12.8016C14.4979 12.9303 14.4869 13.0599 14.4697 13.2277C14.6436 13.2277 14.7878 13.2277 14.9319 13.2277C15.2483 13.2299 15.5515 13.3598 15.7776 13.5899C16.0037 13.8201 16.135 14.1325 16.144 14.4615C16.2223 15.8557 15.6598 16.5695 14.3154 16.8026C14.1938 16.8369 14.09 16.9194 14.0263 17.0324C13.8398 17.373 13.6815 17.7307 13.4951 18.1161H19.2786C19.3757 18.1161 19.5011 18.0811 19.5653 18.1308C19.7032 18.2367 19.8897 18.3753 19.9054 18.5211C19.921 18.667 19.7761 18.856 19.6539 18.9726C19.5755 19.0443 19.4133 19.0288 19.2888 19.0288C17.1969 19.0288 15.1051 19.0288 13.014 19.0353C12.8659 19.0457 12.7247 19.1044 12.6105 19.2032C12.363 19.4142 12.0081 19.6204 11.9391 19.8942C11.8271 20.3407 11.9086 20.8386 11.9086 21.3715C12.5001 21.2045 12.8119 21.6445 13.1551 21.9916C13.3604 22.2076 13.6173 22.3629 13.8993 22.4414C14.2574 22.54 14.6084 22.6688 14.9648 22.7739C16.4581 23.2148 17.2776 24.2896 17.5863 25.8215C17.6661 26.2512 17.707 26.6877 17.7085 27.1253C17.7258 28.1211 17.7148 29.1177 17.7132 30.1142C17.7132 30.7254 17.4594 30.9951 16.882 30.9951H0.845294C0.262398 30.9951 0.00229017 30.7254 0.00229017 30.124C0.00229017 29.0362 -0.00554627 27.9483 0.00777259 26.8645C0.0111742 26.1803 0.149013 25.5039 0.412823 24.8771C0.848428 23.8536 1.57 23.1593 2.60652 22.8285C2.82119 22.7601 3.03429 22.6826 3.25209 22.6297C3.90236 22.4724 4.48056 22.1978 4.92165 21.6478C5.1371 21.3805 5.44422 21.3072 5.81244 21.3675C5.81244 20.8745 5.81793 20.4002 5.80696 19.9268C5.80696 19.8624 5.7341 19.7874 5.67847 19.7393C4.81088 19.0043 4.12527 18.0638 3.67908 16.9965C3.64147 16.9044 3.50045 16.8392 3.39468 16.8001C3.10167 16.6934 2.7828 16.6477 2.50937 16.5051C1.90454 16.189 1.56373 15.6715 1.56921 14.943C1.56921 14.7703 1.56921 14.5975 1.57548 14.4248C1.59209 14.1122 1.71978 13.8172 1.93377 13.5971C2.14775 13.3769 2.43275 13.2473 2.73344 13.2334C2.89013 13.2253 3.04291 13.2334 3.23564 13.2334C3.22153 13.0566 3.21213 12.9075 3.19803 12.7641C3.10323 11.8058 2.90188 10.8443 2.934 9.89086C2.99746 7.97918 4.24395 6.62406 6.06394 6.36819C6.65075 6.2867 7.25245 6.30626 7.84788 6.29974C7.90692 6.29666 7.96593 6.30655 8.02105 6.32877C8.07617 6.351 8.12617 6.38506 8.16779 6.42873C8.2094 6.4724 8.2417 6.5247 8.26258 6.58222C8.28347 6.63975 8.29245 6.7012 8.28897 6.76259C8.28348 7.0209 8.1072 7.19609 7.82751 7.2075C7.30102 7.22869 6.76983 7.2075 6.24805 7.27025C4.65919 7.46826 3.66733 8.71419 3.79425 10.3716C3.86162 11.2615 4.01126 12.144 4.11468 13.0314C4.14524 13.2889 4.3176 13.2253 4.4641 13.2294C4.6208 13.2294 4.76104 13.2025 4.7579 12.9849C4.7579 12.7918 4.75399 12.5978 4.7579 12.4055C4.79003 11.4538 5.46694 10.7131 6.37967 10.7008C8.03121 10.6791 9.68301 10.6791 11.3351 10.7008C12.247 10.7131 12.9263 11.4603 12.9529 12.4121C12.9568 12.5538 12.9529 12.6964 12.9529 12.8391C12.9529 13.1878 13.1778 13.3557 13.4818 13.2212C13.5119 13.1999 13.5374 13.172 13.5563 13.1395C13.5752 13.107 13.5872 13.0707 13.5914 13.033C13.7082 12.1578 13.8421 11.2843 13.9236 10.405C14.0725 8.78998 13.0728 7.487 11.5247 7.2784C11.0232 7.21076 10.5116 7.22787 10.0047 7.21239C9.64514 7.2018 9.43439 7.03068 9.44379 6.7414C9.45319 6.45212 9.65454 6.29159 10 6.29893C10.6621 6.31359 11.3233 6.34048 12.0135 6.3633V4.33102C12.0061 4.19913 12.0061 4.06689 12.0135 3.93499C12.0449 3.65061 11.9947 3.45911 11.6947 3.32792C11.3946 3.19672 11.2512 2.90256 11.2458 2.5595C11.2379 2.02169 11.2293 1.48224 11.2458 0.943616C11.2544 0.694937 11.3546 0.459223 11.5256 0.285249C11.6967 0.111275 11.9255 0.0123568 12.1648 0.00896359C12.2721 0.00325952 12.3794 0.00896359 12.4868 0.00896359C17.9114 0.00896359 23.3361 0.0154825 28.7608 0C29.3523 0 29.7793 0.169492 30.0308 0.743159L30.0277 2.75344ZM4.25179 14.1616C4.25179 14.7214 4.15855 15.2788 4.26824 15.7913C4.70698 17.8285 5.95895 19.1698 7.7805 19.9667C8.11788 20.1188 8.48134 20.1983 8.84904 20.2006C9.21673 20.2028 9.58107 20.1277 9.92014 19.9797C11.5795 19.2871 12.7249 18.0632 13.3431 16.3202C13.5914 15.6194 13.5131 14.8876 13.4998 14.1616C12.5165 14.1925 11.9893 13.7541 12.0809 12.6133C12.0809 12.6036 12.0809 12.593 12.0809 12.5832C12.0809 11.9223 11.7832 11.6143 11.1455 11.6135C9.62137 11.6135 8.09728 11.6135 6.57319 11.6135C5.93858 11.6135 5.61188 11.9264 5.64948 12.5873C5.71373 13.7541 5.21858 14.1844 4.25179 14.1608V14.1616ZM13.5867 30.0816V29.715C13.5867 28.9726 13.5867 28.2311 13.5867 27.4887C13.5867 27.1628 13.7434 26.9778 14.0004 26.9672C14.2738 26.955 14.4532 27.14 14.4603 27.4757C14.4705 27.9834 14.4603 28.4918 14.4642 29.0003V30.0596H16.8655C16.835 28.7754 16.8726 27.5099 16.7566 26.2607C16.6344 24.9423 15.9685 23.9881 14.6593 23.6393C14.3287 23.5513 14.0028 23.4405 13.6815 23.3207C13.4951 23.2514 13.3917 23.2889 13.2765 23.4649C12.7524 24.261 12.211 25.0449 11.6751 25.8329C11.3805 26.2664 11.1807 26.2966 10.789 25.9723C10.7248 25.9193 10.655 25.8737 10.5814 25.8199C10.4247 26.1084 10.2805 26.3716 10.1466 26.6421C10.1119 26.7103 10.1016 26.7892 10.1176 26.8645C10.431 27.8891 10.7522 28.9112 11.0812 29.9309C11.1014 29.9704 11.1303 30.0043 11.1656 30.0298C11.2009 30.0554 11.2415 30.0717 11.2841 30.0776C12.0371 30.0857 12.7915 30.0816 13.5867 30.0816ZM7.13023 25.8166C7.0793 25.8533 7.0464 25.8745 7.01506 25.8981C6.48387 26.3202 6.36792 26.3007 5.97305 25.7221C5.41523 24.9015 4.85662 24.0818 4.29018 23.2506C3.89845 23.3753 3.5216 23.5154 3.13535 23.6124C1.75959 23.9587 1.0678 24.9406 0.953412 26.3267C0.852345 27.549 0.90327 28.7819 0.889167 30.0108C0.889167 30.0271 0.907189 30.0433 0.920508 30.0653H3.25601V29.7247C3.25601 28.9821 3.25601 28.24 3.25601 27.4985C3.25601 27.2255 3.34767 27.0161 3.63285 26.968C3.91803 26.92 4.12878 27.131 4.1327 27.4896C4.13975 28.2409 4.1327 28.993 4.13662 29.7451C4.13662 29.8519 4.1468 29.9578 4.15385 30.0808C4.93732 30.0808 5.68866 30.0857 6.44 30.0727C6.48596 30.0626 6.52892 30.0412 6.56531 30.0103C6.6017 29.9794 6.63046 29.9399 6.64918 29.895C6.97197 28.8952 7.283 27.8905 7.58934 26.8857C7.61217 26.8117 7.60884 26.7317 7.57993 26.66C7.44361 26.3821 7.29005 26.1116 7.13023 25.8166ZM12.1444 2.54728H29.1455C29.1455 2.10399 29.1298 1.68759 29.151 1.27364C29.1659 0.996583 29.0891 0.914281 28.8133 0.915096C23.3636 0.923245 17.9135 0.925418 12.4633 0.921615H12.1405L12.1444 2.54728ZM6.69541 20.4955C6.69541 20.9323 6.68757 21.3373 6.70246 21.7415C6.70961 21.7876 6.72609 21.8317 6.7508 21.8707C6.77551 21.9098 6.8079 21.9429 6.84583 21.968C7.46006 22.3608 8.07821 22.747 8.7042 23.1194C8.75325 23.1433 8.80674 23.1557 8.86089 23.1557C8.91504 23.1557 8.96854 23.1433 9.01759 23.1194C9.64435 22.747 10.2609 22.36 10.8767 21.9696C10.9125 21.9492 10.9437 21.9213 10.9686 21.8876C10.9934 21.8539 11.0112 21.8153 11.0209 21.7741C11.0342 21.3544 11.0279 20.9339 11.0279 20.4972C9.29023 21.2949 8.48248 21.33 6.69384 20.4955H6.69541ZM10.1928 30.0719C9.90838 29.16 9.63652 28.284 9.36388 27.4089C9.2205 26.9509 9.21972 26.9607 8.74494 26.9526C8.55534 26.9526 8.47621 27.0169 8.42059 27.2043C8.15343 28.0934 7.87217 28.9767 7.59482 29.8633C7.57791 29.9319 7.56535 30.0016 7.55721 30.0719H10.1928ZM5.57819 22.2597L5.047 22.7772L6.60217 25.0702L8.09075 23.8194L5.57819 22.2597ZM11.1173 25.0702L12.674 22.7788L12.1436 22.2646L9.63025 23.8202L11.1173 25.0702ZM7.83378 25.2177C7.956 25.4622 8.05863 25.6895 8.18555 25.9022C8.21159 25.9401 8.24498 25.972 8.28358 25.9957C8.32217 26.0194 8.3651 26.0345 8.40962 26.0399C8.71047 26.0562 9.01289 26.0513 9.31452 26.0448C9.47121 26.0448 9.90368 25.3367 9.84571 25.1933C9.83655 25.1754 9.82371 25.1598 9.8081 25.1476L8.85854 24.3523L7.83378 25.2177ZM14.3953 14.0638V15.8614C14.7408 15.7669 15.0863 15.6512 15.1787 15.3105C15.2633 14.9993 15.2837 14.6098 15.1709 14.3237C15.1106 14.1657 14.711 14.1559 14.3953 14.0597V14.0638ZM3.32338 14.151C3.11655 14.151 2.93165 14.1192 2.75537 14.1624C2.69335 14.181 2.63597 14.2135 2.58726 14.2575C2.53854 14.3016 2.49966 14.3561 2.47333 14.4174C2.25396 15.1549 2.5979 15.7074 3.32338 15.8337V14.151Z" fill="white"/>
<path d="M18.7543 14.9316C18.8992 13.7794 18.4597 12.8553 17.7428 12.0201C17.2061 11.3951 16.7478 10.7163 16.588 9.86474C16.074 7.13249 17.7577 4.64959 20.5946 4.64307C24.3121 4.63656 25.4873 8.39146 24.3834 10.7269C24.1413 11.2143 23.8381 11.6662 23.4817 12.0706C22.7922 12.8814 22.4162 13.7818 22.5188 14.8778C22.5337 15.1315 22.5337 15.386 22.5188 15.6397C22.5197 15.9895 22.388 16.3255 22.1523 16.575C21.9167 16.8246 21.596 16.9675 21.2598 16.9728C20.8419 16.9842 20.4217 16.9842 19.9992 16.9728C19.6729 16.9685 19.3609 16.833 19.1287 16.5946C18.8964 16.3562 18.762 16.0336 18.7535 15.6943C18.7472 15.4401 18.7543 15.1858 18.7543 14.9316ZM21.6672 13.8437C21.7563 13.1806 22.0122 12.5538 22.4091 12.0266C22.6692 11.6713 22.945 11.3274 23.2106 10.9762C23.6598 10.4046 23.9016 9.68703 23.8938 8.94883C23.8757 6.81551 22.3919 5.40905 20.3039 5.56062C18.4236 5.6967 17.1552 7.39977 17.4051 9.42309C17.5031 10.2225 17.9254 10.8328 18.4025 11.4179C18.9822 12.1301 19.4907 12.8781 19.6035 13.8364H20.1723V10.1271C20.0454 10.1271 19.9373 10.1345 19.8331 10.1271C19.5604 10.1043 19.3795 9.91282 19.3826 9.66184C19.3857 9.41086 19.5667 9.221 19.8433 9.21774C20.3713 9.21068 20.8991 9.21068 21.4266 9.21774C21.711 9.21774 21.8818 9.39457 21.8873 9.65777C21.8928 9.92097 21.7236 10.1027 21.447 10.1263C21.3334 10.1361 21.2182 10.1263 21.0929 10.1263V13.8429L21.6672 13.8437ZM19.6349 14.78C19.6349 15.0864 19.6255 15.3692 19.6349 15.6511C19.6451 15.9013 19.7861 16.0496 20.0266 16.0586C20.4269 16.0691 20.8273 16.0667 21.2276 16.0586C21.4549 16.0586 21.6084 15.9176 21.6288 15.6927C21.6546 15.3944 21.635 15.0913 21.635 14.7808L19.6349 14.78Z" fill="white"/>
<path d="M8.992 18.3248C8.54779 18.3321 8.11884 18.1564 7.79878 17.8359C7.59273 17.6354 7.5708 17.3845 7.72827 17.184C7.88575 16.9835 8.12627 16.9648 8.35504 17.1302C8.87213 17.5075 9.11343 17.5067 9.6454 17.1245C9.86007 16.9705 10.0959 16.9868 10.2518 17.1661C10.4171 17.3584 10.4085 17.62 10.2087 17.818C10.0492 17.9833 9.85918 18.1135 9.6501 18.2006C9.44102 18.2877 9.21717 18.3299 8.992 18.3248Z" fill="white"/>
<path d="M7.5655 14.4157C7.57375 14.5059 7.57375 14.5968 7.5655 14.6871C7.55524 14.7943 7.5063 14.8935 7.42852 14.9647C7.35075 15.0359 7.24993 15.0739 7.14635 15.0709C7.04274 15.0799 6.93975 15.0472 6.85878 14.9793C6.7778 14.9115 6.72507 14.8138 6.71153 14.7066C6.68799 14.547 6.68325 14.385 6.69743 14.2242C6.71153 13.9325 6.90975 13.7312 7.15654 13.7443C7.40333 13.7573 7.56002 13.948 7.57334 14.2332C7.57334 14.2935 7.57334 14.3546 7.57334 14.4149L7.5655 14.4157Z" fill="white"/>
<path d="M10.4299 14.4152C10.424 14.324 10.424 14.2325 10.4299 14.1414C10.4365 14.0329 10.4835 13.9313 10.5609 13.8582C10.6382 13.785 10.7399 13.746 10.8443 13.7494C10.9437 13.7382 11.0434 13.7675 11.1225 13.8312C11.2015 13.8949 11.2538 13.9879 11.2682 14.0908C11.2991 14.2806 11.3047 14.474 11.2846 14.6653C11.2818 14.7242 11.2674 14.7819 11.2423 14.8348C11.2172 14.8877 11.1819 14.9347 11.1387 14.9729C11.0954 15.011 11.0451 15.0396 10.9909 15.0568C10.9366 15.074 10.8795 15.0794 10.8232 15.0728C10.5772 15.0426 10.4393 14.891 10.4236 14.6295C10.4197 14.5594 10.4236 14.4877 10.4236 14.4168L10.4299 14.4152Z" fill="white"/>
</svg>
