<svg width="18" height="16" viewBox="0 0 18 16" fill="none" xmlns="http://www.w3.org/2000/svg">
<path d="M12.8067 3.99512C12.8067 5.89272 11.132 7.49512 8.97985 7.49512C6.82771 7.49512 5.15301 5.89272 5.15301 3.99512C5.15301 2.09751 6.82771 0.495117 8.97985 0.495117C11.132 0.495117 12.8067 2.09751 12.8067 3.99512ZM0.826172 13.9951C0.826172 13.5293 1.07465 13.0737 1.5967 12.6283C2.12005 12.1818 2.8706 11.7898 3.74359 11.4665C5.48882 10.8202 7.59331 10.4951 8.97985 10.4951C10.3664 10.4951 12.4709 10.8202 14.2161 11.4665C15.0891 11.7898 15.8397 12.1818 16.363 12.6283C16.8851 13.0737 17.1335 13.5293 17.1335 13.9951V14.9951C17.1335 15.2327 16.9083 15.4951 16.5518 15.4951H1.40788C1.05138 15.4951 0.826172 15.2327 0.826172 14.9951V13.9951Z" stroke="white"/>
</svg>
