<svg width="26" height="26" viewBox="0 0 26 26" fill="none" xmlns="http://www.w3.org/2000/svg">
<g clip-path="url(#clip0_414_613)">
<path d="M21.855 -0.00488281C21.9945 0.142328 22.1716 0.270544 22.2677 0.440141C22.5684 0.968608 22.833 1.51607 23.1271 2.04793C23.1566 2.09457 23.1957 2.13522 23.2421 2.16749C23.2885 2.19976 23.3413 2.223 23.3974 2.23584C24.0718 2.34371 24.7491 2.43936 25.427 2.52551C25.6735 2.55808 25.8484 2.66119 25.933 2.8871C26.0176 3.113 25.9135 3.29413 25.7407 3.45423C25.289 3.86737 24.8459 4.29001 24.3812 4.69026C24.2984 4.75163 24.2368 4.83462 24.2041 4.92877C24.1714 5.02292 24.1692 5.12404 24.1976 5.2194C24.3204 5.80825 24.4144 6.40184 24.5286 6.99272C24.5713 7.21319 24.5192 7.39975 24.3291 7.53543C24.139 7.67111 23.9106 7.66772 23.6938 7.56053C23.096 7.26543 22.4961 6.9744 21.9035 6.67116C21.8446 6.63497 21.7758 6.61569 21.7054 6.61569C21.635 6.61569 21.5662 6.63497 21.5074 6.67116C20.9291 6.96558 20.3437 7.24576 19.764 7.53611C19.5414 7.64736 19.3209 7.68535 19.1019 7.54493C18.8677 7.39432 18.8468 7.17181 18.8916 6.93437C18.9465 6.63724 19.0022 6.3401 19.0658 5.99752C18.9306 6.04908 18.841 6.08028 18.7543 6.11624C17.4699 6.64809 16.1877 7.1847 14.8996 7.7091C14.7153 7.7844 14.651 7.8692 14.6582 8.06254C14.69 8.94445 14.187 9.68525 13.3572 10.0231C12.5275 10.3609 11.6088 10.1825 10.9193 9.55364C10.86 9.50005 10.7227 9.45663 10.6569 9.4858C8.9222 10.1927 7.19547 10.9104 5.46656 11.6268C5.45136 11.6348 5.43769 11.6451 5.42609 11.6573C5.40513 12.9951 4.80594 13.7732 3.63575 13.9829C2.65276 14.1586 1.6329 13.6301 1.25055 12.7468C1.06315 12.3116 1.04096 11.8291 1.18771 11.3804C1.33445 10.9316 1.64119 10.5439 2.05646 10.2822C2.78719 9.82025 4.01665 9.70967 4.97651 10.7076L7.16367 9.80261C8.14376 9.39558 9.12169 8.98854 10.1054 8.59101C10.2782 8.52317 10.3439 8.44447 10.3367 8.25724C10.3034 7.3604 10.8072 6.61485 11.6478 6.27905C12.4884 5.94325 13.3941 6.12709 14.0793 6.76546C14.1151 6.79431 14.1576 6.81486 14.2034 6.82547C14.2493 6.83607 14.2971 6.83643 14.3431 6.82651C15.9195 6.18272 17.4901 5.52875 19.0622 4.87546C19.0846 4.86664 19.1027 4.849 19.0882 4.85918C18.6762 4.44853 18.2635 4.03833 17.8501 3.62858C17.7821 3.56074 17.7098 3.49697 17.6383 3.43252C17.5545 3.36653 17.4943 3.27799 17.4659 3.17887C17.4375 3.07975 17.4421 2.97483 17.4793 2.87828C17.5516 2.66594 17.7265 2.56011 17.9643 2.53026C18.5974 2.44953 19.2284 2.35117 19.863 2.27926C20.1023 2.25212 20.2425 2.16393 20.3437 1.95363C20.5851 1.45366 20.8438 0.959789 21.12 0.476096C21.2211 0.298358 21.3924 0.155896 21.5312 -0.00284772L21.855 -0.00488281ZM23.2724 6.20103C23.2001 5.79061 23.1387 5.41681 23.0556 5.04777C22.9833 4.72418 23.0397 4.46164 23.3223 4.22827C23.6273 3.97591 23.8926 3.68149 24.1954 3.38639C23.769 3.32737 23.362 3.25614 22.9515 3.22019C22.6038 3.18966 22.3993 3.0282 22.262 2.73649C22.0979 2.38712 21.9006 2.05132 21.6953 1.66328C21.4669 2.09338 21.2616 2.46853 21.0694 2.84707C20.9624 3.05534 20.8019 3.17948 20.5518 3.20051C20.4174 3.21205 20.2844 3.23375 20.1507 3.25343C19.8377 3.2982 19.5248 3.34501 19.2234 3.38911C19.5428 3.70591 19.8399 4.01119 20.1507 4.30425C20.3379 4.48064 20.4152 4.66719 20.3596 4.92023C20.2685 5.3327 20.2056 5.75058 20.1247 6.19968C20.5446 5.99616 20.94 5.813 21.3231 5.61083C21.438 5.54374 21.5708 5.50857 21.7061 5.50941C21.8415 5.51025 21.9738 5.54706 22.0878 5.61558C22.4636 5.81571 22.8496 5.99345 23.2724 6.20103ZM4.34407 11.9769C4.34532 11.8434 4.31832 11.7109 4.26464 11.5873C4.21095 11.4637 4.13166 11.3513 4.03135 11.2566C3.93104 11.162 3.81171 11.087 3.68027 11.0359C3.54884 10.9849 3.40792 10.9588 3.26568 10.9593C2.97822 10.9591 2.70232 11.0655 2.49805 11.2553C2.29377 11.4451 2.17766 11.703 2.17499 11.9728C2.17928 12.2414 2.29489 12.4979 2.49729 12.6879C2.69969 12.8778 2.97297 12.9863 3.25917 12.9904C3.54571 12.99 3.82045 12.8832 4.02334 12.6933C4.22623 12.5034 4.34076 12.2458 4.34191 11.9769H4.34407ZM11.4136 8.1453C11.414 8.41475 11.5269 8.67332 11.7281 8.86549C11.9293 9.05766 12.2028 9.16809 12.4899 9.17306C12.7778 9.17236 13.0538 9.06512 13.258 8.87461C13.4622 8.6841 13.5781 8.4257 13.5806 8.15548C13.5815 8.02228 13.5544 7.89022 13.5008 7.76689C13.4472 7.64356 13.3682 7.53139 13.2682 7.43683C13.1683 7.34226 13.0494 7.26717 12.9184 7.21587C12.7875 7.16457 12.647 7.13807 12.5051 7.13789C12.3626 7.1361 12.2212 7.16079 12.089 7.21055C11.9568 7.26031 11.8364 7.33414 11.7347 7.4278C11.633 7.52145 11.5521 7.63307 11.4967 7.75622C11.4412 7.87937 11.4122 8.0116 11.4115 8.1453H11.4136Z" fill="white"/>
<path d="M24.9907 18.7098C24.9907 20.9091 24.9907 23.1087 24.9907 25.3085C24.9907 25.8288 24.8158 25.9944 24.268 25.9944H19.1846C18.6555 25.9944 18.4727 25.8227 18.4727 25.3214C18.4727 20.9141 18.4727 16.5066 18.4727 12.0989C18.4727 11.0813 19.1463 10.4517 20.2247 10.4497C21.2366 10.4497 22.2461 10.4497 23.2532 10.4497C24.3135 10.4497 24.9922 11.0901 24.9929 12.086C24.9924 14.2944 24.9917 16.5023 24.9907 18.7098ZM19.5583 24.9544H23.895C23.8993 24.8987 23.9044 24.8655 23.9044 24.8316C23.9044 20.5754 23.9044 16.3189 23.9044 12.0622C23.9044 11.6613 23.6962 11.4693 23.272 11.4687C22.289 11.4687 21.3067 11.4687 20.3237 11.4687C19.7122 11.4687 19.5583 11.6138 19.5583 12.1891C19.5583 16.3445 19.5583 20.4996 19.5583 24.6545V24.9544Z" fill="white"/>
<path d="M15.7511 19.6978V25.2857C15.7511 25.8474 15.5928 25.9981 15.0045 25.9981H9.94495C9.41876 25.9981 9.24023 25.8346 9.24023 25.3495C9.24023 21.6098 9.24023 17.8698 9.24023 14.1296C9.24023 13.1168 9.91315 12.4913 10.9995 12.4893C11.9825 12.4893 12.9652 12.4893 13.9477 12.4893C15.089 12.4893 15.7475 13.1032 15.7482 14.1683C15.7535 16.0108 15.7545 17.854 15.7511 19.6978ZM14.6546 24.9683C14.659 24.8835 14.6647 24.8251 14.6647 24.7647C14.6647 21.2127 14.6647 17.6604 14.6647 14.1079C14.6647 13.6893 14.466 13.5041 14.0215 13.5035C13.0216 13.5035 12.0215 13.5035 11.0212 13.5035C10.5073 13.5035 10.3273 13.6744 10.3273 14.1628C10.3273 17.6728 10.3273 21.1828 10.3273 24.6928V24.9642L14.6546 24.9683Z" fill="white"/>
<path d="M-0.00224632 21.7333C-0.00224632 20.5574 -0.00224632 19.3815 -0.00224632 18.2057C-0.00224632 17.2139 0.683678 16.564 1.73244 16.5592C2.75061 16.5551 3.76901 16.5551 4.78766 16.5592C5.81402 16.564 6.51223 17.201 6.51584 18.1622C6.52452 20.5644 6.52018 22.9673 6.51584 25.3695C6.51584 25.8152 6.31419 25.9936 5.83281 25.9943H0.669223C0.191461 25.9943 -0.00513659 25.8104 -0.00585938 25.362C-0.00345009 24.1527 -0.00224632 22.9431 -0.00224632 21.7333ZM5.41865 24.9679C5.42588 24.8871 5.43528 24.8288 5.43528 24.7704C5.43528 22.5811 5.43528 20.3917 5.43528 18.2023C5.43528 17.7593 5.23434 17.5795 4.7508 17.5781C3.76877 17.5754 2.78699 17.5754 1.80544 17.5781C1.2807 17.5781 1.08844 17.76 1.08844 18.2518C1.08844 20.4068 1.08844 22.5625 1.08844 24.7189V24.9679H5.41865Z" fill="white"/>
</g>
<defs>
<clipPath id="clip0_414_613">
<rect width="25.961" height="26" fill="white" transform="translate(0 -0.00488281)"/>
</clipPath>
</defs>
</svg>
