<svg width="26" height="24" viewBox="0 0 26 24" fill="none" xmlns="http://www.w3.org/2000/svg">
<g clip-path="url(#clip0_414_603)">
<g clip-path="url(#clip1_414_603)">
<path d="M0 2.62161C0.0570433 2.42791 0.102678 2.23128 0.172398 2.04168C0.630646 0.797309 1.84693 -0.000381855 3.30661 -0.00214276C6.22216 -0.0064472 9.13771 -0.0064472 12.0533 -0.00214276C13.9712 -0.00214276 15.8897 -0.00742549 17.8077 -0.00214276C19.3865 0.00313996 20.6598 0.942878 21.0103 2.35278C21.0666 2.58928 21.0944 2.83082 21.0934 3.07299C21.0984 6.01801 21.0984 8.96284 21.0934 11.9075C21.0934 13.6913 19.678 14.9937 17.7443 14.9949C13.908 14.9973 10.0715 14.9973 6.23484 14.9949C6.06819 14.9884 5.90516 15.0411 5.77912 15.1423C4.38135 16.2278 2.97956 17.3082 1.57376 18.3835C1.41713 18.5126 1.24017 18.6189 1.04896 18.6987C0.652195 18.846 0.161621 18.64 0.000632499 18.1381L0 2.62161ZM1.62256 16.3837C1.73095 16.305 1.79623 16.2593 1.85961 16.2111C2.8978 15.4117 3.94042 14.6157 4.97228 13.8092C5.23357 13.5973 5.5713 13.4839 5.91856 13.4917C9.83046 13.498 13.7424 13.4993 17.6543 13.4958C18.8154 13.4958 19.4708 12.8865 19.4708 11.8077V3.20858C19.4708 2.09686 18.8256 1.49639 17.6296 1.49639H3.46063C2.27666 1.49639 1.62256 2.09803 1.62256 3.18804V16.3837Z" fill="white"/>
<path d="M24.997 23.9953C24.798 23.8814 24.5851 23.7845 24.4031 23.6513C23.2623 22.8172 22.1347 21.972 20.9939 21.1408C20.8701 21.0543 20.7204 21.0055 20.5654 21.0011C16.9824 20.9941 13.4033 20.9976 9.81717 20.9947C8.21299 20.9947 6.91367 20.0743 6.58472 18.6515C6.47253 18.1631 6.48964 17.6425 6.50612 17.1383C6.5188 16.7562 6.92254 16.4809 7.33515 16.4979C7.53555 16.506 7.72548 16.583 7.86778 16.714C8.01009 16.8449 8.09454 17.0202 8.1046 17.2058C8.11791 17.4318 8.10841 17.6583 8.10967 17.8849C8.11538 18.8651 8.79483 19.4944 9.85773 19.495C13.517 19.495 17.1758 19.4936 20.8341 19.4908C21.1896 19.4831 21.5357 19.5967 21.8064 19.8102C22.5708 20.3895 23.3478 20.9542 24.1205 21.5241C24.1769 21.5664 24.2377 21.6039 24.3353 21.6697V9.15491C24.3353 8.1641 23.7541 7.57948 22.6874 7.49554C22.2101 7.45739 21.878 7.12282 21.9027 6.70548C21.9275 6.28815 22.2932 5.99349 22.7768 6.00112C24.2979 6.01697 25.6492 7.08584 25.9047 8.47402C25.9177 8.52522 25.9349 8.57545 25.956 8.62429V23.4329C25.8385 23.6842 25.6227 23.8851 25.352 23.9953H24.997Z" fill="white"/>
<path d="M10.5725 4.49675C12.1697 4.49675 13.7663 4.49675 15.3629 4.49675C15.984 4.49675 16.3846 5.008 16.1678 5.51338C16.0455 5.79923 15.8065 5.95713 15.4757 5.99C15.3913 5.99599 15.3067 5.99756 15.2222 5.99469C12.1051 5.99469 8.98774 5.99469 5.87022 5.99469C5.7522 5.99974 5.63393 5.99385 5.51718 5.97708C5.32071 5.94056 5.14594 5.83763 5.02691 5.68833C4.90787 5.53903 4.85309 5.35406 4.87323 5.16941C4.89288 4.98424 4.98677 4.81261 5.13638 4.6884C5.28598 4.5642 5.48043 4.49644 5.68134 4.49851C6.63586 4.49088 7.59039 4.49851 8.54492 4.49851L10.5725 4.49675Z" fill="white"/>
<path d="M8.92458 8.99567C7.85153 8.99567 6.77912 9.00154 5.70607 8.99567C5.09317 8.99097 4.69894 8.458 4.93408 7.95908C5.07986 7.64916 5.35177 7.49948 5.71684 7.4989C6.50214 7.4989 7.28807 7.4989 8.07337 7.4989C9.42466 7.4989 10.7766 7.49479 12.1298 7.4989C12.7458 7.4989 13.1471 8.02717 12.9195 8.52492C12.7737 8.84599 12.4949 8.99449 12.119 8.99449L8.92458 8.99567Z" fill="white"/>
</g>
</g>
<defs>
<clipPath id="clip0_414_603">
<rect width="25.961" height="24" fill="white" transform="translate(0 -0.00488281)"/>
</clipPath>
<clipPath id="clip1_414_603">
<rect width="25.961" height="24" fill="white" transform="translate(0 -0.00488281)"/>
</clipPath>
</defs>
</svg>
