<svg width="21" height="16" viewBox="0 0 21 16" fill="none" xmlns="http://www.w3.org/2000/svg">
<g clip-path="url(#clip0_197_1102)">
<path d="M15.6646 10.3146V12.5988L15.8337 12.6595C16.3692 12.8547 16.7142 13.3133 16.7283 13.888C16.7413 14.4376 16.7362 14.9878 16.7317 15.5379C16.7317 15.7852 16.6257 15.8963 16.3833 15.8986C15.6854 15.9043 14.9877 15.9043 14.2902 15.8986C14.0613 15.8986 13.952 15.7841 13.952 15.5494C13.9458 14.9923 13.9311 14.4342 13.9587 13.8789C13.9892 13.268 14.3251 12.8639 14.8877 12.6509L15.0253 12.5988V10.5579C14.647 10.6386 14.2812 10.7245 13.9114 10.7943C10.2804 11.4779 6.74751 11.1825 3.33639 9.69347C3.14303 9.60875 2.95925 9.50112 2.76815 9.41067C2.57705 9.32022 2.49813 9.16908 2.49925 8.94925C2.50489 7.59935 2.49925 6.24944 2.50602 4.89954C2.50602 4.72035 2.45866 4.64135 2.28391 4.5904C1.63449 4.40263 0.987334 4.20512 0.346375 3.99044C0.211298 3.94244 0.0983306 3.84565 0.0289954 3.71852C-0.0628923 3.52273 0.0712751 3.34869 0.323262 3.27141L3.33244 2.34686C5.68206 1.62553 8.03206 0.905357 10.3824 0.186324C10.4898 0.162519 10.6016 0.169254 10.7054 0.205788C13.6368 1.10191 16.5658 2.00051 19.4923 2.90159C19.8959 3.02582 20.2995 3.15176 20.7037 3.27427C20.8728 3.32465 21.0048 3.3985 20.9997 3.60631C20.9946 3.81412 20.8706 3.90343 20.6908 3.95781C20.0368 4.15532 19.3869 4.36484 18.7307 4.55605C18.5616 4.60528 18.5012 4.67627 18.5024 4.86176C18.5114 6.18304 18.4979 7.50432 18.5136 8.8256C18.5176 9.13359 18.4099 9.30075 18.1337 9.40151C17.3794 9.6763 16.6291 9.96254 15.8788 10.2442C15.8111 10.2688 15.7446 10.2883 15.6646 10.3146ZM19.5306 3.63722C19.4556 3.60459 19.4246 3.58742 19.3919 3.57998C16.4782 2.67813 13.5635 1.77896 10.6479 0.882457C10.5477 0.856208 10.4423 0.858984 10.3435 0.890472C7.52188 1.7553 4.70155 2.62356 1.88253 3.49525C1.75739 3.53361 1.63449 3.57826 1.47721 3.63093C1.56177 3.66127 1.60743 3.68016 1.65422 3.69447C4.55742 4.57914 7.46138 5.46248 10.3661 6.34447C10.4664 6.37073 10.5719 6.36855 10.6711 6.33818C11.8318 5.99183 12.9902 5.63861 14.1493 5.28653C14.1966 5.27222 14.2411 5.24875 14.3184 5.21726L11.9676 4.34252L10.4614 3.78378C10.2922 3.72081 10.1862 3.60803 10.1998 3.41567C10.2017 3.34288 10.2297 3.27329 10.2784 3.21988C10.3272 3.16648 10.3934 3.13291 10.4647 3.12543C10.5548 3.11747 10.6453 3.13201 10.7286 3.16779C12.0302 3.64982 13.3386 4.11582 14.6273 4.63105C15.1307 4.83256 15.5817 4.86576 16.1009 4.68829C17.2193 4.31275 18.3586 3.99102 19.5306 3.63722ZM15.0208 5.70673C14.9334 5.72963 14.859 5.74566 14.7863 5.76799C13.4745 6.17159 12.1616 6.57347 10.8514 6.98336C10.6302 7.0555 10.3923 7.0555 10.171 6.98336C7.9319 6.28913 5.69146 5.59911 3.4497 4.91328C3.35894 4.88523 3.26536 4.86519 3.16783 4.84115C3.16015 4.87048 3.1545 4.90032 3.15092 4.93045C3.15092 6.1796 3.14698 7.42875 3.156 8.67847C3.16403 8.723 3.18217 8.76502 3.20899 8.80119C3.2358 8.83736 3.27054 8.86669 3.31046 8.88685C3.90124 9.13474 4.48583 9.40552 5.09409 9.60073C7.86651 10.4915 10.6891 10.6312 13.5466 10.1125C14.0422 10.0221 14.5326 9.90014 15.0185 9.79366L15.0208 5.70673ZM17.858 4.84C17.7706 4.86176 17.7103 4.87378 17.6517 4.89095C17.0519 5.07128 16.4538 5.25791 15.8512 5.42908C15.7018 5.47144 15.655 5.53556 15.6555 5.69242C15.6623 6.92726 15.6595 8.16152 15.6595 9.39636V9.60131C15.7203 9.59081 15.7803 9.57647 15.8393 9.55837C16.4521 9.32938 17.0626 9.0918 17.6765 8.8651C17.8157 8.81357 17.8625 8.73744 17.8614 8.58458C17.8546 7.41444 17.858 6.24372 17.858 5.07357V4.84ZM16.0761 15.132C16.0761 14.674 16.0992 14.2327 16.0688 13.7953C16.0552 13.6183 15.977 13.4528 15.8496 13.3313C15.7222 13.2097 15.5547 13.1408 15.3799 13.1381C15.0309 13.1243 14.6786 13.3533 14.6436 13.7106C14.5974 14.1783 14.6318 14.6546 14.6318 15.1337L16.0761 15.132Z" fill="#03298D"/>
</g>
<defs>
<clipPath id="clip0_197_1102">
<rect width="21" height="15.7317" fill="white" transform="translate(0 0.170898)"/>
</clipPath>
</defs>
</svg>
