<svg width="19" height="19" viewBox="0 0 19 19" fill="none" xmlns="http://www.w3.org/2000/svg">
<path fill-rule="evenodd" clip-rule="evenodd" d="M6.17493 14.9937C6.17493 15.0682 6.08932 15.1277 5.98138 15.1277C5.85856 15.1389 5.77295 15.0793 5.77295 14.9937C5.77295 14.9193 5.85856 14.8597 5.96649 14.8597C6.07816 14.8486 6.17493 14.9081 6.17493 14.9937ZM5.01742 14.8261C4.99137 14.9005 5.06581 14.9861 5.17747 15.0085C5.27424 15.0457 5.3859 15.0085 5.40823 14.934C5.43056 14.8596 5.35985 14.774 5.24819 14.7405C5.15141 14.7144 5.04347 14.7516 5.01742 14.8261V14.8261ZM6.66255 14.7626C6.55462 14.7886 6.48018 14.8594 6.49134 14.945C6.50251 15.0194 6.59928 15.0678 6.71094 15.0417C6.81888 15.0157 6.89332 14.945 6.88215 14.8705C6.87099 14.7998 6.77049 14.7514 6.66255 14.7626ZM9.11164 0.5C3.94919 0.5 0.00012207 4.41929 0.00012207 9.58175C0.00012207 13.7095 2.5981 17.2417 6.30896 18.4848C6.78538 18.5704 6.95287 18.2764 6.95287 18.0345C6.95287 17.8037 6.9417 16.5308 6.9417 15.7491C6.9417 15.7491 4.33628 16.3074 3.78915 14.64C3.78915 14.64 3.36483 13.5569 2.75442 13.2777C2.75442 13.2777 1.90208 12.6934 2.81397 12.7045C2.81397 12.7045 3.74076 12.779 4.25068 13.6648C5.0658 15.1015 6.43178 14.6884 6.96403 14.4427C7.04964 13.8472 7.29157 13.434 7.55956 13.1884C5.47895 12.9576 3.37972 12.6561 3.37972 9.07555C3.37972 8.05199 3.6626 7.53835 4.25812 6.88328C4.16135 6.64134 3.84498 5.64384 4.35489 4.35602C5.1328 4.11409 6.92309 5.36097 6.92309 5.36097C7.6675 5.15253 8.46773 5.04459 9.26053 5.04459C10.0533 5.04459 10.8536 5.15253 11.598 5.36097C11.598 5.36097 13.3883 4.11037 14.1662 4.35602C14.6761 5.64756 14.3597 6.64134 14.2629 6.88328C14.8585 7.54207 15.2232 8.05571 15.2232 9.07555C15.2232 12.6673 13.0309 12.9539 10.9503 13.1884C11.2928 13.4824 11.5831 14.0407 11.5831 14.9154C11.5831 16.1697 11.5719 17.7218 11.5719 18.027C11.5719 18.269 11.7431 18.563 12.2158 18.4774C15.9378 17.2417 18.4614 13.7095 18.4614 9.58175C18.4614 4.41929 14.2741 0.5 9.11164 0.5ZM3.6179 13.3372C3.56951 13.3745 3.58067 13.4601 3.64395 13.5308C3.7035 13.5903 3.78911 13.6164 3.83749 13.568C3.88588 13.5308 3.87472 13.4452 3.81144 13.3745C3.75189 13.3149 3.66628 13.2889 3.6179 13.3372ZM3.21593 13.0358C3.18988 13.0842 3.2271 13.1437 3.30154 13.181C3.36109 13.2182 3.43553 13.207 3.46159 13.1549C3.48764 13.1065 3.45042 13.047 3.37598 13.0097C3.30154 12.9874 3.24199 12.9986 3.21593 13.0358ZM4.42187 14.3608C4.36231 14.4092 4.38465 14.5209 4.47025 14.5916C4.55586 14.6772 4.6638 14.6884 4.71218 14.6288C4.76057 14.5804 4.73824 14.4688 4.6638 14.398C4.58191 14.3124 4.47025 14.3013 4.42187 14.3608ZM3.99755 13.8137C3.93799 13.8509 3.93799 13.9477 3.99755 14.0333C4.0571 14.1189 4.15759 14.1561 4.20598 14.1189C4.26553 14.0705 4.26553 13.9737 4.20598 13.8881C4.15387 13.8025 4.0571 13.7653 3.99755 13.8137V13.8137Z" fill="black"/>
</svg>
