<svg width="102" height="129" viewBox="0 0 102 129" fill="none" xmlns="http://www.w3.org/2000/svg">
<g clip-path="url(#clip0_206_982)">
<path d="M75.9552 -2.03308e-06C76.8347 0.821682 77.7625 1.59064 78.5628 2.47823C85.9591 10.739 93.3202 19.0306 100.725 27.2869C101.142 27.7199 101.468 28.2308 101.686 28.7904C101.904 29.3499 102.01 29.947 101.996 30.5473C101.967 57.8401 101.958 85.1329 101.97 112.426C101.97 120.537 97.1327 126.821 89.5209 128.587C88.2498 128.862 86.9518 128.993 85.6513 128.978C62.5361 128.999 39.4209 128.999 16.3057 128.978C6.97461 128.978 0.0356584 122.097 0.0356584 112.764C0.00634303 80.5411 0.00634303 48.3358 0.0356584 16.1481C0.0356584 7.93123 5.40038 1.67413 13.4914 0.193336C13.6461 0.143321 13.7939 0.073929 13.9312 -0.0131836L75.9552 -2.03308e-06ZM72.4681 5.27284C71.9405 5.27284 71.6107 5.2245 71.2765 5.2245C52.9983 5.2245 34.7202 5.2245 16.442 5.2245C15.4351 5.20142 14.4293 5.30326 13.4475 5.52769C8.35097 6.82393 5.34321 10.8005 5.34321 16.2623C5.34321 48.3358 5.34321 80.4122 5.34321 112.492C5.34321 119.162 9.80649 123.674 16.464 123.679C39.4883 123.696 62.5156 123.683 85.5457 123.639C87.3034 123.639 89.0408 123.265 90.6422 122.541C94.8724 120.537 96.6446 116.912 96.6446 112.325C96.6446 86.0893 96.6446 59.8511 96.6446 33.61C96.6446 33.2013 96.6094 32.7971 96.583 32.2698H76.2454C73.3388 32.2698 72.4725 31.4173 72.4725 28.5436V5.25526L72.4681 5.27284ZM93.3554 27.0277L77.8944 9.62293V27.0233L93.3554 27.0277Z" fill="black"/>
<path d="M72.4672 5.26855V28.5569C72.4672 31.4306 73.3467 32.2831 76.2401 32.2831H96.5777C96.6041 32.8103 96.6392 33.2146 96.6392 33.6232C96.6392 59.8585 96.6392 86.0968 96.6392 112.338C96.6392 116.925 94.8803 120.55 90.6369 122.554C89.0355 123.278 87.2981 123.653 85.5404 123.653C62.5102 123.723 39.483 123.736 16.4587 123.692C9.80116 123.692 5.33789 119.175 5.33789 112.505C5.33789 80.4343 5.33789 48.3579 5.33789 16.2756C5.33789 10.827 8.34565 6.83722 13.4421 5.54098C14.4239 5.31655 15.4298 5.21471 16.4367 5.23779C34.7178 5.22022 52.9959 5.22022 71.2712 5.23779C71.6097 5.22022 71.9395 5.24658 72.4672 5.26855ZM50.2344 76.2278H80.7298C83.0208 76.2278 84.2476 75.2743 84.2476 73.543C84.2476 71.8118 83.0384 70.8758 80.7298 70.8627H80.6066C60.3966 70.8627 40.1895 70.8627 19.9853 70.8627C19.394 70.853 18.8035 70.9135 18.2264 71.0428C17.6726 71.1836 17.1821 71.5061 16.8337 71.9587C16.4852 72.4112 16.299 72.9676 16.3048 73.5386C16.2973 74.1304 16.4959 74.7064 16.8665 75.1681C17.237 75.6297 17.7566 75.9484 18.3363 76.0696C18.9562 76.1771 19.5849 76.2257 20.214 76.2146C30.2252 76.2292 40.232 76.2336 50.2344 76.2278ZM50.2344 57.8344H19.8622C17.5624 57.8344 16.3444 58.7835 16.3444 60.5015C16.3444 62.2196 17.6196 63.1731 19.8842 63.1863H20.0117C40.2159 63.1863 60.423 63.1863 80.633 63.1863C81.2616 63.197 81.8887 63.1231 82.4975 62.9666C83.0399 62.7881 83.5085 62.4363 83.8311 61.9654C84.1537 61.4946 84.3124 60.9308 84.2828 60.3609C84.2696 59.768 84.0455 59.1991 83.6507 58.7562C83.2558 58.3134 82.7161 58.0255 82.1281 57.9442C81.5452 57.8665 80.9572 57.8327 80.3692 57.8431L50.2344 57.8344ZM50.2344 49.9515C60.4948 49.9515 70.742 49.9515 80.976 49.9515C83.0471 49.9515 84.2652 48.9496 84.2784 47.315C84.2916 45.6805 83.0296 44.6786 80.9848 44.6303H19.9853C17.602 44.6303 16.3224 45.5706 16.318 47.3063C16.3136 49.0419 17.558 49.9427 19.9809 49.9427L50.2344 49.9515ZM50.2344 89.2561C60.4948 89.2561 70.7435 89.2561 80.9804 89.2561C83.0515 89.2561 84.2696 88.2542 84.2828 86.6197C84.296 84.9851 83.0384 83.9832 80.9892 83.9349H19.9897C17.602 83.9349 16.3224 84.8708 16.318 86.6109C16.3136 88.3509 17.558 89.2473 19.9809 89.2693L50.2344 89.2561ZM30.706 32.2655C34.5316 32.2655 38.3529 32.2918 42.1742 32.2655C44.2673 32.2435 45.5073 30.6133 44.9401 28.7503C44.5795 27.5683 43.5505 26.9926 41.8048 26.9926C34.4144 26.9926 27.0225 26.9926 19.6291 26.9926C19.1254 26.9686 18.6209 27.0235 18.1341 27.1552C16.3004 27.7616 15.6672 30.1476 17.0963 31.4086C17.7833 31.9358 18.6223 32.2271 19.4884 32.2391C23.213 32.3138 26.9507 32.2655 30.6884 32.2655H30.706ZM30.8467 96.7303C26.9859 96.7303 23.125 96.7303 19.2642 96.7303C17.5316 96.7303 16.4411 97.719 16.3488 99.2218C16.2476 100.891 17.4745 102.021 19.4752 102.03C24.9719 102.03 30.4685 102.03 35.9652 102.03C38.0627 102.03 40.1602 102.069 42.2577 102.03C44.2453 101.977 45.437 100.443 44.9489 98.6769C44.6191 97.4861 43.5549 96.7479 42.0466 96.7391C38.2957 96.7171 34.5624 96.7303 30.8291 96.7303H30.8467Z" fill="white"/>
<path d="M93.3555 27.0234H77.8945V9.62305L93.3555 27.0234Z" fill="white"/>
<path d="M50.234 76.2274C40.2345 76.2274 30.2351 76.2274 20.2356 76.2274C19.6065 76.2385 18.9778 76.19 18.3579 76.0824C17.7782 75.9613 17.2586 75.6426 16.888 75.1809C16.5175 74.7193 16.3189 74.1433 16.3264 73.5515C16.3206 72.9805 16.5068 72.4241 16.8553 71.9715C17.2037 71.519 17.6942 71.1964 18.248 71.0557C18.8251 70.9263 19.4155 70.8658 20.0069 70.8755C40.2111 70.8755 60.4182 70.8755 80.6282 70.8755H80.7514C83.0687 70.8755 84.2956 71.8202 84.2692 73.5559C84.2428 75.2915 83.0248 76.2362 80.7514 76.2406L50.234 76.2274Z" fill="black"/>
<path d="M50.2356 57.8345H80.3571C80.9452 57.8241 81.5331 57.8578 82.1161 57.9355C82.704 58.0168 83.2438 58.3047 83.6386 58.7476C84.0334 59.1904 84.2575 59.7593 84.2708 60.3523C84.3004 60.9221 84.1417 61.4859 83.8191 61.9568C83.4964 62.4276 83.0278 62.7794 82.4854 62.9579C81.8766 63.1144 81.2495 63.1883 80.621 63.1776C60.4139 63.1776 40.2068 63.1776 19.9997 63.1776H19.8722C17.6075 63.1776 16.3543 62.1977 16.3323 60.4929C16.3103 58.788 17.5636 57.8257 19.8502 57.8257L50.2356 57.8345Z" fill="black"/>
<path d="M50.2348 49.9516H19.9813C17.5584 49.9516 16.314 49.042 16.3184 47.3151C16.3228 45.5883 17.6024 44.6392 19.9857 44.6392H80.972C83.0168 44.6699 84.2744 45.6937 84.2656 47.3239C84.2568 48.9541 83.0344 49.9603 80.9632 49.9603C70.7175 49.9603 60.4747 49.9574 50.2348 49.9516Z" fill="black"/>
<path d="M50.2348 89.2562H19.9813C17.5584 89.2562 16.314 88.3467 16.3184 86.5978C16.3228 84.849 17.6024 83.9219 19.9901 83.9219H80.972C83.0212 83.9526 84.2744 84.9764 84.2656 86.6066C84.2568 88.2368 83.0344 89.243 80.9632 89.243C70.7146 89.2577 60.4718 89.2621 50.2348 89.2562Z" fill="black"/>
<path d="M30.6892 32.2652C26.9515 32.2652 23.2138 32.3135 19.4761 32.23C18.61 32.218 17.7709 31.9267 17.084 31.3995C15.6548 30.1384 16.288 27.7525 18.1217 27.1461C18.606 27.0074 19.1089 26.9451 19.6124 26.9616C27.0057 26.9616 34.3976 26.9616 41.788 26.9616C43.547 26.9616 44.5627 27.5591 44.9233 28.7192C45.4906 30.5866 44.2505 32.2344 42.1574 32.2344C38.3362 32.2915 34.5149 32.2652 30.6892 32.2652Z" fill="black"/>
<path d="M30.8299 96.73C34.5632 96.73 38.3053 96.73 42.0299 96.73C43.5381 96.73 44.6023 97.477 44.9321 98.6678C45.4202 100.425 44.2285 101.968 42.2409 102.02C40.1434 102.078 38.0459 102.02 35.9484 102.02C30.4517 102.02 24.9551 102.02 19.4585 102.02C17.4577 102.02 16.2308 100.882 16.332 99.2126C16.4243 97.7099 17.5149 96.73 19.2474 96.7212C23.1082 96.7124 26.9691 96.73 30.8299 96.73Z" fill="black"/>
</g>
<defs>
<clipPath id="clip0_206_982">
<rect width="102" height="129" fill="white"/>
</clipPath>
</defs>
</svg>
