<svg width="26" height="21" viewBox="0 0 26 21" fill="none" xmlns="http://www.w3.org/2000/svg">
<path d="M9.9785 12.9347H9.4785V13.4347V19.7391C9.4785 20.1241 9.12738 20.5 8.62638 20.5H4.56999C4.06899 20.5 3.71787 20.1241 3.71787 19.7391V10.9129V10.4129H3.21787H0.919253C0.862928 10.4129 0.827439 10.3976 0.805211 10.3823C0.781008 10.3657 0.763866 10.3433 0.754409 10.3198C0.744944 10.2962 0.744689 10.2759 0.748121 10.2612C0.750814 10.2498 0.758491 10.2286 0.790739 10.2021L0.790756 10.2021L0.794632 10.1988L12.0972 0.705442C12.0974 0.705264 12.0976 0.705087 12.0978 0.704909C12.4259 0.431697 12.9396 0.431697 13.2677 0.704909C13.2679 0.705086 13.2681 0.705264 13.2684 0.705442L24.5709 10.1988L24.5708 10.1989L24.5803 10.2065C24.615 10.2343 24.6216 10.2551 24.6237 10.2637C24.6265 10.2755 24.6268 10.2938 24.6174 10.3168C24.5997 10.3599 24.55 10.4129 24.4463 10.4129H22.1476H21.6476V10.9129V19.7391C21.6476 20.1241 21.2965 20.5 20.7955 20.5H16.7391C16.2381 20.5 15.887 20.1241 15.887 19.7391V13.4347V12.9347H15.387H9.9785Z" stroke="white"/>
</svg>
