<svg width="65" height="61" viewBox="0 0 65 61" fill="none" xmlns="http://www.w3.org/2000/svg">
<path d="M24.0518 59.3204C24.3421 57.5921 24.6454 55.7787 24.9487 53.9654C24.9619 53.8009 24.9918 53.6382 25.038 53.48C25.6092 52.0293 25.038 51.0471 23.9309 50.1007C22.5874 48.9447 21.3873 47.6168 20.1202 46.3701C19.7071 45.9621 19.3294 45.5504 19.5489 44.8949C19.7685 44.2395 20.2653 44.1186 20.8514 44.0374C23.0842 43.7276 25.3059 43.3989 27.5257 43.0287C27.694 42.9884 27.8525 42.9141 27.9919 42.8103C28.1313 42.7064 28.2486 42.5751 28.337 42.4242C29.3752 40.3691 30.3688 38.2913 31.3662 36.2154C31.6155 35.6979 31.9113 35.271 32.544 35.271C33.1766 35.271 33.4743 35.6922 33.7236 36.2154C34.7117 38.2687 35.7295 40.3106 36.7007 42.3732C36.7761 42.5653 36.9035 42.7317 37.0681 42.8534C37.2327 42.9751 37.4279 43.047 37.6311 43.0608C39.8806 43.3781 42.1283 43.7257 44.3779 44.0468C44.9361 44.1243 45.3566 44.332 45.5427 44.8968C45.7288 45.4616 45.4534 45.8904 45.0664 46.2719C43.4513 47.868 41.853 49.4831 40.2174 51.0546C39.8267 51.4324 39.7541 51.7818 39.8453 52.2975C40.2528 54.5472 40.6175 56.8044 41.0008 59.0579C41.0901 59.5792 41.0361 60.0571 40.5951 60.4009C40.1542 60.7446 39.6536 60.6823 39.1643 60.4179C37.1771 59.3469 35.1731 58.308 33.2008 57.2067C32.7058 56.9291 32.343 56.9536 31.8648 57.2181C29.8683 58.3212 27.855 59.3922 25.8362 60.4538C24.9077 60.9468 24.0239 60.4103 24.0518 59.3204ZM41.6836 46.0207C40.009 45.7676 38.2004 45.471 36.3863 45.233C36.0867 45.2096 35.7997 45.1007 35.5584 44.9189C35.317 44.7371 35.1313 44.4898 35.0224 44.2055C34.5461 43.1571 34.0269 42.1277 33.5227 41.0964C33.2194 40.473 32.9124 39.8516 32.557 39.1262C32.3709 39.4587 32.2556 39.674 32.1458 39.8988C31.4387 41.3551 30.7279 42.8115 30.0339 44.2754C29.7715 44.8326 29.3938 45.1631 28.7649 45.2198C28.136 45.2765 27.4792 45.3993 26.8391 45.4975C25.6427 45.6864 24.4481 45.8658 23.3615 46.032C24.3514 47.1087 25.2408 48.2874 26.3386 49.2073C27.5834 50.2499 27.896 51.3663 27.4848 52.919C27.1126 54.3111 26.9842 55.7674 26.7275 57.3087C27.0512 57.152 27.2559 57.0556 27.4569 56.9499C28.8933 56.1943 30.3372 55.4387 31.7606 54.6492C32.3077 54.347 32.8007 54.3243 33.331 54.6492C33.6473 54.8381 33.9879 55.0005 34.3172 55.1743L38.3046 57.2974C38.286 57.0613 38.2879 56.9196 38.2656 56.7912C37.9976 55.1894 37.7576 53.5801 37.445 51.9877C37.2757 51.1132 37.4692 50.4766 38.1167 49.8457C39.3615 48.6255 40.504 47.2863 41.6743 46.0207H41.6836Z" fill="white"/>
<path d="M32.8223 16.8901C34.8225 17.079 37.113 17.1111 39.3347 17.5154C43.6887 18.303 46.236 21.1836 47.2668 25.4317C47.6892 27.1808 47.7357 29.0206 47.9571 30.8245C48.3081 33.678 48.6604 36.5328 49.014 39.3888C49.12 40.2501 48.7665 40.8432 48.0929 40.949C47.3914 41.0586 46.8518 40.558 46.7476 39.6759C46.2378 35.3428 45.7503 31.0096 45.22 26.6803C44.7362 22.7306 42.0364 20.1409 38.1643 19.6763C34.2193 19.2217 30.2356 19.2331 26.2931 19.7103C23.05 20.088 20.5027 22.3793 19.7547 25.8548C19.4105 27.4585 19.3584 29.1264 19.1723 30.766C18.8318 33.7636 18.5025 36.7651 18.1471 39.7609C18.0447 40.6298 17.5312 41.0567 16.8167 40.9641C16.1022 40.8716 15.7673 40.2879 15.8584 39.4284C16.3143 35.1841 16.759 30.9397 17.2223 26.6973C17.7973 21.431 21.3307 17.7213 26.7118 17.317C28.6581 17.1754 30.6006 17.0469 32.8223 16.8901Z" fill="white"/>
<path d="M3.44343 59.2739C3.69276 57.7968 3.92535 56.2101 4.24166 54.6423C4.3868 53.9226 4.26957 53.4315 3.70392 52.9234C2.60798 51.9431 1.59949 50.8626 0.54076 49.8313C0.153737 49.4535 -0.127225 49.0436 0.0588432 48.4581C0.244912 47.8725 0.71008 47.6723 1.28317 47.5948C2.8908 47.3776 4.49657 47.1453 6.0949 46.8676C6.24032 46.8263 6.37612 46.7559 6.49435 46.6605C6.61258 46.5651 6.71084 46.4467 6.78336 46.3123C7.51088 44.8937 8.19934 43.4525 8.88593 42.0094C9.1427 41.471 9.44413 41.0139 10.1084 41.0271C10.7317 41.0385 11.0294 41.4635 11.275 41.9848C11.9579 43.4279 12.6761 44.854 13.3572 46.299C13.4242 46.4728 13.5395 46.623 13.6892 46.7314C13.8389 46.8397 14.0164 46.9015 14.2 46.9092C15.8319 47.1188 17.4637 47.3361 19.0788 47.6439C19.4658 47.7176 19.9682 48.0897 20.0835 48.4373C20.1989 48.7848 20.0221 49.4006 19.756 49.6896C18.6099 50.925 17.3706 52.0658 16.204 53.2785C16.1007 53.4033 16.023 53.5478 15.9754 53.7035C15.9278 53.8592 15.9113 54.0229 15.9268 54.1852C16.1649 55.8399 16.5017 57.4813 16.7138 59.1398C16.7342 59.591 16.589 60.0338 16.3063 60.3827C15.9602 60.8039 15.4281 60.7 14.9611 60.4488C13.5283 59.6781 12.0844 58.9244 10.6629 58.1311C10.5003 58.0248 10.3111 57.9682 10.1177 57.9682C9.92434 57.9682 9.73507 58.0248 9.57252 58.1311C8.12863 58.9295 6.67358 59.7089 5.20736 60.4695C4.27702 60.9493 3.40807 60.394 3.44343 59.2739ZM10.1065 44.8408C9.60229 45.8759 9.10363 46.7599 8.73707 47.6968C8.35377 48.6772 7.71184 49.1097 6.69032 49.1815C5.71532 49.2476 4.74777 49.4535 3.75975 49.6008C4.61566 50.4981 5.40459 51.3537 6.22701 52.1754C6.44517 52.3684 6.60625 52.6191 6.69233 52.8996C6.7784 53.1801 6.78608 53.4793 6.71451 53.764C6.48378 54.8973 6.32749 56.0552 6.11723 57.3434C7.21317 56.7616 8.19561 56.2913 9.12409 55.7303C9.82929 55.3034 10.4526 55.3015 11.1299 55.7511C11.5355 56.0193 11.9858 56.2195 12.4175 56.4462C12.9348 56.7182 13.452 56.9864 14.0921 57.3189C13.9414 56.3952 13.8893 55.6094 13.6735 54.8727C13.253 53.4466 13.5134 52.3322 14.7359 51.4142C15.3797 50.9287 15.8858 50.2525 16.5129 49.6008C15.309 49.4271 14.2112 49.2419 13.1078 49.1154C12.784 49.0954 12.4728 48.9803 12.2122 48.7841C11.9516 48.5879 11.7527 48.3191 11.6397 48.0104C11.1783 46.9847 10.6647 45.9893 10.1065 44.8408Z" fill="white"/>
<path d="M54.9646 40.7412C55.4353 41.1908 55.8707 41.4477 56.081 41.833C56.8588 43.3063 57.5416 44.8288 58.3138 46.3097C58.3945 46.4497 58.5018 46.5719 58.6297 46.6692C58.7575 46.7665 58.9031 46.8369 59.0581 46.8763C60.6787 47.1559 62.3087 47.3769 63.9387 47.613C64.4596 47.6886 64.9527 47.9115 64.9955 48.4611C65.0293 48.911 64.8966 49.3576 64.6234 49.7135C63.507 50.9129 62.3292 52.0481 61.1495 53.1834C60.835 53.4875 60.7066 53.7633 60.7941 54.2223C61.0881 55.7712 61.3244 57.3333 61.5961 58.8859C61.6965 59.4696 61.73 60.0287 61.1979 60.4254C60.6657 60.8221 60.1522 60.6256 59.6386 60.3442C58.271 59.5999 56.8904 58.8765 55.5265 58.1228C55.3731 58.0234 55.1949 57.9706 55.013 57.9706C54.831 57.9706 54.6528 58.0234 54.4994 58.1228C53.0964 58.8992 51.6693 59.6339 50.2608 60.4008C49.7547 60.6766 49.2634 60.8088 48.7722 60.4178C48.3126 60.0533 48.281 59.5716 48.3833 59.0144C48.6699 57.439 48.8987 55.8524 49.1909 54.2789C49.2442 54.0907 49.2427 53.8909 49.1866 53.7035C49.1304 53.5161 49.0221 53.3492 48.8746 53.223C47.7247 52.1256 46.6194 50.9809 45.4788 49.874C45.0602 49.4698 44.7811 49.0316 44.9708 48.4385C45.1606 47.8453 45.6463 47.6829 46.2175 47.6017C47.7805 47.392 49.3341 47.1257 50.8971 46.9217C51.0791 46.9117 51.2543 46.8486 51.4018 46.7401C51.5493 46.6315 51.6629 46.4821 51.7288 46.3097C52.4285 44.8231 53.1281 43.3347 53.8891 41.8783C54.0882 41.4779 54.5068 41.2059 54.9646 40.7412ZM54.9906 44.8401C54.4734 45.9036 53.9635 46.8253 53.5709 47.7981C53.1988 48.7029 52.5959 49.0864 51.6693 49.1676C50.6627 49.2564 49.6616 49.4452 48.6922 49.5869C49.4514 50.4048 50.1547 51.2472 50.9474 51.9915C51.5707 52.5751 51.7363 53.1966 51.5651 54.0145C51.3455 55.0647 51.2023 56.1338 51.0069 57.3352C52.021 56.7968 52.9271 56.3775 53.7682 55.8505C54.6092 55.3235 55.3665 55.3008 56.2205 55.8373C57.0746 56.3737 57.9956 56.7987 58.993 57.3295C58.7901 56.0998 58.6655 54.9986 58.4143 53.9295C58.2282 53.1003 58.4794 52.5449 59.0562 51.9934C59.8396 51.2378 60.5578 50.418 61.3281 49.6001C60.1522 49.4207 58.9892 49.2224 57.8207 49.075C57.5552 49.0507 57.3015 48.9523 57.0877 48.7906C56.8738 48.6289 56.7083 48.4102 56.6094 48.1589C56.107 47.0973 55.5786 46.0452 54.9906 44.8401Z" fill="white"/>
<path d="M32.4198 3.13777e-05C36.2323 0.00947586 39.2503 2.29315 40.1044 5.81972C41.1631 10.1887 38.0576 15.5589 33.8748 16.6185C33.0417 16.8455 32.1702 16.8875 31.3197 16.7418C30.4691 16.5961 29.6595 16.2661 28.9459 15.7742C25.9557 13.7587 24.4188 10.8631 24.497 7.22884C24.5937 3.04871 28.0341 -0.011302 32.4198 3.13777e-05ZM38.0223 7.57639C37.9938 7.17791 37.9442 6.78129 37.8734 6.38828C37.2873 3.79671 34.8684 2.12693 32.0476 2.33093C29.2566 2.54248 27.2192 4.23682 26.8507 6.67539C26.4526 9.29529 27.9951 12.5461 30.2614 13.8532C31.6699 14.6654 33.1008 14.6956 34.4851 13.8419C36.7533 12.4441 37.8809 10.3342 38.0279 7.57639H38.0223Z" fill="white"/>
<path d="M25.316 28.1815C25.0406 32.2558 24.8024 35.7881 24.5606 39.326C24.5476 39.5618 24.5196 39.7965 24.4768 40.0286C24.431 40.3114 24.2813 40.566 24.0579 40.7413C23.8345 40.9165 23.5541 40.9993 23.273 40.9731C22.9922 40.9536 22.7291 40.8271 22.5362 40.6191C22.3433 40.4111 22.235 40.1368 22.2328 39.8511C22.2245 39.7095 22.2245 39.5676 22.2328 39.4261C22.484 35.7767 22.7278 32.1255 22.992 28.4705C23.0701 27.407 23.5353 26.8895 24.2591 26.9594C24.4093 26.9641 24.5569 27 24.6928 27.0651C24.8286 27.1301 24.9499 27.2228 25.049 27.3374C25.1481 27.452 25.223 27.5861 25.2689 27.7313C25.3148 27.8765 25.3309 28.0297 25.316 28.1815Z" fill="white"/>
<path d="M39.5048 28.8636C39.4937 28.6747 39.4788 28.4858 39.4751 28.297C39.4583 27.4998 39.8956 26.9577 40.5692 26.9369C41.2018 26.9199 41.6856 27.4167 41.7451 28.1628C41.8307 29.2206 41.9101 30.2784 41.9833 31.3362C42.1731 34.0398 42.3591 36.7472 42.5415 39.4584C42.6085 40.4501 42.0856 41.0621 41.2651 40.9696C40.6585 40.8997 40.2901 40.4596 40.2342 39.6681C40.0314 36.7989 39.8435 33.9296 39.6481 31.0604C39.5985 30.3313 39.5476 29.6022 39.4955 28.8731L39.5048 28.8636Z" fill="white"/>
</svg>
