<svg width="15" height="15" viewBox="0 0 15 15" fill="none" xmlns="http://www.w3.org/2000/svg">
<g clip-path="url(#clip0_197_1106)">
<path d="M5.55007 14.4541C5.61705 14.0358 5.68704 13.597 5.75702 13.1581C5.76008 13.1183 5.76698 13.0789 5.77763 13.0406C5.90945 12.6895 5.77763 12.4518 5.52216 12.2228C5.21215 11.943 4.93521 11.6217 4.64281 11.32C4.54749 11.2212 4.46033 11.1216 4.51099 10.9629C4.56166 10.8043 4.6763 10.775 4.81155 10.7554C5.3268 10.6804 5.83946 10.6009 6.3517 10.5113C6.39053 10.5015 6.42712 10.4835 6.45928 10.4584C6.49144 10.4333 6.51852 10.4015 6.5389 10.365C6.77849 9.86761 7.00777 9.36476 7.23792 8.86236C7.29545 8.7371 7.36372 8.63379 7.50971 8.63379C7.65569 8.63379 7.72439 8.73573 7.78193 8.86236C8.00992 9.35927 8.24479 9.85344 8.46892 10.3526C8.48631 10.3991 8.5157 10.4394 8.55369 10.4688C8.59168 10.4983 8.63672 10.5157 8.6836 10.519C9.20271 10.5958 9.72139 10.68 10.2405 10.7577C10.3693 10.7764 10.4663 10.8267 10.5093 10.9634C10.5522 11.1001 10.4887 11.2038 10.3994 11.2962C10.0267 11.6825 9.65784 12.0733 9.28042 12.4537C9.19026 12.5451 9.17351 12.6297 9.19455 12.7545C9.28858 13.2989 9.37274 13.8452 9.46119 14.3906C9.4818 14.5167 9.46935 14.6324 9.36759 14.7156C9.26583 14.7988 9.15032 14.7837 9.0374 14.7197C8.57884 14.4605 8.11641 14.2091 7.66127 13.9426C7.54706 13.8754 7.46333 13.8813 7.35299 13.9453C6.89227 14.2123 6.4277 14.4715 5.96183 14.7284C5.74758 14.8477 5.54363 14.7179 5.55007 14.4541ZM9.61877 11.2354C9.23233 11.1741 8.81499 11.1024 8.39635 11.0448C8.32722 11.0391 8.26099 11.0127 8.2053 10.9687C8.14962 10.9247 8.10675 10.8649 8.08163 10.7961C7.97171 10.5424 7.85191 10.2932 7.73555 10.0436C7.66557 9.89276 7.59472 9.74236 7.51271 9.56681C7.46977 9.64727 7.44315 9.69939 7.41782 9.75379C7.25466 10.1062 7.09064 10.4587 6.93049 10.813C6.86995 10.9478 6.78278 11.0278 6.63766 11.0416C6.49253 11.0553 6.34097 11.085 6.19326 11.1088C5.91718 11.1545 5.64152 11.1979 5.39077 11.2381C5.6192 11.4987 5.82443 11.784 6.07776 12.0066C6.36501 12.2589 6.43714 12.5291 6.34225 12.9049C6.25638 13.2418 6.22675 13.5942 6.1675 13.9673C6.24221 13.9293 6.28944 13.906 6.33581 13.8804C6.66728 13.6975 7.00047 13.5147 7.32894 13.3236C7.45518 13.2505 7.56896 13.245 7.69133 13.3236C7.76432 13.3693 7.8429 13.4086 7.9189 13.4507L8.83903 13.9645C8.83474 13.9074 8.83517 13.8731 8.83002 13.842C8.76819 13.4543 8.7128 13.0649 8.64066 12.6795C8.60159 12.4678 8.64625 12.3138 8.79567 12.1611C9.08291 11.8658 9.34655 11.5417 9.61662 11.2354H9.61877Z" fill="#03298D"/>
<path d="M7.57419 4.18506C8.03577 4.23077 8.56432 4.23854 9.07698 4.33637C10.0817 4.527 10.6695 5.22414 10.9074 6.25225C11.0049 6.67557 11.0156 7.12082 11.0667 7.55739C11.1477 8.24798 11.229 8.93887 11.3106 9.63007C11.335 9.83853 11.2535 9.98207 11.098 10.0077C10.9362 10.0342 10.8116 9.91304 10.7876 9.69956C10.6699 8.65087 10.5574 7.60219 10.4351 6.55442C10.3234 5.59854 9.70043 4.9718 8.80691 4.85934C7.89656 4.74933 6.97729 4.75209 6.06754 4.86757C5.31915 4.959 4.73134 5.51351 4.55874 6.35465C4.4793 6.74277 4.46728 7.14642 4.42435 7.54322C4.34577 8.2687 4.26977 8.9951 4.18776 9.72013C4.16415 9.93041 4.04564 10.0337 3.88076 10.0113C3.71589 9.98893 3.6386 9.84767 3.65964 9.63967C3.76483 8.61247 3.86745 7.58528 3.97437 6.55854C4.10704 5.28403 4.92241 4.3862 6.16415 4.28837C6.61327 4.25409 7.06153 4.223 7.57419 4.18506Z" fill="#03298D"/>
<path d="M0.794601 14.4429C0.852136 14.0854 0.905808 13.7014 0.9788 13.322C1.01229 13.1478 0.98524 13.029 0.854712 12.906C0.601814 12.6687 0.369096 12.4073 0.124785 12.1577C0.0354762 12.0662 -0.0293583 11.967 0.0135786 11.8253C0.0565155 11.6836 0.163857 11.6351 0.296103 11.6164C0.667077 11.5638 1.03762 11.5076 1.40645 11.4404C1.44001 11.4304 1.47135 11.4134 1.49863 11.3903C1.52591 11.3672 1.54858 11.3385 1.56532 11.306C1.7332 10.9627 1.89207 10.6139 2.0505 10.2646C2.10976 10.1344 2.17932 10.0237 2.3326 10.0269C2.47644 10.0297 2.54514 10.1325 2.60181 10.2587C2.75939 10.6079 2.92513 10.9531 3.08228 11.3028C3.09774 11.3449 3.12437 11.3812 3.1589 11.4074C3.19344 11.4336 3.2344 11.4486 3.27678 11.4505C3.65334 11.5012 4.02989 11.5538 4.40259 11.6283C4.4919 11.6461 4.60782 11.7362 4.63445 11.8203C4.66107 11.9044 4.62028 12.0534 4.55888 12.1234C4.29439 12.4223 4.00843 12.6985 3.73921 12.9919C3.71538 13.0222 3.69745 13.0571 3.68646 13.0948C3.67548 13.1325 3.67166 13.1721 3.67524 13.2114C3.7302 13.6118 3.80791 14.0091 3.85686 14.4105C3.86157 14.5197 3.82806 14.6268 3.76283 14.7113C3.68297 14.8132 3.56017 14.7881 3.45239 14.7273C3.12178 14.5407 2.78859 14.3583 2.46055 14.1663C2.42304 14.1406 2.37937 14.1269 2.33475 14.1269C2.29013 14.1269 2.24645 14.1406 2.20894 14.1663C1.87575 14.3596 1.53999 14.5482 1.20164 14.7323C0.986958 14.8484 0.786443 14.714 0.794601 14.4429ZM2.33217 10.9499C2.21581 11.2004 2.10074 11.4143 2.01616 11.6411C1.92771 11.8783 1.77957 11.983 1.54385 12.0004C1.31886 12.0164 1.09559 12.0662 0.867594 12.1019C1.0651 12.319 1.24716 12.5261 1.43694 12.725C1.48728 12.7717 1.52445 12.8324 1.54431 12.9002C1.56417 12.9681 1.56595 13.0405 1.54943 13.1094C1.49619 13.3837 1.46012 13.6639 1.4116 13.9757C1.6645 13.8349 1.89121 13.7211 2.10546 13.5853C2.26819 13.482 2.41203 13.4815 2.56832 13.5903C2.66193 13.6553 2.76583 13.7037 2.86545 13.7586C2.98481 13.8244 3.10418 13.8893 3.25188 13.9698C3.2171 13.7462 3.20508 13.5561 3.15527 13.3778C3.05823 13.0326 3.11834 12.7629 3.40044 12.5407C3.549 12.4233 3.66579 12.2596 3.81049 12.1019C3.53269 12.0598 3.27936 12.015 3.02474 11.9844C2.95001 11.9796 2.87821 11.9517 2.81807 11.9042C2.75793 11.8568 2.71204 11.7917 2.68597 11.717C2.57949 11.4687 2.46098 11.2278 2.33217 10.9499Z" fill="#03298D"/>
<path d="M12.6834 9.95752C12.7921 10.0663 12.8925 10.1285 12.941 10.2217C13.1205 10.5783 13.2781 10.9468 13.4563 11.3052C13.4749 11.3391 13.4997 11.3686 13.5292 11.3922C13.5587 11.4157 13.5923 11.4328 13.628 11.4423C14.002 11.51 14.3781 11.5635 14.7543 11.6206C14.8745 11.6389 14.9883 11.6928 14.9982 11.8259C15.0059 11.9347 14.9753 12.0428 14.9123 12.1289C14.6547 12.4192 14.3829 12.694 14.1106 12.9687C14.0381 13.0423 14.0085 13.1091 14.0286 13.2201C14.0965 13.595 14.151 13.9731 14.2137 14.3488C14.2369 14.4901 14.2446 14.6254 14.1218 14.7214C13.999 14.8174 13.8805 14.7698 13.762 14.7017C13.4464 14.5216 13.1278 14.3465 12.8131 14.1641C12.7777 14.1401 12.7366 14.1273 12.6946 14.1273C12.6526 14.1273 12.6115 14.1401 12.5761 14.1641C12.2523 14.352 11.923 14.5298 11.598 14.7154C11.4812 14.7822 11.3678 14.8142 11.2545 14.7196C11.1484 14.6313 11.1411 14.5148 11.1647 14.3799C11.2309 13.9987 11.2837 13.6147 11.3511 13.2339C11.3634 13.1883 11.3631 13.1399 11.3501 13.0946C11.3371 13.0492 11.3121 13.0089 11.2781 12.9783C11.0128 12.7127 10.7577 12.4357 10.4945 12.1678C10.3979 12.07 10.3335 11.9639 10.3773 11.8204C10.4211 11.6768 10.5331 11.6375 10.665 11.6179C11.0256 11.5671 11.3842 11.5027 11.7448 11.4533C11.7868 11.4509 11.8272 11.4356 11.8613 11.4093C11.8953 11.3831 11.9215 11.3469 11.9368 11.3052C12.0982 10.9454 12.2596 10.5852 12.4353 10.2327C12.4812 10.1358 12.5778 10.07 12.6834 9.95752ZM12.6894 10.9495C12.5701 11.2069 12.4524 11.43 12.3618 11.6654C12.276 11.8844 12.1368 11.9772 11.923 11.9968C11.6907 12.0183 11.4597 12.064 11.236 12.0983C11.4112 12.2963 11.5735 12.5001 11.7564 12.6803C11.9003 12.8215 11.9385 12.9719 11.899 13.1699C11.8483 13.424 11.8152 13.6828 11.7702 13.9735C12.0042 13.8432 12.2133 13.7417 12.4073 13.6142C12.6014 13.4867 12.7762 13.4812 12.9732 13.611C13.1703 13.7408 13.3829 13.8437 13.613 13.9721C13.5662 13.6745 13.5374 13.408 13.4795 13.1493C13.4365 12.9486 13.4945 12.8142 13.6276 12.6807C13.8084 12.4979 13.9741 12.2995 14.1519 12.1015C13.8805 12.0581 13.6122 12.0101 13.3425 11.9744C13.2812 11.9686 13.2227 11.9447 13.1733 11.9056C13.124 11.8665 13.0858 11.8135 13.063 11.7527C12.9471 11.4958 12.8251 11.2412 12.6894 10.9495Z" fill="#03298D"/>
<path d="M7.48125 0.0976638C8.36103 0.0999496 9.05746 0.652634 9.25454 1.50612C9.49885 2.56348 8.78224 3.86314 7.81702 4.11959C7.62477 4.17451 7.42367 4.18469 7.2274 4.14943C7.03113 4.11417 6.84429 4.0343 6.67962 3.91525C5.98962 3.42748 5.63497 2.72668 5.653 1.84714C5.67533 0.83549 6.46923 0.094921 7.48125 0.0976638ZM8.77408 1.93126C8.76752 1.83482 8.75605 1.73883 8.73973 1.64372C8.60448 1.01652 8.0463 0.612405 7.39538 0.661776C6.75132 0.712976 6.28117 1.12303 6.19615 1.7132C6.10427 2.34726 6.46021 3.134 6.98318 3.45034C7.30821 3.64691 7.6384 3.65422 7.95785 3.4476C8.48125 3.10931 8.74145 2.59868 8.77537 1.93126H8.77408Z" fill="#03298D"/>
<path d="M5.84182 6.91789C5.77827 7.90394 5.72331 8.7588 5.6675 9.61502C5.6645 9.67209 5.65804 9.72889 5.64817 9.78508C5.63759 9.85351 5.60305 9.91514 5.5515 9.95755C5.49996 9.99996 5.43524 10.02 5.37037 10.0136C5.30558 10.0089 5.24486 9.97833 5.20036 9.92798C5.15585 9.87763 5.13085 9.81124 5.13035 9.74211C5.12842 9.70785 5.12842 9.67351 5.13035 9.63925C5.18832 8.75605 5.24457 7.8724 5.30554 6.98783C5.32357 6.73046 5.43091 6.6052 5.59794 6.62212C5.63259 6.62325 5.66665 6.63196 5.698 6.6477C5.72936 6.66344 5.75734 6.68587 5.78021 6.71361C5.80308 6.74134 5.82035 6.77379 5.83095 6.80893C5.84155 6.84407 5.84525 6.88116 5.84182 6.91789Z" fill="#03298D"/>
<path d="M9.11635 7.08309C9.11378 7.03737 9.11034 6.99166 9.10948 6.94594C9.10562 6.75303 9.20652 6.62183 9.36195 6.6168C9.50794 6.61269 9.61957 6.73292 9.63331 6.91349C9.65306 7.16949 9.67138 7.42548 9.68827 7.68148C9.73207 8.33581 9.775 8.99104 9.81708 9.64719C9.83254 9.88719 9.71189 10.0353 9.52253 10.0129C9.38256 9.99599 9.29755 9.88948 9.28467 9.69794C9.23786 9.00354 9.1945 8.30914 9.14941 7.61474C9.13796 7.43828 9.12623 7.26183 9.11421 7.08537L9.11635 7.08309Z" fill="#03298D"/>
</g>
<defs>
<clipPath id="clip0_197_1106">
<rect width="15" height="14.6829" fill="white" transform="translate(0 0.0976562)"/>
</clipPath>
</defs>
</svg>
