<svg width="26" height="31" viewBox="0 0 26 31" fill="none" xmlns="http://www.w3.org/2000/svg">
<path d="M1 25.5127H25" stroke="#192734" stroke-width="1.5" stroke-linecap="round" stroke-linejoin="round"/>
<path d="M2.5 15.0708C2.5 9.27181 7.20101 4.5708 13 4.5708V4.5708C18.799 4.5708 23.5 9.27181 23.5 15.0708V25.5128H2.5V15.0708Z" stroke="#192734" stroke-width="1.5" stroke-linecap="round" stroke-linejoin="round"/>
<path d="M10.4013 25.5127V24.7627C10.1339 24.7627 9.88675 24.9051 9.75258 25.1364L10.4013 25.5127ZM15.5987 25.5127L16.2474 25.1364C16.1133 24.9051 15.8661 24.7627 15.5987 24.7627V25.5127ZM10.75 27.0085C10.75 26.5994 10.8593 26.2179 11.0501 25.889L9.75258 25.1364C9.43284 25.6876 9.25 26.3278 9.25 27.0085H10.75ZM13 29.2502C11.7554 29.2502 10.75 28.2446 10.75 27.0085H9.25C9.25 29.077 10.9309 30.7502 13 30.7502V29.2502ZM15.25 27.0085C15.25 28.2446 14.2446 29.2502 13 29.2502V30.7502C15.0691 30.7502 16.75 29.077 16.75 27.0085H15.25ZM14.9499 25.889C15.1407 26.2179 15.25 26.5994 15.25 27.0085H16.75C16.75 26.3278 16.5672 25.6876 16.2474 25.1364L14.9499 25.889ZM15.5987 24.7627H10.4013V26.2627H15.5987V24.7627Z" fill="#192734"/>
<circle cx="19" cy="5" r="5" fill="#FA5F1C"/>
</svg>
